<svg xmlns="http://www.w3.org/2000/svg" xmlns:xlink="http://www.w3.org/1999/xlink" viewBox="0 0 500 500"><defs><clipPath id="freepik--clip-path--inject-50"><path d="M93.7,318.29S75.35,330.68,70.11,336.4s-2.39,10.24-1.91,14.53,2.62,13.82,8.82,17.16,83.16,1.91,128,3.34,141.15-.28,153.07-3.14,14.75-17.63,15.46-26-7.84-20-12.6-21.45-44.4-1.63-88.49-.68S208.13,325,157.85,324,105.14,316.14,93.7,318.29Z" style="fill:#b2b2b2;stroke:#263238;stroke-linecap:round;stroke-linejoin:round"></path></clipPath><clipPath id="freepik--clip-path-2--inject-50"><path d="M94.36,245.45s-2,11.33-4,18.24-4.56,11.07-5.21,13.68,2.6,9.11,1.56,11.85-2-1.3-8-4.69-10.94-6.64-13.81-8.6c-12.53-8.55,8.81-31.52,18.37-32.57S94.88,242.58,94.36,245.45Z" style="fill:#263238;stroke:#263238;stroke-linecap:round;stroke-linejoin:round"></path></clipPath></defs><g id="freepik--background-simple--inject-50"><path d="M30.12,291.91s10.93,78.7,82.23,123.47,162.76,37.59,237,33.73,126.41-52.54,128.22-116.88-56.49-76.16-94.7-144.56-38-92.42-107.37-129S107.87,61.52,62.9,143.83,30.12,291.91,30.12,291.91Z" style="fill:#C53F3F"></path><path d="M30.12,291.91s10.93,78.7,82.23,123.47,162.76,37.59,237,33.73,126.41-52.54,128.22-116.88-56.49-76.16-94.7-144.56-38-92.42-107.37-129S107.87,61.52,62.9,143.83,30.12,291.91,30.12,291.91Z" style="fill:#fff;opacity:0.7000000000000001"></path></g><g id="freepik--Plants--inject-50"><path d="M451.37,198.69s0-4.71-6.6-11.32S433.92,177,433.92,177s-3.31,10.85,2.83,17.46a116.51,116.51,0,0,0,14.62,12.74Z" style="fill:#C53F3F"></path><path d="M441.79,228.16s0-4.72-6.61-11.32-10.85-10.38-10.85-10.38-3.3,10.85,2.83,17.45a115.31,115.31,0,0,0,14.63,12.74Z" style="fill:#C53F3F"></path><path d="M451,206.73s.49-4.69,7.76-10.56S470.61,187,470.61,187s2.13,11.14-4.66,17.06a116.17,116.17,0,0,1-15.89,11.12Z" style="fill:#C53F3F"></path><path d="M439.38,241.53s1-4.62,8.83-9.69S461,224,461,224s1,11.31-6.42,16.48a116.29,116.29,0,0,1-17,9.39Z" style="fill:#C53F3F"></path><path d="M441.55,279.46s0-4.71,6.61-11.32S459,257.76,459,257.76s3.3,10.85-2.83,17.46A116.24,116.24,0,0,1,441.55,288Z" style="fill:#C53F3F"></path><path d="M441.44,288.72s.67-4.67-4.93-12.14-9.26-11.82-9.26-11.82-4.81,10.27.32,17.68a115.82,115.82,0,0,0,12.67,14.69Z" style="fill:#C53F3F"></path><path d="M434.93,316.17s0-4.72,6.6-11.32,10.86-10.38,10.86-10.38,3.3,10.85-2.83,17.45a116.07,116.07,0,0,1-14.63,12.74Z" style="fill:#C53F3F"></path><path d="M439.34,341.05s-1.19-4.56,3.52-12.63,7.87-12.79,7.87-12.79,5.94,9.67,1.68,17.61a116.44,116.44,0,0,1-10.92,16Z" style="fill:#C53F3F"></path><path d="M452,197.49a134.92,134.92,0,0,1-1.81,14.64c-2.61,13.49-9.14,22.2-11.75,34.38s4.89,27.88,2.88,43.53-8.1,24.36-6.36,34.8,10.88,38.73,10.88,38.73" style="fill:none;stroke:#263238;stroke-linecap:round;stroke-linejoin:round;stroke-width:0.5px"></path><line x1="450.89" y1="209.87" x2="458.01" y2="204.4" style="fill:none;stroke:#263238;stroke-linecap:round;stroke-linejoin:round;stroke-width:0.5px"></line><line x1="451.22" y1="203.58" x2="448.24" y2="198.28" style="fill:none;stroke:#263238;stroke-linecap:round;stroke-linejoin:round;stroke-width:0.5px"></line><path d="M438.81,246s6-4.47,12.08-8.94" style="fill:none;stroke:#263238;stroke-linecap:round;stroke-linejoin:round;stroke-width:0.5px"></path><path d="M441.79,236.65s-5-9.73-10.6-16.19" style="fill:none;stroke:#263238;stroke-linecap:round;stroke-linejoin:round;stroke-width:0.5px"></path><path d="M441.79,286.18a73.51,73.51,0,0,1,12.74-17.05" style="fill:none;stroke:#263238;stroke-linecap:round;stroke-linejoin:round;stroke-width:0.5px"></path><path d="M440.63,292.8a83.07,83.07,0,0,0-6.46-12.25c-3.47-5.13-4-5.8-4-5.8" style="fill:none;stroke:#263238;stroke-linecap:round;stroke-linejoin:round;stroke-width:0.5px"></path><path d="M434.93,324.84A79.38,79.38,0,0,1,440.3,314a69.92,69.92,0,0,1,6.95-9.11" style="fill:none;stroke:#263238;stroke-linecap:round;stroke-linejoin:round;stroke-width:0.5px"></path><path d="M441.49,349.27a20.17,20.17,0,0,1,1.79-10.45c2.48-4.8,5.29-11.09,6.45-13.58" style="fill:none;stroke:#263238;stroke-linecap:round;stroke-linejoin:round;stroke-width:0.5px"></path><path d="M408.12,261.72s-.51-3,2.91-7.82,5.68-7.68,5.68-7.68,3.25,6.44.12,11.25a73.91,73.91,0,0,1-7.79,9.58Z" style="fill:#C53F3F"></path><path d="M417.33,279.16s-.51-3,2.91-7.82,5.68-7.69,5.68-7.69,3.25,6.45.12,11.26a74.25,74.25,0,0,1-7.79,9.57Z" style="fill:#C53F3F"></path><path d="M409.25,266.72s-.82-2.89-6-5.78-8.45-4.47-8.45-4.47-.13,7.22,4.77,10.19a73.55,73.55,0,0,0,11.17,5.25Z" style="fill:#C53F3F"></path><path d="M420.29,287.28s-1.12-2.79-6.59-5.12-8.87-3.55-8.87-3.55.63,7.19,5.82,9.64a73.8,73.8,0,0,0,11.66,4Z" style="fill:#C53F3F"></path><path d="M423.05,311.31s-.52-3-5.38-6.39-7.93-5.33-7.93-5.33-.89,7.16,3.67,10.64a73.74,73.74,0,0,0,10.56,6.4Z" style="fill:#C53F3F"></path><path d="M424.12,317.1s-.93-2.86,1.77-8.15,4.53-8.42,4.53-8.42,4.13,5.92,1.72,11.13a74.44,74.44,0,0,1-6.35,10.58Z" style="fill:#C53F3F"></path><path d="M432.41,341s.34-3,5-6.68,7.61-5.77,7.61-5.77,1.3,7.1-3.06,10.83a73.39,73.39,0,0,1-10.17,7Z" style="fill:#C53F3F"></path><path d="M431.18,333.6s-.51-3-5.37-6.38-7.93-5.33-7.93-5.33-.89,7.16,3.67,10.64a74.38,74.38,0,0,0,10.55,6.4Z" style="fill:#C53F3F"></path><path d="M431.12,349.68s.25-3-3.58-7.53-6.32-7.17-6.32-7.17-2.68,6.71.85,11.22a74.47,74.47,0,0,0,8.59,8.87Z" style="fill:#C53F3F"></path><path d="M407.61,261a85.48,85.48,0,0,0,2.73,9c3.1,8.17,8.14,12.92,11.1,20.28s0,18,2.92,27.61,7.72,14.39,7.76,21.13-2.61,25.47-2.61,25.47" style="fill:none;stroke:#263238;stroke-linecap:round;stroke-linejoin:round;stroke-width:0.5px"></path><line x1="409.63" y1="268.67" x2="404.58" y2="266.02" style="fill:none;stroke:#263238;stroke-linecap:round;stroke-linejoin:round;stroke-width:0.5px"></line><line x1="408.74" y1="264.77" x2="410.04" y2="261.12" style="fill:none;stroke:#263238;stroke-linecap:round;stroke-linejoin:round;stroke-width:0.5px"></line><path d="M421.13,290s-4.22-2.15-8.55-4.29" style="fill:none;stroke:#263238;stroke-linecap:round;stroke-linejoin:round;stroke-width:0.5px"></path><path d="M418.25,284.48a60.54,60.54,0,0,1,4.89-11.3" style="fill:none;stroke:#263238;stroke-linecap:round;stroke-linejoin:round;stroke-width:0.5px"></path><path d="M423.63,315.54a46.94,46.94,0,0,0-9.85-9.31" style="fill:none;stroke:#263238;stroke-linecap:round;stroke-linejoin:round;stroke-width:0.5px"></path><path d="M425.07,319.57a53.59,53.59,0,0,1,2.72-8.39c1.62-3.59,1.86-4.06,1.86-4.06" style="fill:none;stroke:#263238;stroke-linecap:round;stroke-linejoin:round;stroke-width:0.5px"></path><path d="M431.89,344.15a44.36,44.36,0,0,1,5.44-5.64,28.42,28.42,0,0,0,3.53-3.08" style="fill:none;stroke:#263238;stroke-linecap:round;stroke-linejoin:round;stroke-width:0.5px"></path><path d="M432.12,339a49.66,49.66,0,0,0-4.54-6.22,44.19,44.19,0,0,0-5.35-5" style="fill:none;stroke:#263238;stroke-linecap:round;stroke-linejoin:round;stroke-width:0.5px"></path><path d="M430.66,355.07a12.82,12.82,0,0,0-2.25-6.36c-2.08-2.74-4.53-6.38-5.52-7.81" style="fill:none;stroke:#263238;stroke-linecap:round;stroke-linejoin:round;stroke-width:0.5px"></path><path d="M416,361.24h43.21a0,0,0,0,1,0,0V394a3,3,0,0,1-3,3H419.05a3,3,0,0,1-3-3V361.24A0,0,0,0,1,416,361.24Z" style="fill:#263238"></path></g><g id="freepik--Couch--inject-50"><path d="M363.05,327.31S368.29,314.2,365,287c-1.47-11.92-.42-36.42-16.73-37.22-17.4-.84-24.51.88-42,1.08-62.91.71-109.17,7-147.53,3.29-30.83-3-57.43-7.86-68.39,3.1s-10,34.32-9,38.84,8.1,35.51,8.1,35.51l272-1.23Z" style="fill:#999;stroke:#263238;stroke-linecap:round;stroke-linejoin:round"></path><path d="M93,319.48s-5.24-21-13.82-26.69-19.78.47-29.07,9.53S38.17,322.1,42,340s15,44.32,18.35,56.24,3.33,18.11,14.53,21.92,21.93,4.05,28.84-5.48,5-53.38-.48-69.82S93,319.48,93,319.48Z" style="fill:#b2b2b2;stroke:#263238;stroke-linecap:round;stroke-linejoin:round"></path><path d="M92,411.94C87.26,402.88,73,338.3,73.2,329.49s-6.91-23.6-15.72-24.79c-7.27-1-13.08,6-14.9,8.44-2.84,7-3,15.47-.59,26.83,3.81,17.87,3.33,44.88,6.67,56.79S52,414.87,63.19,418.69c7.37,2.5,26.22,2.91,32.22.56A58.87,58.87,0,0,0,92,411.94Z" style="fill:#8a8a8a;stroke:#263238;stroke-linecap:round;stroke-linejoin:round"></path><path d="M348.71,319.08s5.54-21,14.6-26.69,20.89.47,30.7,9.53,12.59,19.78,8.56,37.65-15.86,44.32-19.38,56.24-3.52,18.11-15.35,21.92-23.16,4-30.46-5.48-5.28-53.38.51-69.82S348.71,319.08,348.71,319.08Z" style="fill:#b2b2b2;stroke:#263238;stroke-linecap:round;stroke-linejoin:round"></path><path d="M349.72,412.86c5-9.17,20.13-74.54,19.88-83.47s7.3-23.88,16.61-25.09c7.68-1,13.81,6,15.73,8.54,3,7.08,3.19,15.66.63,27.16-4,18.1-10.18,44.88-13.71,56.94s-3.52,18.33-15.35,22.19c-7.78,2.54-21,3.51-27.37,1.13A58.29,58.29,0,0,1,349.72,412.86Z" style="fill:#8a8a8a;stroke:#263238;stroke-linecap:round;stroke-linejoin:round"></path><path d="M369.72,359.72s-6,37-9.77,49.39S357.33,421.5,350.9,422s-250.53-.21-258.15-1.4-11.68-6.91-13.83-15-4.29-44.87-4.29-44.87l284.85-1Z" style="fill:#999;stroke:#263238;stroke-linecap:round;stroke-linejoin:round"></path><path d="M74.65,366.56a8.26,8.26,0,0,0,6.4,5c5,.92,134.06,2.29,138.18,2.29s109.35,0,126.28-1.37,25.55-3.62,24.21-12.79-.87-1.85-.87-1.85l-297,3.66Z" style="fill:#263238"></path><path d="M93.7,318.29S75.35,330.68,70.11,336.4s-2.39,10.24-1.91,14.53,2.62,13.82,8.82,17.16,83.16,1.91,128,3.34,141.15-.28,153.07-3.14,14.75-17.63,15.46-26-7.84-20-12.6-21.45-44.4-1.63-88.49-.68S208.13,325,157.85,324,105.14,316.14,93.7,318.29Z" style="fill:#b2b2b2"></path><g style="clip-path:url(#freepik--clip-path--inject-50)"><path d="M68.2,350.93c.48,4.29,2.62,13.82,8.82,17.16s83.16,1.91,128,3.34,141.15-.28,153.07-3.14,19.06-14.29,19.78-22.63a11.34,11.34,0,0,0-.42-3.73c-1.68,1.68-4.92-.14-8.74-.69-8.49-1.22-97.83,4.34-164.7,4.34-72.6,0-96.26,0-132.19-6.91-5.35-1-1.67-2.27-1.67-2.27C64.86,342.12,67.72,346.64,68.2,350.93Z" style="fill:#999"></path></g><path d="M93.7,318.29S75.35,330.68,70.11,336.4s-2.39,10.24-1.91,14.53,2.62,13.82,8.82,17.16,83.16,1.91,128,3.34,141.15-.28,153.07-3.14,14.75-17.63,15.46-26-7.84-20-12.6-21.45-44.4-1.63-88.49-.68S208.13,325,157.85,324,105.14,316.14,93.7,318.29Z" style="fill:none;stroke:#263238;stroke-linecap:round;stroke-linejoin:round"></path><path d="M223.41,255.14,223,322.66s-2.95,18.45-2.58,21,.37,27.67.37,27.67" style="fill:none;stroke:#263238;stroke-linecap:round;stroke-linejoin:round"></path></g><g id="freepik--Character--inject-50"><path d="M103.33,286.18s1.6-.2,5-4.2,7.2-7,10.79-6.79-3,2.8-3,2.8,6.19-1.6,10.59.6-1.8,4.19-1.8,4.19,7.19,2.2,6.79,5.2-1.8,2.2-10.39,2.2-13,2.19-16.58,1S98.73,289.58,103.33,286.18Z" style="fill:#263238;stroke:#263238;stroke-linecap:round;stroke-linejoin:round"></path><path d="M91.36,247.4s5.8,3.06,7.69,6.12,0,5.74,4.37,6.24c2.44.29,5.66.24,5.66,2.59a15.31,15.31,0,0,1-.24,3.3s2.12,8.48,1.88,10.37-8.24,4.24-8.24,4.24a7.56,7.56,0,0,0,1.18,5.18c1.65,2.12,9.42,8.48,10.6,9.42s-22.85,3.77-22.85,3.77S86,287.32,78.69,283.32s-10.84-3.77-11.07-7.77,6.59-18.61,12.95-23.33S91.36,247.4,91.36,247.4Z" style="fill:#fff;stroke:#263238;stroke-linecap:round;stroke-linejoin:round"></path><path d="M99.64,262.16a11.52,11.52,0,0,1-1.09.49,1.17,1.17,0,0,0,.06.2c.33.81.85,1.36,1.17,1.24s.3-.89,0-1.7A2.4,2.4,0,0,0,99.64,262.16Z" style="fill:#263238"></path><path d="M97.69,264.24a6,6,0,0,0,3-.59" style="fill:#fff;stroke:#263238;stroke-linecap:round;stroke-linejoin:round;stroke-width:0.5px"></path><path d="M102.48,280.26a31.12,31.12,0,0,1-9.82.62s6.94,4.26,10,3.95Z" style="fill:#263238;stroke:#263238;stroke-linecap:round;stroke-linejoin:round"></path><path d="M98.33,259.74l1.32,2.14a9.83,9.83,0,0,1-3.77,1.89" style="fill:#fff;stroke:#263238;stroke-linecap:round;stroke-linejoin:round"></path><path d="M101.26,269.94s.91,1.95,4.69.52" style="fill:#fff;stroke:#263238;stroke-linecap:round;stroke-linejoin:round"></path><path d="M96.57,256.13s-2.86-.52-4.3,2.87" style="fill:#fff;stroke:#263238;stroke-linecap:round;stroke-linejoin:round"></path><path d="M94.36,245.45s-2,11.33-4,18.24-4.56,11.07-5.21,13.68,2.6,9.11,1.56,11.85-2-1.3-8-4.69-10.94-6.64-13.81-8.6c-12.53-8.55,8.81-31.52,18.37-32.57S94.88,242.58,94.36,245.45Z" style="fill:#263238"></path><g style="clip-path:url(#freepik--clip-path-2--inject-50)"><path d="M94.93,243.11s-6.54,30.51-27.09,38" style="fill:none;stroke:#666;stroke-linecap:round;stroke-linejoin:round"></path><path d="M90.57,241.55s-9,27.4-27.4,33.94" style="fill:none;stroke:#666;stroke-linecap:round;stroke-linejoin:round"></path><path d="M73.13,246.22s-.62,19.93-11.52,28" style="fill:none;stroke:#666;stroke-linecap:round;stroke-linejoin:round"></path></g><path d="M94.36,245.45s-2,11.33-4,18.24-4.56,11.07-5.21,13.68,2.6,9.11,1.56,11.85-2-1.3-8-4.69-10.94-6.64-13.81-8.6c-12.53-8.55,8.81-31.52,18.37-32.57S94.88,242.58,94.36,245.45Z" style="fill:none;stroke:#263238;stroke-linecap:round;stroke-linejoin:round"></path><path d="M88.5,274.24s-4.43-3.91-7.17-2.74-.52,6.13,1.17,6.52,3.52.78,5.47-.13" style="fill:#fff;stroke:#263238;stroke-linecap:round;stroke-linejoin:round"></path><path d="M57.81,299.51S70.5,305.5,73,312s3,13.5,7.5,16,12.5,7,22,9a69.15,69.15,0,0,0,17,1.5s17.5,1,30.5,1,33-4,33-4,14.5,1.5,23.5-16.5,42.5-43,45-62c0,0-40.5,19.5-46.5,28s-46.5,30.5-67.5,30.5-45.5-16-59-25S57.13,290.53,57.81,299.51Z" style="opacity:0.30000000000000004"></path><path d="M103.15,317.3s-8.21-16.42-14.26-25.41-11.53-13.29-18.18-16.8S60.36,270.4,57,268.83s-4.3-.78-4.69,6.06-2,18.76,5.47,24.62,10.75,5.67,15.25,7.82,6.84,8,10.55,15.63,15.24,7.62,19.74,7.23S105.89,321.79,103.15,317.3Z" style="fill:#fff;stroke:#263238;stroke-linecap:round;stroke-linejoin:round"></path><path d="M180.73,293.52s9.64-29.18,13.29-32S231,249,243.79,246.1s29.44-15.37,31.27-17.2,6-3.91,4.69,1.3-2.61,7.82-5.22,11-1,5.73-2.6,8.6-4.43,2.86-8.86.26-6.25-2.61-11.46,1.3-14.86,13.29-25.28,16.41-13.81,3.65-13.81,3.65-4.69,22.15-10.94,31.79-8.6,14.07-18.76,12.25-5.73-17.46-5.21-19S180.73,293.52,180.73,293.52Z" style="fill:#263238;stroke:#263238;stroke-linecap:round;stroke-linejoin:round"></path><path d="M271.93,249.75c1.56-2.87,0-5.48,2.6-8.6s3.91-5.73,5.22-11-2.87-3.12-4.69-1.3a106.51,106.51,0,0,1-23.8,14.7,23.57,23.57,0,0,1,3.16,5.8c3.25-1.88,5.13-1.47,8.65.61C267.5,252.61,270.37,252.61,271.93,249.75Z" style="fill:#fff;stroke:#263238;stroke-linecap:round;stroke-linejoin:round"></path><path d="M275.06,228.9a10,10,0,0,1-.82.71,8.34,8.34,0,0,0,4.91,2.79c.2-.68.4-1.41.6-2.2C281.05,225,276.88,227.08,275.06,228.9Z" style="fill:#a8a8a8;stroke:#263238;stroke-linecap:round;stroke-linejoin:round"></path><path d="M160.93,332.34s27.36,5,37.52,1.31,14.33-14.86,17.2-22.93,3.39-23.19,4.95-27.62,2.08-5.73,2.08-5.73,12-5.48,19-9.12,12.77-17.72,16.94-20.85,4.69,1,7-1.3,6.51-11.73,7.29-17.72S270.1,219,268.54,219s-1.3,3.13-3.91,7-6.51,11.72-10.42,14.33-22.41,13.28-29.44,17.19-16.16,6-20.85,14.07-12.5,25-13.55,26.84a46.09,46.09,0,0,1-2.6,3.91,86.81,86.81,0,0,1-8.6,2.86c-5.47,1.57-12,.79-15.11,3.91S160.93,332.34,160.93,332.34Z" style="fill:#263238;stroke:#263238;stroke-linecap:round;stroke-linejoin:round"></path><path d="M192.27,295s13.44-28,15.6-28.5,30.65-16.14,30.65-16.14" style="fill:none;stroke:#fff;stroke-linecap:round;stroke-linejoin:round"></path><path d="M179.43,310.46s3.65,7.29,4.43,11.72" style="fill:none;stroke:#fff;stroke-linecap:round;stroke-linejoin:round"></path><path d="M181.51,311.24s2.61.78,5,6.77" style="fill:none;stroke:#fff;stroke-linecap:round;stroke-linejoin:round"></path><path d="M187.25,319.84a33.19,33.19,0,0,0,1,3.38" style="fill:none;stroke:#fff;stroke-linecap:round;stroke-linejoin:round"></path><path d="M268.54,219c-1.56,0-1.3,3.13-3.91,7s-6.51,11.72-10.42,14.33c-.79.52-2.17,1.37-3.92,2.43,2,.86,4,3.06,5.45,7.92a15.53,15.53,0,0,1,2.9-3.32c4.17-3.13,4.69,1,7-1.3s6.51-11.73,7.29-17.72S270.1,219,268.54,219Z" style="fill:#fff;stroke:#263238;stroke-linecap:round;stroke-linejoin:round"></path><path d="M268.54,219c-1.26,0-1.34,2-2.68,4.86a28.69,28.69,0,0,1,7.16,3.92C273.49,222.17,270.05,219,268.54,219Z" style="fill:#a8a8a8;stroke:#263238;stroke-linecap:round;stroke-linejoin:round"></path><path d="M144.56,286.75a18.88,18.88,0,0,0-4.61,3.36,95,95,0,0,0-5,8.25l5.6,5.88,4.05-14.13,2.1-1.54Z" style="fill:#C53F3F;stroke:#263238;stroke-linecap:round;stroke-linejoin:round"></path><path d="M93.77,292.09s13.88-2.74,22.47-2.93,11.34-1.37,14.27,1.36,10.75,11.14,12.12,12.51,26-1.37,26-1.37,2.34,5.86.78,15.64a27.71,27.71,0,0,1-7.62,15.24s-16.43,2.4-27.36,1.56c-20.92-1.6-28.64-9.15-33.92-15.6S91,298.14,90.84,295.6,93.77,292.09,93.77,292.09Z" style="fill:#C53F3F;stroke:#263238;stroke-linecap:round;stroke-linejoin:round"></path><path d="M146.08,291.17s-10.16,1.31-11.21,4.17,4.17,22.93,5.74,24,5.47-1.57,5.47-1.57a123.9,123.9,0,0,0,22.41.52c13.29-.78,17.71-7,19.28-7.29s5.73-1.31,5.47-2.61-4.17-13.81-9.9-18.24-14.59-5.47-22.67-2.86A147.21,147.21,0,0,1,146.08,291.17Z" style="fill:#fff;stroke:#263238;stroke-linecap:round;stroke-linejoin:round"></path><polygon points="142.04 290.91 144.2 300.95 175.65 296.97 169.4 287.79 142.04 290.91" style="fill:#fff;stroke:#263238;stroke-linecap:round;stroke-linejoin:round"></polygon><polygon points="159.49 291.53 160.05 292.95 162 292.68 161.47 291.26 159.49 291.53" style="fill:#263238"></polygon><polygon points="162.17 293.16 160.24 293.43 160.92 295.15 162.82 294.89 162.17 293.16" style="fill:#263238"></polygon><polygon points="150.41 296.62 152.01 296.4 151.45 294.66 149.88 294.88 150.41 296.62" style="fill:#263238"></polygon><polygon points="161.98 291.19 162.5 292.61 164.43 292.34 163.91 290.93 161.98 291.19" style="fill:#263238"></polygon><polygon points="151.31 292.64 151.79 294.11 154.04 293.79 153.53 292.34 151.31 292.64" style="fill:#263238"></polygon><polygon points="156.79 291.9 157.36 293.33 159.54 293.02 158.98 291.6 156.79 291.9" style="fill:#263238"></polygon><polygon points="154.04 292.27 154.54 293.72 156.85 293.4 156.28 291.96 154.04 292.27" style="fill:#263238"></polygon><polygon points="160.41 295.23 159.73 293.5 157.55 293.81 158.23 295.53 160.41 295.23" style="fill:#263238"></polygon><polygon points="163.5 295.3 163.82 296.16 165.74 295.92 165.41 295.03 163.5 295.3" style="fill:#263238"></polygon><polygon points="166.96 292.49 165.11 292.75 165.74 294.48 167.68 294.21 166.96 292.49" style="fill:#263238"></polygon><polygon points="162.68 293.09 163.32 294.82 165.24 294.55 164.6 292.82 162.68 293.09" style="fill:#263238"></polygon><polygon points="168.79 295.55 171.25 295.25 170.73 294.29 168.4 294.62 168.79 295.55" style="fill:#263238"></polygon><polygon points="152.68 296.81 152.9 297.49 155.23 297.2 154.98 296.49 152.68 296.81" style="fill:#263238"></polygon><polygon points="154.21 294.27 151.95 294.59 152.52 296.33 154.81 296.01 154.21 294.27" style="fill:#263238"></polygon><polygon points="157.04 293.88 154.71 294.2 155.32 295.94 157.72 295.6 157.04 293.88" style="fill:#263238"></polygon><polygon points="158.42 296.01 158.72 296.78 160.91 296.51 160.6 295.7 158.42 296.01" style="fill:#263238"></polygon><polygon points="164.25 290.38 165.97 290.14 165.73 289.58 164.04 289.82 164.25 290.38" style="fill:#263238"></polygon><polygon points="153.87 291.79 156.09 291.49 155.9 291 153.71 291.32 153.87 291.79" style="fill:#263238"></polygon><polygon points="159.3 291.05 161.29 290.78 161.09 290.25 159.09 290.54 159.3 291.05" style="fill:#263238"></polygon><polygon points="156.6 291.42 158.79 291.12 158.59 290.61 156.41 290.93 156.6 291.42" style="fill:#263238"></polygon><polygon points="151.15 292.16 153.36 291.86 153.2 291.39 151 291.71 151.15 292.16" style="fill:#263238"></polygon><polygon points="150.65 292.23 150.5 291.78 149 292 149.13 292.43 150.65 292.23" style="fill:#263238"></polygon><polygon points="152.39 297.55 152.17 296.88 150.55 297.11 150.75 297.75 152.39 297.55" style="fill:#263238"></polygon><polygon points="166.48 290.07 168.31 289.83 168 289.25 166.24 289.5 166.48 290.07" style="fill:#263238"></polygon><polygon points="149.73 294.4 151.29 294.18 150.81 292.71 149.28 292.92 149.73 294.4" style="fill:#263238"></polygon><polygon points="167.88 294.69 165.92 294.96 166.24 295.86 168.27 295.61 167.88 294.69" style="fill:#263238"></polygon><polygon points="161.8 290.71 163.74 290.45 163.54 289.9 161.6 290.18 161.8 290.71" style="fill:#263238"></polygon><polygon points="157.91 296.08 155.48 296.42 155.74 297.14 158.21 296.84 157.91 296.08" style="fill:#263238"></polygon><polygon points="163 295.37 161.11 295.63 161.43 296.45 163.31 296.22 163 295.37" style="fill:#263238"></polygon><polygon points="164.42 290.86 164.93 292.26 166.75 292.01 166.17 290.62 164.42 290.86" style="fill:#263238"></polygon><polygon points="169.56 292.12 167.47 292.41 168.19 294.14 170.48 293.82 169.56 292.12" style="fill:#263238"></polygon><polygon points="167.27 291.94 169.3 291.65 168.57 290.3 166.68 290.55 167.27 291.94" style="fill:#263238"></polygon><polygon points="175.65 296.97 177.41 268.05 170.57 264.14 169.4 287.79 175.65 296.97" style="fill:#fff;stroke:#263238;stroke-linecap:round;stroke-linejoin:round"></polygon><polygon points="171.66 266.93 170.75 287.5 174.25 292.5 175.5 269.5 171.66 266.93" style="fill:#C53F3F;stroke:#263238;stroke-linecap:round;stroke-linejoin:round;stroke-width:0.5px"></polygon><path d="M157.71,283.38a2.47,2.47,0,0,1,2.46.61c1.36,1.09,4.31,3.53,3.94,4.14s-.86.61-1.6-.12S157.71,283.38,157.71,283.38Z" style="fill:#fff;stroke:#263238;stroke-linecap:round;stroke-linejoin:round"></path><path d="M154.63,283.39s2.24-.84,3.08,0,6.3,5.18,5.88,6-1.12.14-2,.14S154.63,283.39,154.63,283.39Z" style="fill:#fff;stroke:#263238;stroke-linecap:round;stroke-linejoin:round"></path><path d="M143.44,289.41s-1.53-1.12,1.68-3.08,7.14-3.64,8.54-3.5,8,6.72,8,6.72a.87.87,0,0,1-.56,1.12c-.84.28-6.16-3.64-7.13-3.64s-4.2,2-5.18,2.24S145.54,291.23,143.44,289.41Z" style="fill:#fff;stroke:#263238;stroke-linecap:round;stroke-linejoin:round"></path><path d="M149,287.31s7.41,2.8,7.83,2.8-.14,1.12-1.4,1.26-4.33-1.54-5.45-1-3.38.38-5.05.33-1.67-2-1.67-2" style="fill:#fff;stroke:#263238;stroke-linecap:round;stroke-linejoin:round"></path><path d="M104.13,292.87s-6.45-4.5-12.9-2.54-4.88,10.75-.19,19.93,23.64,27.16,26.77,29.12,6.06,0,8.4-3.71,7.62-25.8,9.19-29.32,2.34-5.66,2.34-5.66a16.22,16.22,0,0,0,4.89-2.15l4.49-3.52s7-2.93,7.62-3.32-.19-1-1-1H145c-3.91,0-9,4.3-10.75,6.25s-14.07,24.62-14.07,24.62L104.32,299.9" style="fill:#C53F3F;stroke:#263238;stroke-linecap:round;stroke-linejoin:round"></path><path d="M147.12,295s7-2.93,7.62-3.32-.19-1-1-1H145c-3.91,0-9,4.3-10.75,6.25a86.59,86.59,0,0,0-4.71,7.75l5.71,2.06c.06-.16.12-.31.18-.43,1.56-3.52,2.34-5.66,2.34-5.66a16.22,16.22,0,0,0,4.89-2.15Z" style="fill:#fff;stroke:#263238;stroke-linecap:round;stroke-linejoin:round"></path></g><g id="freepik--Tab--inject-50"><rect x="41.37" y="122.37" width="312.67" height="39.93" rx="4.5" style="fill:#fff;stroke:#263238;stroke-linecap:round;stroke-linejoin:round"></rect><path d="M309.59,122.37h40a4.5,4.5,0,0,1,4.5,4.5V157.8a4.5,4.5,0,0,1-4.5,4.5h-40a0,0,0,0,1,0,0V122.37A0,0,0,0,1,309.59,122.37Z" style="fill:#263238;stroke:#263238;stroke-linecap:round;stroke-linejoin:round"></path><path d="M66.37,149.61a2.37,2.37,0,0,1-.48,1.6,1.93,1.93,0,0,1-2.72,0,2.37,2.37,0,0,1-.48-1.6v-6.24a2.78,2.78,0,0,0-.66-2,2.22,2.22,0,0,0-1.68-.7,2.85,2.85,0,0,0-2.15,1,3.52,3.52,0,0,0-.9,2.5v5.47a2.37,2.37,0,0,1-.48,1.6,1.76,1.76,0,0,1-1.39.56,1.69,1.69,0,0,1-1.34-.56,2.37,2.37,0,0,1-.49-1.6V134.76a2.4,2.4,0,0,1,.47-1.58,1.64,1.64,0,0,1,1.34-.56,1.73,1.73,0,0,1,1.39.56,2.35,2.35,0,0,1,.49,1.58v5.58a4.11,4.11,0,0,1,1.7-1.55,5.79,5.79,0,0,1,2.59-.54,5.5,5.5,0,0,1,1.84.3,4.55,4.55,0,0,1,1.52.88A4,4,0,0,1,66,141a6.12,6.12,0,0,1,.38,2.26Z" style="fill:#263238"></path><path d="M71.71,150.77a4.79,4.79,0,0,1-1-3.38V141h-1.1a1.14,1.14,0,0,1-1.3-1.27,1.17,1.17,0,0,1,.32-.86,1.26,1.26,0,0,1,.94-.32h1.29l.36-3.06c.14-1.27.73-1.91,1.78-1.91s1.41.64,1.41,1.92v3.05h1.92a1.09,1.09,0,0,1,1.24,1.24c0,.81-.43,1.21-1.28,1.21H74.36v5.58a4.64,4.64,0,0,0,.33,2,1.25,1.25,0,0,0,1.2.63h.16l.88,0H77a1,1,0,0,1,.83.38,1.44,1.44,0,0,1,.3.9,1.49,1.49,0,0,1-.09.54,1.32,1.32,0,0,1-.25.38,1.16,1.16,0,0,1-.41.26,4.23,4.23,0,0,1-.5.17,3.8,3.8,0,0,1-.61.08l-.66,0h-1A3.82,3.82,0,0,1,71.71,150.77Z" style="fill:#263238"></path><path d="M82.36,150.77a4.79,4.79,0,0,1-1-3.38V141h-1.1a1.14,1.14,0,0,1-1.3-1.27,1.21,1.21,0,0,1,.31-.86,1.3,1.3,0,0,1,1-.32h1.29l.35-3.06c.14-1.27.74-1.91,1.79-1.91s1.4.64,1.4,1.92v3.05h1.93a1.09,1.09,0,0,1,1.24,1.24c0,.81-.43,1.21-1.28,1.21H85v5.58a4.61,4.61,0,0,0,.34,2,1.25,1.25,0,0,0,1.2.63h.16l.87,0h.08a1,1,0,0,1,.84.38,1.44,1.44,0,0,1,.3.9,1.3,1.3,0,0,1-.1.54,1.12,1.12,0,0,1-.24.38,1.26,1.26,0,0,1-.41.26,4.23,4.23,0,0,1-.5.17,3.8,3.8,0,0,1-.61.08l-.66,0h-1A3.79,3.79,0,0,1,82.36,150.77Z" style="fill:#263238"></path><path d="M91.41,156.19a2.48,2.48,0,0,1-.46-1.6V140.72a2.51,2.51,0,0,1,.5-1.64,1.68,1.68,0,0,1,1.37-.61,1.8,1.8,0,0,1,1.32.47,1.78,1.78,0,0,1,.48,1.32v.37A4.52,4.52,0,0,1,99,138.26a5.17,5.17,0,0,1,4.18,1.9,7.61,7.61,0,0,1,1.57,5,7.09,7.09,0,0,1-1.64,5,5.56,5.56,0,0,1-4.28,1.79,4.42,4.42,0,0,1-4.2-2.17v4.83a2.32,2.32,0,0,1-.49,1.6,1.79,1.79,0,0,1-1.4.55A1.68,1.68,0,0,1,91.41,156.19Zm8-7a2.69,2.69,0,0,0,1-1,4.86,4.86,0,0,0,.55-1.39,7.37,7.37,0,0,0,.18-1.67,7,7,0,0,0-.16-1.53,5.52,5.52,0,0,0-.5-1.41,2.71,2.71,0,0,0-1-1.08,2.82,2.82,0,0,0-1.51-.41,2.92,2.92,0,0,0-2.58,1.13,5.81,5.81,0,0,0-.77,3.31,5.43,5.43,0,0,0,.84,3.19A2.81,2.81,0,0,0,98,149.5,3,3,0,0,0,99.43,149.15Z" style="fill:#263238"></path><path d="M107.15,150a1.21,1.21,0,0,1-.12-.53,1.36,1.36,0,0,1,.08-.44,1.52,1.52,0,0,1,.24-.38,1,1,0,0,1,.37-.27,1.06,1.06,0,0,1,.46-.1,1.51,1.51,0,0,1,.72.2l.24.14.3.16.31.16.37.16.38.15a3.64,3.64,0,0,0,.44.14l.47.1.53.07.56,0a7.19,7.19,0,0,0,1-.07,4.06,4.06,0,0,0,.84-.25,1.48,1.48,0,0,0,.63-.5,1.29,1.29,0,0,0,.23-.76,1.12,1.12,0,0,0-.43-.85,3.38,3.38,0,0,0-1.29-.59l-2-.52-1.16-.34c-.3-.09-.63-.2-1-.34a4.93,4.93,0,0,1-.83-.41,3.64,3.64,0,0,1-.63-.5,2,2,0,0,1-.48-.63,3.55,3.55,0,0,1-.27-.78,4.46,4.46,0,0,1-.11-1,3.27,3.27,0,0,1,1.5-2.82,5.54,5.54,0,0,1,1.69-.73,8.7,8.7,0,0,1,2.18-.25,9.93,9.93,0,0,1,4.3,1,1.32,1.32,0,0,1,.59.49,1.23,1.23,0,0,1,.19.66,1.11,1.11,0,0,1-.29.76,1,1,0,0,1-.77.33l-.27,0a1.47,1.47,0,0,1-.28-.08l-.14,0a9.59,9.59,0,0,0-3.15-.65,4.93,4.93,0,0,0-1,.1,2.18,2.18,0,0,0-.84.4.86.86,0,0,0-.35.7,1,1,0,0,0,.37.87,3.76,3.76,0,0,0,1.35.52l2,.49a12.6,12.6,0,0,1,1.83.61,5.13,5.13,0,0,1,1.31.79,2.83,2.83,0,0,1,.83,1.12,4.12,4.12,0,0,1,.26,1.51,3.85,3.85,0,0,1-.71,2.34,4.2,4.2,0,0,1-1.92,1.43,7.79,7.79,0,0,1-2.76.45,9,9,0,0,1-5.31-1.56A1.14,1.14,0,0,1,107.15,150Z" style="fill:#263238"></path><path d="M121.78,141.39a1.86,1.86,0,0,1-.59-1.43,1.94,1.94,0,0,1,.57-1.4,2,2,0,0,1,1.47-.59,2,2,0,0,1,1.44.57,1.87,1.87,0,0,1,.6,1.42,2,2,0,0,1-2,2A2,2,0,0,1,121.78,141.39Zm0,9.87a1.88,1.88,0,0,1-.59-1.42,1.94,1.94,0,0,1,.57-1.4,2,2,0,0,1,1.47-.59,2.05,2.05,0,0,1,1.44.56,1.88,1.88,0,0,1,.6,1.43,2,2,0,0,1-2,2A2,2,0,0,1,121.78,151.26Z" style="fill:#263238"></path><path d="M128.62,153.07a1,1,0,0,1-.39-.85,4.19,4.19,0,0,1,.2-.93l5.93-17.56a2.41,2.41,0,0,1,.53-.95,1,1,0,0,1,.78-.36,1.29,1.29,0,0,1,.89.33,1.1,1.1,0,0,1,.37.89,3.35,3.35,0,0,1-.18.89l-6.09,18a1.15,1.15,0,0,1-1.16.85A1.38,1.38,0,0,1,128.62,153.07Z" style="fill:#263238"></path><path d="M138.94,153.07a1,1,0,0,1-.39-.85,3.66,3.66,0,0,1,.2-.93l5.93-17.56a2.4,2.4,0,0,1,.52-.95,1.06,1.06,0,0,1,.79-.36,1.29,1.29,0,0,1,.89.33,1.1,1.1,0,0,1,.37.89,3.08,3.08,0,0,1-.19.89l-6.09,18a1.13,1.13,0,0,1-1.15.85A1.36,1.36,0,0,1,138.94,153.07Z" style="fill:#263238"></path><path d="M163.07,151.19a5.43,5.43,0,0,1-1.12-2.31l-2.37-7.16-2.37,7.16a5.55,5.55,0,0,1-1.12,2.31,2.34,2.34,0,0,1-1.7.58,1.9,1.9,0,0,1-1.47-.64,5.41,5.41,0,0,1-1-2.1l-2.65-8.37a2.25,2.25,0,0,1-.09-.61,1.52,1.52,0,0,1,.23-.84,1.48,1.48,0,0,1,.59-.55,1.69,1.69,0,0,1,1.45,0,1.5,1.5,0,0,1,.57.45,1.89,1.89,0,0,1,.39.76l2.4,8.28,2.42-7.39a4.57,4.57,0,0,1,.85-1.72,2.3,2.3,0,0,1,3,0,4.57,4.57,0,0,1,.85,1.72l2.42,7.39,2.4-8.28a1.82,1.82,0,0,1,.64-1,1.6,1.6,0,0,1,1-.35,1.63,1.63,0,0,1,1.12.44,1.47,1.47,0,0,1,.48,1.14,1.51,1.51,0,0,1,0,.3,1.25,1.25,0,0,1-.07.31L167.22,149a5.26,5.26,0,0,1-1,2.1,1.86,1.86,0,0,1-1.46.64A2.34,2.34,0,0,1,163.07,151.19Z" style="fill:#263238"></path><path d="M185.93,151.19a5.43,5.43,0,0,1-1.12-2.31l-2.37-7.16-2.37,7.16a5.55,5.55,0,0,1-1.12,2.31,2.34,2.34,0,0,1-1.7.58,1.88,1.88,0,0,1-1.47-.64,5.41,5.41,0,0,1-1-2.1l-2.65-8.37a2.25,2.25,0,0,1-.09-.61,1.52,1.52,0,0,1,.23-.84,1.48,1.48,0,0,1,.59-.55,1.69,1.69,0,0,1,1.45,0,1.58,1.58,0,0,1,.57.45,1.89,1.89,0,0,1,.39.76l2.39,8.28,2.43-7.39A4.57,4.57,0,0,1,181,139a2.28,2.28,0,0,1,2.95,0,4.43,4.43,0,0,1,.86,1.72l2.42,7.39,2.4-8.28a1.82,1.82,0,0,1,.64-1,1.6,1.6,0,0,1,1-.35,1.63,1.63,0,0,1,1.12.44,1.47,1.47,0,0,1,.48,1.14c0,.1,0,.2,0,.3a2,2,0,0,1-.07.31L190.08,149a5.26,5.26,0,0,1-1,2.1,1.86,1.86,0,0,1-1.46.64A2.34,2.34,0,0,1,185.93,151.19Z" style="fill:#263238"></path><path d="M208.79,151.19a5.32,5.32,0,0,1-1.12-2.31l-2.37-7.16-2.37,7.16a5.55,5.55,0,0,1-1.12,2.31,2.35,2.35,0,0,1-1.71.58,1.88,1.88,0,0,1-1.46-.64,5.55,5.55,0,0,1-1-2.1L195,140.66a1.94,1.94,0,0,1-.1-.61,1.53,1.53,0,0,1,.24-.84,1.48,1.48,0,0,1,.59-.55,1.65,1.65,0,0,1,.79-.19,1.58,1.58,0,0,1,.65.14,1.6,1.6,0,0,1,.58.45,1.76,1.76,0,0,1,.38.76l2.4,8.28,2.43-7.39a4.43,4.43,0,0,1,.85-1.72,2.28,2.28,0,0,1,3,0,4.57,4.57,0,0,1,.86,1.72l2.42,7.39,2.4-8.28a1.81,1.81,0,0,1,.63-1,1.62,1.62,0,0,1,1-.35,1.65,1.65,0,0,1,1.12.44,1.47,1.47,0,0,1,.48,1.14c0,.1,0,.2,0,.3a2,2,0,0,1-.07.31L212.94,149a5.4,5.4,0,0,1-1,2.1,1.86,1.86,0,0,1-1.46.64A2.34,2.34,0,0,1,208.79,151.19Z" style="fill:#263238"></path><path d="M344.6,153.34l-9.73-10.65a2.57,2.57,0,0,0-.4-.34,10,10,0,1,0-3.26,2.92,2.44,2.44,0,0,0,.32.47l9.74,10.65a2.26,2.26,0,0,0,3.19.14A2.25,2.25,0,0,0,344.6,153.34Zm-26.08-16.85a7.8,7.8,0,1,1,7.79,7.8A7.81,7.81,0,0,1,318.52,136.49Z" style="fill:#fff"></path><line x1="173.2" y1="163.32" x2="173.2" y2="248.27" style="fill:none;stroke:#263238;stroke-linecap:round;stroke-linejoin:round"></line></g></svg>