<svg xmlns="http://www.w3.org/2000/svg" viewBox="0 0 500 500"><defs><clipPath id="a"><path fill="#b2b2b2" stroke="#263238" stroke-linecap="round" stroke-linejoin="round" d="M93.7 318.29s-18.35 12.39-23.59 18.11-2.39 10.24-1.91 14.53 2.62 13.82 8.82 17.16 83.16 1.91 128 3.34 141.15-.28 153.07-3.14 14.75-17.63 15.46-26-7.84-20-12.6-21.45-44.4-1.63-88.49-.68S208.13 325 157.85 324s-52.71-7.86-64.15-5.71Z"/></clipPath><clipPath id="b"><path fill="#263238" stroke="#263238" stroke-linecap="round" stroke-linejoin="round" d="M94.36 245.45s-2 11.33-4 18.24-4.56 11.07-5.21 13.68 2.6 9.11 1.56 11.85-2-1.3-8-4.69-10.94-6.64-13.81-8.6c-12.53-8.55 8.81-31.52 18.37-32.57s11.61-.78 11.09 2.09Z"/></clipPath></defs><path fill="#c53f3f" d="M30.12 291.91s10.93 78.7 82.23 123.47 162.76 37.59 237 33.73 126.41-52.54 128.22-116.88-56.49-76.16-94.7-144.56-38-92.42-107.37-129-167.63 2.85-212.6 85.16-32.78 148.08-32.78 148.08Z"/><path fill="#fff" d="M30.12 291.91s10.93 78.7 82.23 123.47 162.76 37.59 237 33.73 126.41-52.54 128.22-116.88-56.49-76.16-94.7-144.56-38-92.42-107.37-129-167.63 2.85-212.6 85.16-32.78 148.08-32.78 148.08Z" opacity=".7"/><path fill="#c53f3f" d="M451.37 198.69s0-4.71-6.6-11.32S433.92 177 433.92 177s-3.31 10.85 2.83 17.46a116.51 116.51 0 0 0 14.62 12.74ZM441.79 228.16s0-4.72-6.61-11.32-10.85-10.38-10.85-10.38-3.3 10.85 2.83 17.45a115.31 115.31 0 0 0 14.63 12.74Z"/><path fill="#c53f3f" d="M451 206.73s.49-4.69 7.76-10.56 11.85-9.17 11.85-9.17 2.13 11.14-4.66 17.06a116.17 116.17 0 0 1-15.89 11.12ZM439.38 241.53s1-4.62 8.83-9.69S461 224 461 224s1 11.31-6.42 16.48a116.29 116.29 0 0 1-17 9.39ZM441.55 279.46s0-4.71 6.61-11.32S459 257.76 459 257.76s3.3 10.85-2.83 17.46A116.24 116.24 0 0 1 441.55 288Z"/><path fill="#c53f3f" d="M441.44 288.72s.67-4.67-4.93-12.14-9.26-11.82-9.26-11.82-4.81 10.27.32 17.68a115.82 115.82 0 0 0 12.67 14.69ZM434.93 316.17s0-4.72 6.6-11.32 10.86-10.38 10.86-10.38 3.3 10.85-2.83 17.45a116.07 116.07 0 0 1-14.63 12.74ZM439.34 341.05s-1.19-4.56 3.52-12.63 7.87-12.79 7.87-12.79 5.94 9.67 1.68 17.61a116.44 116.44 0 0 1-10.92 16Z"/><path fill="none" stroke="#263238" stroke-linecap="round" stroke-linejoin="round" stroke-width=".5" d="M452 197.49a134.92 134.92 0 0 1-1.81 14.64c-2.61 13.49-9.14 22.2-11.75 34.38s4.89 27.88 2.88 43.53-8.1 24.36-6.36 34.8 10.88 38.73 10.88 38.73M450.89 209.87l7.12-5.47M451.22 203.58l-2.98-5.3"/><path fill="none" stroke="#263238" stroke-linecap="round" stroke-linejoin="round" stroke-width=".5" d="M438.81 246s6-4.47 12.08-8.94M441.79 236.65s-5-9.73-10.6-16.19M441.79 286.18a73.51 73.51 0 0 1 12.74-17.05M440.63 292.8a83.07 83.07 0 0 0-6.46-12.25c-3.47-5.13-4-5.8-4-5.8M434.93 324.84A79.38 79.38 0 0 1 440.3 314a69.92 69.92 0 0 1 6.95-9.11M441.49 349.27a20.17 20.17 0 0 1 1.79-10.45c2.48-4.8 5.29-11.09 6.45-13.58"/><path fill="#c53f3f" d="M408.12 261.72s-.51-3 2.91-7.82 5.68-7.68 5.68-7.68 3.25 6.44.12 11.25a73.91 73.91 0 0 1-7.79 9.58ZM417.33 279.16s-.51-3 2.91-7.82 5.68-7.69 5.68-7.69 3.25 6.45.12 11.26a74.25 74.25 0 0 1-7.79 9.57Z"/><path fill="#c53f3f" d="M409.25 266.72s-.82-2.89-6-5.78-8.45-4.47-8.45-4.47-.13 7.22 4.77 10.19a73.55 73.55 0 0 0 11.17 5.25ZM420.29 287.28s-1.12-2.79-6.59-5.12-8.87-3.55-8.87-3.55.63 7.19 5.82 9.64a73.8 73.8 0 0 0 11.66 4ZM423.05 311.31s-.52-3-5.38-6.39-7.93-5.33-7.93-5.33-.89 7.16 3.67 10.64a73.74 73.74 0 0 0 10.56 6.4Z"/><path fill="#c53f3f" d="M424.12 317.1s-.93-2.86 1.77-8.15 4.53-8.42 4.53-8.42 4.13 5.92 1.72 11.13a74.44 74.44 0 0 1-6.35 10.58ZM432.41 341s.34-3 5-6.68 7.61-5.77 7.61-5.77 1.3 7.1-3.06 10.83a73.39 73.39 0 0 1-10.17 7ZM431.18 333.6s-.51-3-5.37-6.38-7.93-5.33-7.93-5.33-.89 7.16 3.67 10.64a74.38 74.38 0 0 0 10.55 6.4ZM431.12 349.68s.25-3-3.58-7.53-6.32-7.17-6.32-7.17-2.68 6.71.85 11.22a74.47 74.47 0 0 0 8.59 8.87Z"/><path fill="none" stroke="#263238" stroke-linecap="round" stroke-linejoin="round" stroke-width=".5" d="M407.61 261a85.48 85.48 0 0 0 2.73 9c3.1 8.17 8.14 12.92 11.1 20.28s0 18 2.92 27.61 7.72 14.39 7.76 21.13-2.61 25.47-2.61 25.47M409.63 268.67l-5.05-2.65M408.74 264.77l1.3-3.65"/><path fill="none" stroke="#263238" stroke-linecap="round" stroke-linejoin="round" stroke-width=".5" d="M421.13 290s-4.22-2.15-8.55-4.29M418.25 284.48a60.54 60.54 0 0 1 4.89-11.3M423.63 315.54a46.94 46.94 0 0 0-9.85-9.31M425.07 319.57a53.59 53.59 0 0 1 2.72-8.39c1.62-3.59 1.86-4.06 1.86-4.06M431.89 344.15a44.36 44.36 0 0 1 5.44-5.64 28.42 28.42 0 0 0 3.53-3.08M432.12 339a49.66 49.66 0 0 0-4.54-6.22 44.19 44.19 0 0 0-5.35-5M430.66 355.07a12.82 12.82 0 0 0-2.25-6.36c-2.08-2.74-4.53-6.38-5.52-7.81"/><path fill="#263238" d="M416 361.24h43.21V394a3 3 0 0 1-3 3h-37.16a3 3 0 0 1-3-3v-32.76H416Z"/><path fill="#999" stroke="#263238" stroke-linecap="round" stroke-linejoin="round" d="M363.05 327.31S368.29 314.2 365 287c-1.47-11.92-.42-36.42-16.73-37.22-17.4-.84-24.51.88-42 1.08-62.91.71-109.17 7-147.53 3.29-30.83-3-57.43-7.86-68.39 3.1s-10 34.32-9 38.84 8.1 35.51 8.1 35.51l272-1.23Z"/><path fill="#b2b2b2" stroke="#263238" stroke-linecap="round" stroke-linejoin="round" d="M93 319.48s-5.24-21-13.82-26.69-19.78.47-29.07 9.53S38.17 322.1 42 340s15 44.32 18.35 56.24 3.33 18.11 14.53 21.92 21.93 4.05 28.84-5.48 5-53.38-.48-69.82S93 319.48 93 319.48Z"/><path fill="#8a8a8a" stroke="#263238" stroke-linecap="round" stroke-linejoin="round" d="M92 411.94c-4.74-9.06-19-73.64-18.8-82.45s-6.91-23.6-15.72-24.79c-7.27-1-13.08 6-14.9 8.44-2.84 7-3 15.47-.59 26.83 3.81 17.87 3.33 44.88 6.67 56.79s3.34 18.11 14.53 21.93c7.37 2.5 26.22 2.91 32.22.56a58.87 58.87 0 0 0-3.41-7.31Z"/><path fill="#b2b2b2" stroke="#263238" stroke-linecap="round" stroke-linejoin="round" d="M348.71 319.08s5.54-21 14.6-26.69 20.89.47 30.7 9.53 12.59 19.78 8.56 37.65-15.86 44.32-19.38 56.24-3.52 18.11-15.35 21.92-23.16 4-30.46-5.48-5.28-53.38.51-69.82 10.82-23.35 10.82-23.35Z"/><path fill="#8a8a8a" stroke="#263238" stroke-linecap="round" stroke-linejoin="round" d="M349.72 412.86c5-9.17 20.13-74.54 19.88-83.47s7.3-23.88 16.61-25.09c7.68-1 13.81 6 15.73 8.54 3 7.08 3.19 15.66.63 27.16-4 18.1-10.18 44.88-13.71 56.94s-3.52 18.33-15.35 22.19c-7.78 2.54-21 3.51-27.37 1.13a58.29 58.29 0 0 1 3.58-7.4Z"/><path fill="#999" stroke="#263238" stroke-linecap="round" stroke-linejoin="round" d="M369.72 359.72s-6 37-9.77 49.39-2.62 12.39-9.05 12.89-250.53-.21-258.15-1.4-11.68-6.91-13.83-15-4.29-44.87-4.29-44.87l284.85-1Z"/><path fill="#263238" d="M74.65 366.56a8.26 8.26 0 0 0 6.4 5c5 .92 134.06 2.29 138.18 2.29s109.35 0 126.28-1.37 25.55-3.62 24.21-12.79-.87-1.85-.87-1.85l-297 3.66Z"/><path fill="#b2b2b2" d="M93.7 318.29s-18.35 12.39-23.59 18.11-2.39 10.24-1.91 14.53 2.62 13.82 8.82 17.16 83.16 1.91 128 3.34 141.15-.28 153.07-3.14 14.75-17.63 15.46-26-7.84-20-12.6-21.45-44.4-1.63-88.49-.68S208.13 325 157.85 324s-52.71-7.86-64.15-5.71Z"/><g clip-path="url(#a)"><path fill="#999" d="M68.2 350.93c.48 4.29 2.62 13.82 8.82 17.16s83.16 1.91 128 3.34 141.15-.28 153.07-3.14 19.06-14.29 19.78-22.63a11.34 11.34 0 0 0-.42-3.73c-1.68 1.68-4.92-.14-8.74-.69-8.49-1.22-97.83 4.34-164.7 4.34-72.6 0-96.26 0-132.19-6.91-5.35-1-1.67-2.27-1.67-2.27-5.29 5.72-2.43 10.24-1.95 14.53Z"/></g><path fill="none" stroke="#263238" stroke-linecap="round" stroke-linejoin="round" d="M93.7 318.29s-18.35 12.39-23.59 18.11-2.39 10.24-1.91 14.53 2.62 13.82 8.82 17.16 83.16 1.91 128 3.34 141.15-.28 153.07-3.14 14.75-17.63 15.46-26-7.84-20-12.6-21.45-44.4-1.63-88.49-.68S208.13 325 157.85 324s-52.71-7.86-64.15-5.71Z"/><path fill="none" stroke="#263238" stroke-linecap="round" stroke-linejoin="round" d="m223.41 255.14-.41 67.52s-2.95 18.45-2.58 21 .37 27.67.37 27.67"/><path fill="#263238" stroke="#263238" stroke-linecap="round" stroke-linejoin="round" d="M103.33 286.18s1.6-.2 5-4.2 7.2-7 10.79-6.79-3 2.8-3 2.8 6.19-1.6 10.59.6-1.8 4.19-1.8 4.19 7.19 2.2 6.79 5.2-1.8 2.2-10.39 2.2-13 2.19-16.58 1-6-1.6-1.4-5Z"/><path fill="#fff" stroke="#263238" stroke-linecap="round" stroke-linejoin="round" d="M91.36 247.4s5.8 3.06 7.69 6.12 0 5.74 4.37 6.24c2.44.29 5.66.24 5.66 2.59a15.31 15.31 0 0 1-.24 3.3s2.12 8.48 1.88 10.37-8.24 4.24-8.24 4.24a7.56 7.56 0 0 0 1.18 5.18c1.65 2.12 9.42 8.48 10.6 9.42s-22.85 3.77-22.85 3.77-5.41-11.31-12.72-15.31-10.84-3.77-11.07-7.77 6.59-18.61 12.95-23.33 10.79-4.82 10.79-4.82Z"/><path fill="#263238" d="M99.64 262.16a11.52 11.52 0 0 1-1.09.49 1.17 1.17 0 0 0 .06.2c.33.81.85 1.36 1.17 1.24s.3-.89 0-1.7a2.4 2.4 0 0 0-.14-.23Z"/><path fill="#fff" stroke="#263238" stroke-linecap="round" stroke-linejoin="round" stroke-width=".5" d="M97.69 264.24a6 6 0 0 0 3-.59"/><path fill="#263238" stroke="#263238" stroke-linecap="round" stroke-linejoin="round" d="M102.48 280.26a31.12 31.12 0 0 1-9.82.62s6.94 4.26 10 3.95Z"/><path fill="#fff" stroke="#263238" stroke-linecap="round" stroke-linejoin="round" d="m98.33 259.74 1.32 2.14a9.83 9.83 0 0 1-3.77 1.89M101.26 269.94s.91 1.95 4.69.52M96.57 256.13s-2.86-.52-4.3 2.87"/><path fill="#263238" d="M94.36 245.45s-2 11.33-4 18.24-4.56 11.07-5.21 13.68 2.6 9.11 1.56 11.85-2-1.3-8-4.69-10.94-6.64-13.81-8.6c-12.53-8.55 8.81-31.52 18.37-32.57s11.61-.78 11.09 2.09Z"/><g fill="none" stroke="#666" stroke-linecap="round" stroke-linejoin="round" clip-path="url(#b)"><path d="M94.93 243.11s-6.54 30.51-27.09 38M90.57 241.55s-9 27.4-27.4 33.94M73.13 246.22s-.62 19.93-11.52 28"/></g><path fill="none" stroke="#263238" stroke-linecap="round" stroke-linejoin="round" d="M94.36 245.45s-2 11.33-4 18.24-4.56 11.07-5.21 13.68 2.6 9.11 1.56 11.85-2-1.3-8-4.69-10.94-6.64-13.81-8.6c-12.53-8.55 8.81-31.52 18.37-32.57s11.61-.78 11.09 2.09Z"/><path fill="#fff" stroke="#263238" stroke-linecap="round" stroke-linejoin="round" d="M88.5 274.24s-4.43-3.91-7.17-2.74-.52 6.13 1.17 6.52 3.52.78 5.47-.13"/><path d="M57.81 299.51S70.5 305.5 73 312s3 13.5 7.5 16 12.5 7 22 9a69.15 69.15 0 0 0 17 1.5s17.5 1 30.5 1 33-4 33-4 14.5 1.5 23.5-16.5 42.5-43 45-62c0 0-40.5 19.5-46.5 28s-46.5 30.5-67.5 30.5-45.5-16-59-25-21.37.03-20.69 9.01Z" opacity=".3"/><path fill="#fff" stroke="#263238" stroke-linecap="round" stroke-linejoin="round" d="M103.15 317.3s-8.21-16.42-14.26-25.41-11.53-13.29-18.18-16.8-10.35-4.69-13.71-6.26-4.3-.78-4.69 6.06-2 18.76 5.47 24.62 10.75 5.67 15.25 7.82 6.84 8 10.55 15.63 15.24 7.62 19.74 7.23 2.57-8.4-.17-12.89Z"/><path fill="#263238" stroke="#263238" stroke-linecap="round" stroke-linejoin="round" d="M180.73 293.52s9.64-29.18 13.29-32S231 249 243.79 246.1s29.44-15.37 31.27-17.2 6-3.91 4.69 1.3-2.61 7.82-5.22 11-1 5.73-2.6 8.6-4.43 2.86-8.86.26-6.25-2.61-11.46 1.3-14.86 13.29-25.28 16.41-13.81 3.65-13.81 3.65-4.69 22.15-10.94 31.79-8.6 14.07-18.76 12.25-5.73-17.46-5.21-19 3.12-2.94 3.12-2.94Z"/><path fill="#fff" stroke="#263238" stroke-linecap="round" stroke-linejoin="round" d="M271.93 249.75c1.56-2.87 0-5.48 2.6-8.6s3.91-5.73 5.22-11-2.87-3.12-4.69-1.3a106.51 106.51 0 0 1-23.8 14.7 23.57 23.57 0 0 1 3.16 5.8c3.25-1.88 5.13-1.47 8.65.61 4.43 2.65 7.3 2.65 8.86-.21Z"/><path fill="#a8a8a8" stroke="#263238" stroke-linecap="round" stroke-linejoin="round" d="M275.06 228.9a10 10 0 0 1-.82.71 8.34 8.34 0 0 0 4.91 2.79c.2-.68.4-1.41.6-2.2 1.3-5.2-2.87-3.12-4.69-1.3Z"/><path fill="#263238" stroke="#263238" stroke-linecap="round" stroke-linejoin="round" d="M160.93 332.34s27.36 5 37.52 1.31 14.33-14.86 17.2-22.93 3.39-23.19 4.95-27.62 2.08-5.73 2.08-5.73 12-5.48 19-9.12 12.77-17.72 16.94-20.85 4.69 1 7-1.3 6.51-11.73 7.29-17.72-2.81-9.38-4.37-9.38-1.3 3.13-3.91 7-6.51 11.72-10.42 14.33-22.41 13.28-29.44 17.19-16.16 6-20.85 14.07-12.5 25-13.55 26.84a46.09 46.09 0 0 1-2.6 3.91 86.81 86.81 0 0 1-8.6 2.86c-5.47 1.57-12 .79-15.11 3.91s-3.13 23.23-3.13 23.23Z"/><path fill="none" stroke="#fff" stroke-linecap="round" stroke-linejoin="round" d="M192.27 295s13.44-28 15.6-28.5 30.65-16.14 30.65-16.14M179.43 310.46s3.65 7.29 4.43 11.72M181.51 311.24s2.61.78 5 6.77M187.25 319.84a33.19 33.19 0 0 0 1 3.38"/><path fill="#fff" stroke="#263238" stroke-linecap="round" stroke-linejoin="round" d="M268.54 219c-1.56 0-1.3 3.13-3.91 7s-6.51 11.72-10.42 14.33c-.79.52-2.17 1.37-3.92 2.43 2 .86 4 3.06 5.45 7.92a15.53 15.53 0 0 1 2.9-3.32c4.17-3.13 4.69 1 7-1.3s6.51-11.73 7.29-17.72-2.83-9.34-4.39-9.34Z"/><path fill="#a8a8a8" stroke="#263238" stroke-linecap="round" stroke-linejoin="round" d="M268.54 219c-1.26 0-1.34 2-2.68 4.86a28.69 28.69 0 0 1 7.16 3.92c.47-5.61-2.97-8.78-4.48-8.78Z"/><path fill="#c53f3f" stroke="#263238" stroke-linecap="round" stroke-linejoin="round" d="M144.56 286.75a18.88 18.88 0 0 0-4.61 3.36 95 95 0 0 0-5 8.25l5.6 5.88 4.05-14.13 2.1-1.54Z"/><path fill="#c53f3f" stroke="#263238" stroke-linecap="round" stroke-linejoin="round" d="M93.77 292.09s13.88-2.74 22.47-2.93 11.34-1.37 14.27 1.36 10.75 11.14 12.12 12.51 26-1.37 26-1.37 2.34 5.86.78 15.64a27.71 27.71 0 0 1-7.62 15.24s-16.43 2.4-27.36 1.56c-20.92-1.6-28.64-9.15-33.92-15.6s-9.51-20.36-9.67-22.9 2.93-3.51 2.93-3.51Z"/><path fill="#fff" stroke="#263238" stroke-linecap="round" stroke-linejoin="round" d="M146.08 291.17s-10.16 1.31-11.21 4.17 4.17 22.93 5.74 24 5.47-1.57 5.47-1.57a123.9 123.9 0 0 0 22.41.52c13.29-.78 17.71-7 19.28-7.29s5.73-1.31 5.47-2.61-4.17-13.81-9.9-18.24-14.59-5.47-22.67-2.86a147.21 147.21 0 0 1-14.59 3.88Z"/><path fill="#fff" stroke="#263238" stroke-linecap="round" stroke-linejoin="round" d="m142.04 290.91 2.16 10.04 31.45-3.98-6.25-9.18-27.36 3.12z"/><path fill="#263238" d="m159.49 291.53.56 1.42 1.95-.27-.53-1.42-1.98.27zM162.17 293.16l-1.93.27.68 1.72 1.9-.26-.65-1.73zM150.41 296.62l1.6-.22-.56-1.74-1.57.22.53 1.74zM161.98 291.19l.52 1.42 1.93-.27-.52-1.41-1.93.26zM151.31 292.64l.48 1.47 2.25-.32-.51-1.45-2.22.3zM156.79 291.9l.57 1.43 2.18-.31-.56-1.42-2.19.3zM154.04 292.27l.5 1.45 2.31-.32-.57-1.44-2.24.31zM160.41 295.23l-.68-1.73-2.18.31.68 1.72 2.18-.3zM163.5 295.3l.32.86 1.92-.24-.33-.89-1.91.27zM166.96 292.49l-1.85.26.63 1.73 1.94-.27-.72-1.72zM162.68 293.09l.64 1.73 1.92-.27-.64-1.73-1.92.27zM168.79 295.55l2.46-.3-.52-.96-2.33.33.39.93zM152.68 296.81l.22.68 2.33-.29-.25-.71-2.3.32zM154.21 294.27l-2.26.32.57 1.74 2.29-.32-.6-1.74zM157.04 293.88l-2.33.32.61 1.74 2.4-.34-.68-1.72zM158.42 296.01l.3.77 2.19-.27-.31-.81-2.18.31zM164.25 290.38l1.72-.24-.24-.56-1.69.24.21.56zM153.87 291.79l2.22-.3-.19-.49-2.19.32.16.47zM159.3 291.05l1.99-.27-.2-.53-2 .29.21.51zM156.6 291.42l2.19-.3-.2-.51-2.18.32.19.49zM151.15 292.16l2.21-.3-.16-.47-2.2.32.15.45zM150.65 292.23l-.15-.45-1.5.22.13.43 1.52-.2zM152.39 297.55l-.22-.67-1.62.23.2.64 1.64-.2zM166.48 290.07l1.83-.24-.31-.58-1.76.25.24.57zM149.73 294.4l1.56-.22-.48-1.47-1.53.21.45 1.48zM167.88 294.69l-1.96.27.32.9 2.03-.25-.39-.92zM161.8 290.71l1.94-.26-.2-.55-1.94.28.2.53zM157.91 296.08l-2.43.34.26.72 2.47-.3-.3-.76zM163 295.37l-1.89.26.32.82 1.88-.23-.31-.85zM164.42 290.86l.51 1.4 1.82-.25-.58-1.39-1.75.24zM169.56 292.12l-2.09.29.72 1.73 2.29-.32-.92-1.7zM167.27 291.94l2.03-.29-.73-1.35-1.89.25.59 1.39z"/><path fill="#fff" stroke="#263238" stroke-linecap="round" stroke-linejoin="round" d="m175.65 296.97 1.76-28.92-6.84-3.91-1.17 23.65 6.25 9.18z"/><path fill="#c53f3f" stroke="#263238" stroke-linecap="round" stroke-linejoin="round" stroke-width=".5" d="m171.66 266.93-.91 20.57 3.5 5 1.25-23-3.84-2.57z"/><path fill="#fff" stroke="#263238" stroke-linecap="round" stroke-linejoin="round" d="M157.71 283.38a2.47 2.47 0 0 1 2.46.61c1.36 1.09 4.31 3.53 3.94 4.14s-.86.61-1.6-.12-4.8-4.63-4.8-4.63Z"/><path fill="#fff" stroke="#263238" stroke-linecap="round" stroke-linejoin="round" d="M154.63 283.39s2.24-.84 3.08 0 6.3 5.18 5.88 6-1.12.14-2 .14-6.96-6.14-6.96-6.14Z"/><path fill="#fff" stroke="#263238" stroke-linecap="round" stroke-linejoin="round" d="M143.44 289.41s-1.53-1.12 1.68-3.08 7.14-3.64 8.54-3.5 8 6.72 8 6.72a.87.87 0 0 1-.56 1.12c-.84.28-6.16-3.64-7.13-3.64s-4.2 2-5.18 2.24-3.25 1.96-5.35.14Z"/><path fill="#fff" stroke="#263238" stroke-linecap="round" stroke-linejoin="round" d="M149 287.31s7.41 2.8 7.83 2.8-.14 1.12-1.4 1.26-4.33-1.54-5.45-1-3.38.38-5.05.33-1.67-2-1.67-2"/><path fill="#c53f3f" stroke="#263238" stroke-linecap="round" stroke-linejoin="round" d="M104.13 292.87s-6.45-4.5-12.9-2.54-4.88 10.75-.19 19.93 23.64 27.16 26.77 29.12 6.06 0 8.4-3.71 7.62-25.8 9.19-29.32 2.34-5.66 2.34-5.66a16.22 16.22 0 0 0 4.89-2.15l4.49-3.52s7-2.93 7.62-3.32-.19-1-1-1H145c-3.91 0-9 4.3-10.75 6.25s-14.07 24.62-14.07 24.62l-15.86-21.67"/><path fill="#fff" stroke="#263238" stroke-linecap="round" stroke-linejoin="round" d="M147.12 295s7-2.93 7.62-3.32-.19-1-1-1H145c-3.91 0-9 4.3-10.75 6.25a86.59 86.59 0 0 0-4.71 7.75l5.71 2.06.18-.43c1.56-3.52 2.34-5.66 2.34-5.66a16.22 16.22 0 0 0 4.89-2.15Z"/><rect width="312.67" height="39.93" x="41.37" y="122.37" fill="#fff" stroke="#263238" stroke-linecap="round" stroke-linejoin="round" rx="4.5"/><path fill="#263238" stroke="#263238" stroke-linecap="round" stroke-linejoin="round" d="M309.59 122.37h40a4.5 4.5 0 0 1 4.5 4.5v30.93a4.5 4.5 0 0 1-4.5 4.5h-40 0v-39.93h0Z"/><path fill="#263238" d="M66.37 149.61a2.37 2.37 0 0 1-.48 1.6 1.93 1.93 0 0 1-2.72 0 2.37 2.37 0 0 1-.48-1.6v-6.24a2.78 2.78 0 0 0-.66-2 2.22 2.22 0 0 0-1.68-.7 2.85 2.85 0 0 0-2.15 1 3.52 3.52 0 0 0-.9 2.5v5.47a2.37 2.37 0 0 1-.48 1.6 1.76 1.76 0 0 1-1.39.56 1.69 1.69 0 0 1-1.34-.56 2.37 2.37 0 0 1-.49-1.6v-14.88a2.4 2.4 0 0 1 .47-1.58 1.64 1.64 0 0 1 1.34-.56 1.73 1.73 0 0 1 1.39.56 2.35 2.35 0 0 1 .49 1.58v5.58a4.11 4.11 0 0 1 1.7-1.55 5.79 5.79 0 0 1 2.59-.54 5.5 5.5 0 0 1 1.84.3 4.55 4.55 0 0 1 1.52.88A4 4 0 0 1 66 141a6.12 6.12 0 0 1 .38 2.26ZM71.71 150.77a4.79 4.79 0 0 1-1-3.38V141h-1.1a1.14 1.14 0 0 1-1.3-1.27 1.17 1.17 0 0 1 .32-.86 1.26 1.26 0 0 1 .94-.32h1.29l.36-3.06c.14-1.27.73-1.91 1.78-1.91s1.41.64 1.41 1.92v3.05h1.92a1.09 1.09 0 0 1 1.24 1.24c0 .81-.43 1.21-1.28 1.21h-1.93v5.58a4.64 4.64 0 0 0 .33 2 1.25 1.25 0 0 0 1.2.63H77a1 1 0 0 1 .83.38 1.44 1.44 0 0 1 .3.9 1.49 1.49 0 0 1-.09.54 1.32 1.32 0 0 1-.25.38 1.16 1.16 0 0 1-.41.26 4.23 4.23 0 0 1-.5.17 3.8 3.8 0 0 1-.61.08H74.61a3.82 3.82 0 0 1-2.9-1.15ZM82.36 150.77a4.79 4.79 0 0 1-1-3.38V141h-1.1a1.14 1.14 0 0 1-1.3-1.27 1.21 1.21 0 0 1 .31-.86 1.3 1.3 0 0 1 1-.32h1.29l.35-3.06c.14-1.27.74-1.91 1.79-1.91s1.4.64 1.4 1.92v3.05h1.93a1.09 1.09 0 0 1 1.24 1.24c0 .81-.43 1.21-1.28 1.21H85v5.58a4.61 4.61 0 0 0 .34 2 1.25 1.25 0 0 0 1.2.63h1.11a1 1 0 0 1 .84.38 1.44 1.44 0 0 1 .3.9 1.3 1.3 0 0 1-.1.54 1.12 1.12 0 0 1-.24.38 1.26 1.26 0 0 1-.41.26 4.23 4.23 0 0 1-.5.17 3.8 3.8 0 0 1-.61.08H85.27a3.79 3.79 0 0 1-2.91-1.15ZM91.41 156.19a2.48 2.48 0 0 1-.46-1.6v-13.87a2.51 2.51 0 0 1 .5-1.64 1.68 1.68 0 0 1 1.37-.61 1.8 1.8 0 0 1 1.32.47 1.78 1.78 0 0 1 .48 1.32v.37a4.52 4.52 0 0 1 4.38-2.37 5.17 5.17 0 0 1 4.18 1.9 7.61 7.61 0 0 1 1.57 5 7.09 7.09 0 0 1-1.64 5 5.56 5.56 0 0 1-4.28 1.79 4.42 4.42 0 0 1-4.2-2.17v4.83a2.32 2.32 0 0 1-.49 1.6 1.79 1.79 0 0 1-1.4.55 1.68 1.68 0 0 1-1.33-.57Zm8-7a2.69 2.69 0 0 0 1-1 4.86 4.86 0 0 0 .55-1.39 7.37 7.37 0 0 0 .18-1.67 7 7 0 0 0-.16-1.53 5.52 5.52 0 0 0-.5-1.41 2.71 2.71 0 0 0-1-1.08 2.82 2.82 0 0 0-1.51-.41 2.92 2.92 0 0 0-2.58 1.13 5.81 5.81 0 0 0-.77 3.31 5.43 5.43 0 0 0 .84 3.19A2.81 2.81 0 0 0 98 149.5a3 3 0 0 0 1.43-.35ZM107.15 150a1.21 1.21 0 0 1-.12-.53 1.36 1.36 0 0 1 .08-.44 1.52 1.52 0 0 1 .24-.38 1 1 0 0 1 .37-.27 1.06 1.06 0 0 1 .46-.1 1.51 1.51 0 0 1 .72.2l.24.14.3.16.31.16.37.16.38.15a3.64 3.64 0 0 0 .44.14l.47.1.53.07h.56a7.19 7.19 0 0 0 1-.07 4.06 4.06 0 0 0 .84-.25 1.48 1.48 0 0 0 .63-.5 1.29 1.29 0 0 0 .23-.76 1.12 1.12 0 0 0-.43-.85 3.38 3.38 0 0 0-1.29-.59l-2-.52-1.16-.34c-.3-.09-.63-.2-1-.34a4.93 4.93 0 0 1-.83-.41 3.64 3.64 0 0 1-.63-.5 2 2 0 0 1-.48-.63 3.55 3.55 0 0 1-.27-.78 4.46 4.46 0 0 1-.11-1 3.27 3.27 0 0 1 1.5-2.82 5.54 5.54 0 0 1 1.69-.73 8.7 8.7 0 0 1 2.18-.25 9.93 9.93 0 0 1 4.3 1 1.32 1.32 0 0 1 .59.49 1.23 1.23 0 0 1 .19.66 1.11 1.11 0 0 1-.29.76 1 1 0 0 1-.77.33h-.27a1.47 1.47 0 0 1-.28-.08h-.14a9.59 9.59 0 0 0-3.15-.65 4.93 4.93 0 0 0-1 .1 2.18 2.18 0 0 0-.84.4.86.86 0 0 0-.35.7 1 1 0 0 0 .37.87 3.76 3.76 0 0 0 1.35.52l2 .49a12.6 12.6 0 0 1 1.83.61 5.13 5.13 0 0 1 1.31.79 2.83 2.83 0 0 1 .83 1.12 4.12 4.12 0 0 1 .26 1.51 3.85 3.85 0 0 1-.71 2.34 4.2 4.2 0 0 1-1.92 1.43 7.79 7.79 0 0 1-2.76.45 9 9 0 0 1-5.31-1.56 1.14 1.14 0 0 1-.46-.5ZM121.78 141.39a1.86 1.86 0 0 1-.59-1.43 1.94 1.94 0 0 1 .57-1.4 2 2 0 0 1 1.47-.59 2 2 0 0 1 1.44.57 1.87 1.87 0 0 1 .6 1.42 2 2 0 0 1-2 2 2 2 0 0 1-1.49-.57Zm0 9.87a1.88 1.88 0 0 1-.59-1.42 1.94 1.94 0 0 1 .57-1.4 2 2 0 0 1 1.47-.59 2.05 2.05 0 0 1 1.44.56 1.88 1.88 0 0 1 .6 1.43 2 2 0 0 1-2 2 2 2 0 0 1-1.49-.58ZM128.62 153.07a1 1 0 0 1-.39-.85 4.19 4.19 0 0 1 .2-.93l5.93-17.56a2.41 2.41 0 0 1 .53-.95 1 1 0 0 1 .78-.36 1.29 1.29 0 0 1 .89.33 1.1 1.1 0 0 1 .37.89 3.35 3.35 0 0 1-.18.89l-6.09 18a1.15 1.15 0 0 1-1.16.85 1.38 1.38 0 0 1-.88-.31ZM138.94 153.07a1 1 0 0 1-.39-.85 3.66 3.66 0 0 1 .2-.93l5.93-17.56a2.4 2.4 0 0 1 .52-.95 1.06 1.06 0 0 1 .79-.36 1.29 1.29 0 0 1 .89.33 1.1 1.1 0 0 1 .37.89 3.08 3.08 0 0 1-.19.89l-6.09 18a1.13 1.13 0 0 1-1.15.85 1.36 1.36 0 0 1-.88-.31ZM163.07 151.19a5.43 5.43 0 0 1-1.12-2.31l-2.37-7.16-2.37 7.16a5.55 5.55 0 0 1-1.12 2.31 2.34 2.34 0 0 1-1.7.58 1.9 1.9 0 0 1-1.47-.64 5.41 5.41 0 0 1-1-2.1l-2.65-8.37a2.25 2.25 0 0 1-.09-.61 1.52 1.52 0 0 1 .23-.84 1.48 1.48 0 0 1 .59-.55 1.69 1.69 0 0 1 1.45 0 1.5 1.5 0 0 1 .57.45 1.89 1.89 0 0 1 .39.76l2.4 8.28 2.42-7.39a4.57 4.57 0 0 1 .85-1.72 2.3 2.3 0 0 1 3 0 4.57 4.57 0 0 1 .85 1.72l2.42 7.39 2.4-8.28a1.82 1.82 0 0 1 .64-1 1.6 1.6 0 0 1 1-.35 1.63 1.63 0 0 1 1.12.44 1.47 1.47 0 0 1 .48 1.14 1.51 1.51 0 0 1 0 .3 1.25 1.25 0 0 1-.07.31l-2.7 8.29a5.26 5.26 0 0 1-1 2.1 1.86 1.86 0 0 1-1.46.64 2.34 2.34 0 0 1-1.69-.55ZM185.93 151.19a5.43 5.43 0 0 1-1.12-2.31l-2.37-7.16-2.37 7.16a5.55 5.55 0 0 1-1.12 2.31 2.34 2.34 0 0 1-1.7.58 1.88 1.88 0 0 1-1.47-.64 5.41 5.41 0 0 1-1-2.1l-2.65-8.37a2.25 2.25 0 0 1-.09-.61 1.52 1.52 0 0 1 .23-.84 1.48 1.48 0 0 1 .59-.55 1.69 1.69 0 0 1 1.45 0 1.58 1.58 0 0 1 .57.45 1.89 1.89 0 0 1 .39.76l2.39 8.28 2.43-7.39A4.57 4.57 0 0 1 181 139a2.28 2.28 0 0 1 2.95 0 4.43 4.43 0 0 1 .86 1.72l2.42 7.39 2.4-8.28a1.82 1.82 0 0 1 .64-1 1.6 1.6 0 0 1 1-.35 1.63 1.63 0 0 1 1.12.44 1.47 1.47 0 0 1 .48 1.14v.3a2 2 0 0 1-.07.31l-2.72 8.33a5.26 5.26 0 0 1-1 2.1 1.86 1.86 0 0 1-1.46.64 2.34 2.34 0 0 1-1.69-.55ZM208.79 151.19a5.32 5.32 0 0 1-1.12-2.31l-2.37-7.16-2.37 7.16a5.55 5.55 0 0 1-1.12 2.31 2.35 2.35 0 0 1-1.71.58 1.88 1.88 0 0 1-1.46-.64 5.55 5.55 0 0 1-1-2.1l-2.64-8.37a1.94 1.94 0 0 1-.1-.61 1.53 1.53 0 0 1 .24-.84 1.48 1.48 0 0 1 .59-.55 1.65 1.65 0 0 1 .79-.19 1.58 1.58 0 0 1 .65.14 1.6 1.6 0 0 1 .58.45 1.76 1.76 0 0 1 .38.76l2.4 8.28 2.43-7.39a4.43 4.43 0 0 1 .85-1.72 2.28 2.28 0 0 1 3 0 4.57 4.57 0 0 1 .86 1.72l2.42 7.39 2.4-8.28a1.81 1.81 0 0 1 .63-1 1.62 1.62 0 0 1 1-.35 1.65 1.65 0 0 1 1.12.44 1.47 1.47 0 0 1 .48 1.14v.3a2 2 0 0 1-.07.31l-2.71 8.34a5.4 5.4 0 0 1-1 2.1 1.86 1.86 0 0 1-1.46.64 2.34 2.34 0 0 1-1.69-.55Z"/><path fill="#fff" d="m344.6 153.34-9.73-10.65a2.57 2.57 0 0 0-.4-.34 10 10 0 1 0-3.26 2.92 2.44 2.44 0 0 0 .32.47l9.74 10.65a2.26 2.26 0 0 0 3.19.14 2.25 2.25 0 0 0 .14-3.19Zm-26.08-16.85a7.8 7.8 0 1 1 7.79 7.8 7.81 7.81 0 0 1-7.79-7.8Z"/><path fill="none" stroke="#263238" stroke-linecap="round" stroke-linejoin="round" d="M173.2 163.32v84.95"/></svg>
