<svg xmlns="http://www.w3.org/2000/svg" viewBox="0 0 500 500"><defs><clipPath id="a"><path fill="#fff" stroke="#2e353a" stroke-linecap="round" stroke-linejoin="round" d="m191.2 232.25-8.55 7.48-8.37-7.48v-19.94h16.92v19.94z"/></clipPath></defs><path fill="#c53f3f" d="M386.72 127.41c-21.44-18.8-43-38.74-66.9-53.88-38.42-24.34-92.29-33.44-127.37 1.77-10.8 10.85-13 25.82-17.3 39.85-4.7 15.48-13.46 26.92-27.46 35.3-13 7.78-27.68 12.14-41.67 17.93-17.93 7.42-34.48 18.26-43 36.33-10.11 21.53-5.45 40.56 8.28 58.92 13.34 17.78 33.7 34.37 30.46 58.78-1.36 10.43-5.57 20.23-8.9 30.2s-5.86 20.66-3.62 30.94c7.19 33.6 59.15 42.32 86.3 31.17 47-19.3 93.3 7 140.66 8.07 33.29.76 76.49-8.74 86.61-45.52 8.71-31.63-22.53-66.55 1.9-94.15 19.07-21.54 37.52-49.16 35.4-79.27-2.07-29.23-24.37-51.41-45.34-69.44q-4.02-3.41-8.05-7Z"/><path fill="#fff" d="M386.72 127.41c-21.44-18.8-43-38.74-66.9-53.88-38.42-24.34-92.29-33.44-127.37 1.77-10.8 10.85-13 25.82-17.3 39.85-4.7 15.48-13.46 26.92-27.46 35.3-13 7.78-27.68 12.14-41.67 17.93-17.93 7.42-34.48 18.26-43 36.33-10.11 21.53-5.45 40.56 8.28 58.92 13.34 17.78 33.7 34.37 30.46 58.78-1.36 10.43-5.57 20.23-8.9 30.2s-5.86 20.66-3.62 30.94c7.19 33.6 59.15 42.32 86.3 31.17 47-19.3 93.3 7 140.66 8.07 33.29.76 76.49-8.74 86.61-45.52 8.71-31.63-22.53-66.55 1.9-94.15 19.07-21.54 37.52-49.16 35.4-79.27-2.07-29.23-24.37-51.41-45.34-69.44q-4.02-3.41-8.05-7Z" opacity=".7"/><ellipse cx="178.26" cy="436.87" fill="#c53f3f" rx="46.11" ry="9.22"/><ellipse cx="178.26" cy="436.87" fill="#fff" opacity=".5" rx="46.11" ry="9.22"/><circle cx="256.37" cy="249.32" r="139.85" fill="#c53f3f" stroke="#2e353a" stroke-linecap="round" stroke-miterlimit="10" transform="rotate(-45 256.37 249.33)"/><circle cx="256.37" cy="249.32" r="127.7" fill="#2e353a" stroke="#2e353a" stroke-linecap="round" stroke-miterlimit="10"/><circle cx="256.37" cy="249.32" r="118.16" fill="#fff" stroke="#2e353a" stroke-linecap="round" stroke-miterlimit="10"/><path fill="#c53f3f" stroke="#2e353a" stroke-linecap="round" stroke-miterlimit="10" d="M256.37 142.49a106.84 106.84 0 1 0 106.84 106.83 106.83 106.83 0 0 0-106.84-106.83Zm0 205a98.21 98.21 0 1 1 98.21-98.21 98.21 98.21 0 0 1-98.21 98.25Z"/><path fill="#c53f3f" stroke="#2e353a" stroke-linecap="round" stroke-miterlimit="10" d="M256.37 190.51a58.82 58.82 0 1 0 58.82 58.81 58.81 58.81 0 0 0-58.82-58.81Zm0 112.87a54.06 54.06 0 1 1 54.06-54.06 54.06 54.06 0 0 1-54.06 54.06Z"/><path fill="#c53f3f" stroke="#2e353a" stroke-linecap="round" stroke-miterlimit="10" d="M256.37 215.32a34 34 0 1 0 34 34 34 34 0 0 0-34-34Zm2.61 5.33a28.66 28.66 0 0 1 16.21 6.88L259 243.74Zm-5.21 23.09-16.21-16.21a28.63 28.63 0 0 1 16.21-6.88Zm-3.68 3.68h-22.45a28.65 28.65 0 0 1 6.3-16.15Zm0 5.2-15.51 15.52a28.63 28.63 0 0 1-6.81-15.52Zm3.68 3.69V278a28.62 28.62 0 0 1-15.45-6.24Zm5.21 0 15.45 15.45A28.65 28.65 0 0 1 259 278Zm3.68-3.69H285a28.7 28.7 0 0 1-6.81 15.52Zm0-5.2 16.14-16.15a28.65 28.65 0 0 1 6.3 16.15Z"/><circle cx="256.37" cy="249.32" r="19.26" fill="#fff" stroke="#2e353a" stroke-linecap="round" stroke-miterlimit="10"/><path fill="#c53f3f" d="M395.53 263.22c-142-44.15-239.41 23.76-265.8 45.48a139.87 139.87 0 0 0 265.8-45.48Z" style="mix-blend-mode:multiply"/><rect width="17.35" height="29.5" x="374.06" y="132.9" fill="#2e353a" stroke="#2e353a" stroke-linecap="round" stroke-miterlimit="10" rx="7.4"/><rect width="17.35" height="29.5" x="374.06" y="340.25" fill="#2e353a" stroke="#2e353a" stroke-linecap="round" stroke-miterlimit="10" rx="7.4"/><rect width="17.35" height="29.5" x="247.7" y="132.9" fill="#2e353a" stroke="#2e353a" stroke-linecap="round" stroke-miterlimit="10" rx="7.4"/><rect width="17.35" height="29.5" x="247.7" y="340.25" fill="#2e353a" stroke="#2e353a" stroke-linecap="round" stroke-miterlimit="10" rx="7.4"/><circle cx="256.37" cy="99.63" r="2.82" fill="#fff" stroke="#2e353a" stroke-linecap="round" stroke-miterlimit="10"/><path fill="#fff" stroke="#2e353a" stroke-linecap="round" stroke-miterlimit="10" d="M207.83 107.69a2.82 2.82 0 1 0-1.69 3.62 2.82 2.82 0 0 0 1.69-3.62ZM162.31 132.84a2.82 2.82 0 1 0-.34 4 2.81 2.81 0 0 0 .34-4ZM128.15 172a2.82 2.82 0 1 0 1 3.86 2.83 2.83 0 0 0-1-3.86ZM109.44 220.55a2.82 2.82 0 1 0 2.29 3.27 2.82 2.82 0 0 0-2.29-3.27ZM108.46 272.54a2.82 2.82 0 1 0 3.27 2.29 2.82 2.82 0 0 0-3.27-2.29ZM125.32 321.73a2.82 2.82 0 1 0 3.86 1 2.81 2.81 0 0 0-3.86-1ZM158 362.18a2.82 2.82 0 1 0 4-.35 2.82 2.82 0 0 0-4 .35ZM202.52 389a2.82 2.82 0 1 0 3.62-1.69 2.81 2.81 0 0 0-3.62 1.69ZM253.55 399a2.83 2.83 0 1 0 2.82-2.82 2.82 2.82 0 0 0-2.82 2.82ZM304.92 391a2.82 2.82 0 1 0 1.69-3.62 2.82 2.82 0 0 0-1.69 3.62ZM350.43 365.81a2.83 2.83 0 1 0 .35-4 2.82 2.82 0 0 0-.35 4ZM384.6 326.62a2.82 2.82 0 1 0-1-3.86 2.83 2.83 0 0 0 1 3.86ZM403.3 278.1a2.82 2.82 0 1 0-2.29-3.27 2.82 2.82 0 0 0 2.29 3.27ZM404.28 226.11a2.82 2.82 0 1 0-3.27-2.29 2.82 2.82 0 0 0 3.27 2.29ZM387.42 176.92a2.82 2.82 0 1 0-3.85-1 2.82 2.82 0 0 0 3.85 1ZM354.76 136.47a2.83 2.83 0 1 0-4 .34 2.83 2.83 0 0 0 4-.34ZM310.22 109.62a2.82 2.82 0 1 0-3.61 1.69 2.81 2.81 0 0 0 3.61-1.69Z"/><path fill="#fff" stroke="#2e353a" stroke-linecap="round" stroke-miterlimit="10" d="M393.15 175.41v-24.29H238.59v38.5h45a15.18 15.18 0 0 1 15.18 15.18v89.71a15.18 15.18 0 0 1-15.18 15.17h-45v41h154.56v-24.31h-38.8a12.54 12.54 0 0 1-12.53-12.54V188a12.54 12.54 0 0 1 12.53-12.54Z"/><path fill="#c53f3f" d="M306.33 254.68v39.83a22.8 22.8 0 0 1-22.77 22.77h-37.38v25.78h139.38V334h-31.21a20.15 20.15 0 0 1-20.13-20.13v-57.28a216.63 216.63 0 0 0-27.89-1.91ZM246.18 173.47c18.61-5.2 44.26-10.67 78.53-14.75h-78.53ZM337.67 176.69a856.5 856.5 0 0 0-41.53 9.14 22.79 22.79 0 0 1 10.19 19v10.85c9.64-4.49 19-8.5 27.89-12.06V188a20.08 20.08 0 0 1 3.45-11.31Z"/><path fill="none" stroke="#2e353a" stroke-linecap="round" stroke-miterlimit="10" d="M255.51 72.82v-6.2M255.51 91.69V76.5M255.51 422.58v-16.27M400.89 250.08h24.95M79.64 250.08h31.87M72.17 250.08h2.85M431.27 250.08h5.82"/><path fill="#2e353a" stroke="#2e353a" stroke-linecap="round" stroke-linejoin="round" d="M197.3 432a44.62 44.62 0 0 1-5.85-2.93s10.82-53.78 11.22-71.44 2.81-54.21 2.81-54.21H157s2.41 36.54 2.81 54.21 9 71.44 9 71.44a45.05 45.05 0 0 1-5.86 2.93c-2.6 1-5.85 2.27-4.23 2.92a15.78 15.78 0 0 0 6.83.66 43.54 43.54 0 0 0 9.76-3.91c1.3-1 3-105.76 3-105.76h3.47s1.82 104.79 3.12 105.76a43.73 43.73 0 0 0 9.76 3.91 15.78 15.78 0 0 0 6.83-.66c1.66-.62-1.59-1.92-4.19-2.92Z"/><path fill="#fff" stroke="#2e353a" stroke-linecap="round" stroke-linejoin="round" d="M154 236.74a10.23 10.23 0 0 0-8.08 5.31c-2.71 5.09-4.07 29.16-3.05 31.88s3.39 5.42 8.13 1.69 5.09-7.46 5.09-7.46ZM209.11 236.18s7-1.25 8.38 4.18 7.12 21.36 5.09 27.8-9.84 6.11-15.26 2.71 1.79-34.69 1.79-34.69Z"/><path fill="#fff" stroke="#2e353a" stroke-linecap="round" stroke-linejoin="round" d="m177.15 227.54-23.13 9.2 3.02 66.71h48.44l3.63-67.27-20.43-8.33-11.53-.31z"/><path fill="#2e353a" stroke="#2e353a" stroke-linecap="round" stroke-linejoin="round" d="M158.31 247.46h16.04v2.58h-16.04zM189.53 247.46h16.04v2.58h-16.04zM157.04 295.29h48.58v8.16h-48.58z"/><path fill="#fff" stroke="#2e353a" stroke-linecap="round" stroke-miterlimit="10" d="M177.81 294.95h7.8v4.41h-7.8z"/><path fill="#c53f3f" d="m186.38 236.6-4.45-2.04-3.38 1.59 2.8 9.13-4.77 48.53 4.52 4.87 5.28-5.07-3.22-48.33 3.22-8.68z"/><path fill="#2e353a" stroke="#2e353a" stroke-linecap="round" stroke-linejoin="round" d="m192.65 229.88 17.32 6.37-2.37 3.75-15.77-5.52.82-4.6z"/><path fill="#fff" stroke="#2e353a" stroke-linecap="round" stroke-linejoin="round" d="m179.51 237-6.44 6.11s-3.73-10.51-3.73-12.21 4.4-6.78 4.4-6.78l16.62-.34 6.1 7.46-5.08 11.53-7.12-5.43Z"/><path fill="#2e353a" stroke="#2e353a" stroke-linecap="round" stroke-linejoin="round" d="m169.34 230.86-17.33 6.38 2.37 3.75 15.77-5.52-.81-4.61z"/><path fill="#fff" d="m191.2 232.25-8.55 7.48-8.37-7.48v-19.94h16.92v19.94z"/><g clip-path="url(#a)"><path fill="#c53f3f" d="m174.02 225.17 6.06 7.03h5.52l5.6-6.18-.54-5.86-16.38-.78-.26 5.79z" style="mix-blend-mode:multiply"/></g><path fill="none" stroke="#2e353a" stroke-linecap="round" stroke-linejoin="round" d="m191.2 232.25-8.55 7.48-8.37-7.48v-19.94h16.92v19.94z"/><path fill="#fff" stroke="#2e353a" stroke-linecap="round" stroke-linejoin="round" d="M172.45 207s-3.13-.82-2.82 1.37 1.26 6.28 2.82 7.22l1.57.94ZM193.45 207s3.14-.82 2.82 1.37-1.25 6.28-2.82 7.22l-1.57.94Z"/><path fill="#fff" stroke="#2e353a" stroke-linecap="round" stroke-linejoin="round" d="M194.93 203.37a11.92 11.92 0 1 0-23.27 3.63l3 14.27 5.54 7.78h5.35l5.38-6.78 3.29-14.94a11.88 11.88 0 0 0 .71-3.96Z"/><path fill="#c53f3f" d="M174 205.74s1.91-2.07 3.64-1.38 1.05 2.77 6.06 3.29a18.77 18.77 0 0 0 8.37-.88l.27-4.34-18.34-2.57Z"/><path fill="#2e353a" stroke="#2e353a" stroke-linecap="round" stroke-linejoin="round" d="M192.36 202.43a15.24 15.24 0 0 0-1.25 4.71c0 1.88 1.57 5.64 1.57 5.64s3.76-7.84 3.45-10.66-4.08-.63-3.77.31Z"/><path fill="#2e353a" stroke="#2e353a" stroke-linecap="round" stroke-linejoin="round" d="M172.6 212.16s0-.49.08-1.22c.18-2 .65-5.93 1.8-6.63 1.57-.94 1.41-5.88 1.41-5.88s-2.19 2.47 5.34 5 13.64 1.53 17.72-3.8.31-9.1-.31-7.22-1.89 4.4-4.08 2.51-5.65-5.64-11.92-5.64-9.1 5.64-9.1 5.64a6.17 6.17 0 0 0-3.45 5.34c0 3.74 2.51 11.9 2.51 11.9Z"/><path fill="none" stroke="#fff" stroke-linecap="round" stroke-linejoin="round" stroke-width=".5" d="M194.67 202.23c-4.44.18-8.22-2.81-12.08-5.45s-6.47 0-6.47 0a6.66 6.66 0 0 1 6.14-5.29c5.24-.34 7 6.86 11.83 7.49"/><path fill="#2e353a" stroke="#2e353a" stroke-linecap="round" stroke-linejoin="round" d="M182.15 211.9h-10.49l1.11 3.46a1.63 1.63 0 0 0 1.55 1.13h5.42a1.62 1.62 0 0 0 1.57-1.23ZM193.8 211.9h-10.5l1.11 3.46a1.63 1.63 0 0 0 1.55 1.13h5.42a1.63 1.63 0 0 0 1.58-1.23Z"/><path fill="#fff" stroke="#2e353a" stroke-linecap="round" stroke-linejoin="round" d="m171.66 211.9-.53-5.13M193.8 211.9l1.19-4.87M182.15 211.9h1.15M181.86 213.53h1.86"/><path fill="none" stroke="#2e353a" stroke-linecap="round" stroke-linejoin="round" d="M184.91 220.16s-.79 1.19-1.72 1.19-1.72-1.19-1.72-1.19"/><path fill="#2e353a" stroke="#2e353a" stroke-linecap="round" stroke-linejoin="round" d="M156.79 298.34s-8.48 3.73-8.48 6.11 2.71 17.63 4.41 21 3.05 4.75 6.1 2.71-2.03-29.82-2.03-29.82ZM204.94 290.54h4.75v29.5h-4.75z"/><path fill="#2e353a" stroke="#2e353a" stroke-linecap="round" stroke-linejoin="round" d="M202.57 284.44h9.49v8.82h-9.49z"/><path fill="#fff" stroke="#2e353a" stroke-linecap="round" stroke-linejoin="round" d="M222.24 262.74s2 7.46-3.06 10.17c-1.91 1-10.85-.68-21.36-3.39s-16.28-4.75-16.28-4.75l-29.5-.68s-2.71-5.42 1.36-8.48 19 1.36 19 1.36l30.52.68s6.44-3 15.26-.34"/><path fill="#fff" stroke="#2e353a" stroke-linecap="round" stroke-linejoin="round" d="M148 264.77s7.12-5.76 12.55-7.8 35.61-2.71 35.61-2.71 8.47 2.71 6.78 3.39-8.48 1.36-11.53 2.71-20.69 13.57-42 16.62c-4.68.67-5.77.34-6.78-4.41"/><path fill="#2e353a" stroke="#2e353a" stroke-linecap="round" stroke-linejoin="round" d="m191.25 254.62.57 4.87h2.01l.28-5.15-2.86.28z"/></svg>
