<svg xmlns="http://www.w3.org/2000/svg" viewBox="0 0 750 500"><g id="freepik--background-complete--inject-6"><path d="M38.4,307.13H82.55s-3.9-7.11-15.27-6.07c-10.85,1-11.4-3.5-16.92-4.05S40.24,300.69,38.4,307.13Z" style="fill:#ebebeb"></path><path d="M654.27,201.27c-8.21-11.63-5.57-26.76-.53-39.4.84-2.11,1.42-4.44,3.11-6s4.52-1.93,6.11-.34c1.32,1.31,1.35,3.41,1.68,5.25a13.3,13.3,0,0,0,3.29,6.59c1.1,1.2,2.63,2.23,4.24,2,2.21-.36,3.34-2.82,4.1-5l4.2-11.9a21.19,21.19,0,0,1,2.91-6.08,7,7,0,0,1,5.75-3c2.22.17,4.3,2.23,4,4.47a20.26,20.26,0,0,1-.89,2.66,2.38,2.38,0,0,0,.55,2.58,2.74,2.74,0,0,0,2.68-.14,29.77,29.77,0,0,0,7.83-5.83,41.54,41.54,0,0,1,7.58-6.19c2.83-1.63,6.25-2.49,9.35-1.56s5.67,4,5.36,7.23-3.15,5.68-5.92,7.42A50.34,50.34,0,0,1,706.39,160a4.22,4.22,0,0,0-2.29,1.18c-1,1.25-.14,3.14,1.09,4.11,1.39,1.1,3.17,1.55,4.76,2.35s3.11,2.16,3.18,4c.08,2.48-2.55,4.1-4.88,4.95a43.37,43.37,0,0,1-14.52,2.61,14.48,14.48,0,0,0-5.25.56c-1.65.64-3.1,2.28-2.88,4s2,3,3.75,3.24a31.46,31.46,0,0,0,5.31-.1c3.31-.05,7,1.51,8,4.7a7.15,7.15,0,0,1-1.43,6.21,16.26,16.26,0,0,1-5.11,4.08,43.36,43.36,0,0,1-21.85,6c-7.62-.09-14.12-1.72-20-6.6" style="fill:#ebebeb"></path><path d="M656,202.75c2.28-4.9.21-2.55,4.43-8.32a201.54,201.54,0,0,1,14.93-17.77l4.16-4.45c1.37-1.46,2.72-2.91,4.13-4.24a99.78,99.78,0,0,1,8.57-7.2c2.83-2.16,5.6-4.11,8.2-5.91s5.07-3.42,7.37-4.81a80.52,80.52,0,0,1,11.36-5.73c1.39-.57,2.48-1,3.22-1.24l.85-.29a1.14,1.14,0,0,1,.29-.09,1.16,1.16,0,0,1-.27.13l-.84.33c-.73.29-1.81.72-3.19,1.31A84.6,84.6,0,0,0,708,150.31c-2.29,1.4-4.73,3-7.33,4.84s-5.35,3.76-8.17,5.92a102.82,102.82,0,0,0-8.51,7.19c-1.4,1.33-2.74,2.77-4.11,4.23L675.71,177a206.39,206.39,0,0,0-14.94,17.71c-4.22,5.74-2.15,3.35-4.47,8.22" style="fill:#e0e0e0"></path><path d="M683.81,168a4.74,4.74,0,0,1,.12-1c.1-.63.27-1.53.51-2.64.46-2.22,1.2-5.27,2-8.63s1.53-6.41,2-8.63c.21-1.11.38-2,.49-2.64a4.84,4.84,0,0,1,.21-1,4.36,4.36,0,0,1,0,1c-.06.63-.18,1.55-.36,2.67-.36,2.24-1,5.32-1.84,8.68s-1.58,6.3-2.16,8.59l-.63,2.61A4,4,0,0,1,683.81,168Z" style="fill:#e0e0e0"></path><path d="M713,172.73a7.32,7.32,0,0,1-1.14-.27c-.72-.19-1.76-.47-3.07-.77-2.59-.63-6.21-1.38-10.24-2s-7.71-1.06-10.38-1.29c-1.33-.13-2.41-.2-3.16-.26a6.1,6.1,0,0,1-1.16-.12,6.34,6.34,0,0,1,1.17,0c.75,0,1.84,0,3.18.12,2.68.16,6.37.54,10.41,1.18a101.29,101.29,0,0,1,10.26,2.15c1.29.34,2.33.67,3,.91A5.58,5.58,0,0,1,713,172.73Z" style="fill:#e0e0e0"></path><path d="M661,194.05a2.43,2.43,0,0,1-.07-.4c0-.31-.06-.69-.11-1.15-.09-1-.18-2.47-.28-4.27-.19-3.6-.29-8.59-.34-14.09s-.1-10.48-.22-14.09c-.06-1.75-.11-3.19-.14-4.26,0-.47,0-.85,0-1.16a1.3,1.3,0,0,1,0-.41,1.69,1.69,0,0,1,.07.4c0,.31.06.69.11,1.16.09,1,.18,2.46.28,4.26.19,3.6.3,8.59.34,14.09s.1,10.49.22,14.09c.06,1.75.11,3.19.14,4.26,0,.47,0,.85,0,1.17A1.25,1.25,0,0,1,661,194.05Z" style="fill:#e0e0e0"></path><path d="M701.49,195.43a1.44,1.44,0,0,1-.42,0l-1.18,0-4.34-.14c-3.66-.11-8.73-.22-14.32-.33s-10.67-.26-14.33-.45c-1.83-.1-3.31-.19-4.33-.28l-1.18-.1a1.25,1.25,0,0,1-.41-.07,2,2,0,0,1,.42,0l1.18,0,4.34.14c3.66.12,8.72.22,14.32.33s10.66.26,14.33.46c1.83.09,3.31.19,4.33.27l1.18.11A1.51,1.51,0,0,1,701.49,195.43Z" style="fill:#e0e0e0"></path><path d="M373.16,84.43a2.74,2.74,0,0,0,4.84,0l7.29-13.55c2.66-5.35,2.72-8.4,2.72-8.4.42-8.39-8.07-14.17-17.27-10.54a10.15,10.15,0,0,0-4.55,3.44c-3.22,4.48-2.51,10-.51,14.63Zm6.24-15.06c-6.73,3.47-13-3.88-9.06-10.63a5.47,5.47,0,0,1,2.18-2.09c6.72-3.47,13,3.88,9.06,10.63A5.41,5.41,0,0,1,379.4,69.37Z" style="fill:#ebebeb"></path><path d="M620.5,283.84a1.86,1.86,0,0,0,3.29-.12l4.56-9.47a15.05,15.05,0,0,0,1.59-5.81c0-5.73-5.93-9.41-12.09-6.65a6.79,6.79,0,0,0-3,2.49c-2.07,3.15-1.41,6.9.09,10Zm3.78-10.45c-4.47,2.57-9-2.25-6.5-7a3.76,3.76,0,0,1,1.43-1.5c4.47-2.57,9,2.25,6.5,7A3.69,3.69,0,0,1,624.28,273.39Z" style="fill:#ebebeb"></path><path d="M197.78,253.82a1.87,1.87,0,0,0,3.3-.13l4.55-9.46a15,15,0,0,0,1.6-5.81c0-5.73-5.94-9.41-12.09-6.65a6.86,6.86,0,0,0-3,2.48c-2.06,3.16-1.4,6.91.1,10Zm3.79-10.45c-4.48,2.57-9-2.25-6.5-7a3.74,3.74,0,0,1,1.42-1.5c4.48-2.57,9,2.25,6.5,7A3.8,3.8,0,0,1,201.57,243.37Z" style="fill:#ebebeb"></path><path d="M101.67,96.43h86.92s-7.68-14-30.06-12c-21.36,1.94-22.45-6.88-33.32-8S105.29,83.75,101.67,96.43Z" style="fill:#f5f5f5"></path><path d="M67.31,123.44h56.16s-5-9-19.42-7.73c-13.81,1.26-14.51-4.44-21.53-5.14S69.65,115.25,67.31,123.44Z" style="fill:#ebebeb"></path><path d="M233.15,438.93h56.16s-5-9-19.42-7.72c-13.81,1.26-14.51-4.44-21.53-5.14S235.49,430.75,233.15,438.93Z" style="fill:#ebebeb"></path><path d="M649.81,316h53s-4.69-8.53-18.34-7.29c-13,1.19-13.7-4.19-20.33-4.86S652,308.29,649.81,316Z" style="fill:#e0e0e0"></path><path d="M268.6,85.18a8.06,8.06,0,0,1-.22-1.69,14.21,14.21,0,0,0-.27-2,19.4,19.4,0,0,0-.59-2.73,25.73,25.73,0,0,0-3-7,26.24,26.24,0,0,0-31.44-11.18,24.38,24.38,0,0,0-6.6,3.53,29,29,0,0,0-3,2.5,29.67,29.67,0,0,0-2.56,3,25.92,25.92,0,0,0-.15,30.76,29.76,29.76,0,0,0,2.53,3,30.26,30.26,0,0,0,2.94,2.53,24.44,24.44,0,0,0,6.57,3.6A26.2,26.2,0,0,0,257.63,106a26.62,26.62,0,0,0,6.78-7.37,26,26,0,0,0,3-7,20.19,20.19,0,0,0,.62-2.73,14.67,14.67,0,0,0,.28-2,7.89,7.89,0,0,1,.24-1.7,7.57,7.57,0,0,1,.06,1.72,12.78,12.78,0,0,1-.15,2.07,19.52,19.52,0,0,1-.5,2.81,24.84,24.84,0,0,1-2.9,7.25A27.08,27.08,0,0,1,246.78,112a27.38,27.38,0,0,1-14.39-1.18,26.14,26.14,0,0,1-6.94-3.74,31,31,0,0,1-3.11-2.66,30.55,30.55,0,0,1-2.68-3.19,27.25,27.25,0,0,1,.15-32.47,31.82,31.82,0,0,1,2.72-3.16,30.92,30.92,0,0,1,3.13-2.63,25.83,25.83,0,0,1,7-3.67,27.4,27.4,0,0,1,14.39-1,27.11,27.11,0,0,1,18.21,13.1,25.21,25.21,0,0,1,2.84,7.28,17.74,17.74,0,0,1,.46,2.81,10.73,10.73,0,0,1,.13,2.08A7.05,7.05,0,0,1,268.6,85.18Z" style="fill:#ebebeb"></path><path d="M262.93,68.58c.06.08-.41.51-1.33,1.22l-1.7,1.27c-.34.24-.69.51-1.08.77l-1.3.71a30.22,30.22,0,0,1-15.65,4.27l-2.38-.06-2.29-.32-1.11-.16L235,76c-.71-.19-1.41-.34-2.07-.54a34.53,34.53,0,0,1-6.73-2.94c-3.63-2.1-5.41-4-5.28-4.16s2.12,1.44,5.77,3.25a39.94,39.94,0,0,0,6.62,2.55c.64.18,1.31.3,2,.47l1,.23,1.07.14,2.19.28,2.27,0A32.5,32.5,0,0,0,257,71.63l1.32-.6c.41-.22.77-.46,1.12-.66l1.81-1C262.28,68.77,262.87,68.5,262.93,68.58Z" style="fill:#ebebeb"></path><path d="M220.78,101.93c-.06-.09.42-.51,1.33-1.23l1.7-1.26c.34-.24.69-.51,1.08-.77l1.3-.72a30.32,30.32,0,0,1,15.65-4.26l2.38.06,2.29.31c.38.06.75.1,1.11.17l1.08.26c.7.18,1.4.33,2.06.53A34.53,34.53,0,0,1,257.49,98c3.63,2.1,5.41,4,5.28,4.17s-2.12-1.45-5.77-3.25a39.9,39.9,0,0,0-6.62-2.56c-.64-.17-1.31-.3-2-.46l-1-.23-1.07-.14-2.19-.28-2.27,0a32.53,32.53,0,0,0-15.15,3.72l-1.32.6c-.4.22-.77.45-1.12.66l-1.8,1C221.43,101.73,220.84,102,220.78,101.93Z" style="fill:#ebebeb"></path><path d="M268.6,85.8c0,.41-12,.68-26.75.61s-26.75-.46-26.74-.86,12-.68,26.75-.61S268.6,85.4,268.6,85.8Z" style="fill:#ebebeb"></path><path d="M241.13,111.79c-.41,0-.68-12-.61-26.74s.46-26.74.87-26.74.67,12,.6,26.74S241.54,111.79,241.13,111.79Z" style="fill:#ebebeb"></path><path d="M241.13,111.75c-.1.16-3.08-1.78-6.57-6.24a35.8,35.8,0,0,1-4.95-8.59A32.06,32.06,0,0,1,227.31,85a30.63,30.63,0,0,1,2.47-11.91,37.13,37.13,0,0,1,5.05-8.51c3.52-4.42,6.45-6.41,6.56-6.26s-2.5,2.41-5.72,6.88a39.68,39.68,0,0,0-4.64,8.4A30.71,30.71,0,0,0,228.78,85a32.5,32.5,0,0,0,2.09,11.45,38.22,38.22,0,0,0,4.53,8.46C238.58,109.39,241.28,111.58,241.13,111.75Z" style="fill:#ebebeb"></path><path d="M242,58.31c.1-.16,3.09,1.78,6.58,6.23a36.14,36.14,0,0,1,4.94,8.59,32.27,32.27,0,0,1,2.31,11.94A30.77,30.77,0,0,1,253.34,97a37.44,37.44,0,0,1-5.06,8.52c-3.52,4.42-6.45,6.4-6.55,6.25s2.5-2.4,5.72-6.88a40.13,40.13,0,0,0,4.63-8.4,30.83,30.83,0,0,0,2.26-11.4,32.72,32.72,0,0,0-2.1-11.45,38.88,38.88,0,0,0-4.52-8.46C244.54,60.66,241.84,58.47,242,58.31Z" style="fill:#ebebeb"></path></g><g id="freepik--World--inject-6"><path d="M514.12,276.66c-1-3.66-.82-7.51-1.3-11.25-.26-2-.87-4.21-2.56-5.33-1.12-.74-2.55-.87-3.77-1.44-4.39-2-4.71-8.62-8.76-11.23a14.92,14.92,0,0,0-4.23-1.54c-5.71-1.53-11.43-4.4-14.42-9.49-1-1.65-1.65-3.52-2.94-4.93s-3.55-2.27-5.18-1.25c.87,2.63,1.72,5.25,2.57,7.85a19.25,19.25,0,0,0,3.19,6.69c1.62,1.92,4.24,3.17,6.62,2.46a4.61,4.61,0,0,1,2.42-.47,2.51,2.51,0,0,1,1.36,1.17c2.66,4,.79,9.62-2.82,12.76s-8.41,4.31-13.05,5.42a9.42,9.42,0,0,1-5,.24c-2.95-1-4.09-4.54-4.55-7.64-1-6.85-1-14.12-4.22-20.25-1.05-1.93-2.44-3.76-2.93-5.91-.51-2.32.05-4.87-1-7s-3.82-3.83-3.67-6.31c.13-1.73,1.77-3,3.45-3.55s3.47-.5,5.19-.93c.67-.18,1.45-.54,1.57-1.22.15-1-1.21-1.65-1.44-2.66s1-2,1.63-3c1.35-2.26-.79-5-3.08-6.38s-5.07-2.46-5.86-5a14.1,14.1,0,0,1-.28-3.62c-.13-3-1.9-6.23-4.82-7.16s-6.66,1.27-6.61,4.33c.06,1.68,1.1,3.14,1.54,4.75s-.05,3.85-1.69,4.11c-2.69.41-4.48-4.65-6.87-3.35.44,3.15.86,6.28,1.31,9.45-3.63,1.23-7.23-2.47-8.16-6.21s-.41-7.74-1.64-11.37-5.49-6.85-8.78-4.87c-.78,4.34,4.73,6.94,6.77,10.83,1.47,2.82.6,6.92-2.36,8.15s-6.81-2.21-5.35-5c.52-1,1.5-1.71,1.76-2.8.29-1.36-.7-2.63-1.63-3.66-1.44-1.64-2.88-3.25-4.32-4.86a10.48,10.48,0,0,0-3.19-2.71c-3.24-1.47-7,.78-9.24,3.54s-3.75,6.19-6.59,8.36c-4.09,3.16-10.86,2.41-13.64-1.93s0-11.29,5.09-12c1.93-.25,4.28.14,5.5-1.36,2.14-2.67-2.23-7.1-.11-9.8,1.62-2.07,4.91-.54,7.52-.94s4.34-2.7,6.12-4.64S406,160,408.46,161a8,8,0,0,1,.91-4.42c.86-1.28,2.85-1.89,3.95-.83-1.55,1.87-.47,5,1.57,6.3s4.61,1.47,7.06,1.55,5.58-.39,6.13-2.77c.18-.77,0-1.65.41-2.34,1.47-2.71,6.19,2,8.56,0,1.35-1,.36-3.35-1.23-4s-3.33-.29-5-.48-3.58-1.34-3.41-3,2.17-2.56,2.6-4.15c.71-2.7-3.84-4.09-5.8-2.09s-1.82,5.14-1.73,7.93-.1,6-2.38,7.66c-1,1.18-3.18.17-3.72-1.31s-.15-3.12,0-4.69-.33-3.45-1.79-4.08c-1-.45-2.21-.1-3.31-.11-4.34-.1-6.51-6-4.57-9.92s6.16-6,10.21-7.5c3-1.13,6.58-2.05,9.08-.12,1.17.9,1.88,2.25,3,3.17,2,1.58,4.71,1.51,7.18,1.91a17.17,17.17,0,0,1,10.06,5.69c1,1.16,1.75,3,.72,4s-3.83,1-3.58,2.59a5.38,5.38,0,0,0,7.29-3.32,4.5,4.5,0,0,1,2.05,4,8,8,0,0,1,11.5,2.64,10.42,10.42,0,0,0,1.76,3.08c.89.78,2.65.71,2.94-.43a2.46,2.46,0,0,0,0-1.11c-.35-1.75-.72-3.48-1.07-5.21,2.45-.89,4.87,1.41,6.12,3.69,4.62,8.5,9.39,4.49,17.29,6.91,5.35,1.62,7.24,5.47,9.72,10.16,7.57,14.41,18.53,26.91,25.16,41.78q1,2.33,1.9,4.7c-.09-.39-.16-.77-.26-1.16a151.92,151.92,0,0,0-8.82-27.23c-.81-1.87-1.64-3.71-2.5-5.54-.54-1.13-1.1-2.28-1.67-3.39-.71-1.46-1.48-2.87-2.25-4.28-.62-1.14-1.23-2.26-1.87-3.35-.44-.77-.91-1.53-1.37-2.3s-1-1.72-1.58-2.58l-1.71-2.68c-.17-.27-.35-.55-.56-.83-.59-.93-1.23-1.85-1.88-2.77a.61.61,0,0,0-.18-.28q-.26-.37-.54-.75c-.52-.78-1.08-1.54-1.62-2.29-.9-1.23-1.82-2.46-2.78-3.65-.77-1-1.58-2-2.41-3s-1.45-1.76-2.2-2.62-1.46-1.69-2.22-2.52c-.9-1-1.83-2.05-2.78-3.06h0c-2.62-2.81-5.36-5.51-8.19-8.07-.7-.65-1.39-1.28-2.1-1.9s-1.44-1.27-2.16-1.87-1.45-1.23-2.19-1.82-1.47-1.21-2.21-1.79-1.19-1-1.81-1.39a9.86,9.86,0,0,0-.92-.71c-1.28-1-2.59-2-3.91-2.87-.66-.47-1.32-.94-2-1.39-.84-.6-1.71-1.17-2.58-1.72a2.65,2.65,0,0,0-.39-.26c-.78-.51-1.55-1-2.36-1.52-1.13-.69-2.25-1.37-3.38-2-1.29-.76-2.59-1.52-3.91-2.24s-2.92-1.6-4.41-2.34-3-1.51-4.54-2.23-3.05-1.39-4.6-2.07c-3.06-1.32-6.19-2.55-9.35-3.68l-.17-.07c-1.21-.43-2.43-.85-3.65-1.23a.89.89,0,0,0-.24-.09c-.52-.17-1.07-.35-1.63-.51-2.27-.73-4.57-1.38-6.91-2-.27-.09-.56-.15-.85-.22-.67-.2-1.35-.35-2-.52-1.55-.38-3.1-.73-4.68-1.05s-3.28-.68-4.94-1-3.46-.6-5.2-.85q-6.92-1-13.77-1.37c-1.09-.08-2.16-.13-3.23-.16s-2.24-.08-3.36-.09-2.25,0-3.36,0-2.23,0-3.36.06c-.95,0-1.93.05-2.89.11q-3.56.16-7.05.48c-1.09.09-2.19.21-3.28.35s-2.19.26-3.26.41c-1.82.24-3.58.53-5.35.83h0l-4.32.8a.21.21,0,0,0-.1,0c-1.47.29-2.89.61-4.35,1l-.23,0c-1.32.31-2.64.64-3.94,1-1.64.41-3.26.88-4.85,1.35-1.36.4-2.7.81-4,1.25s-2.84.94-4.24,1.44l-.16,0c-1.34.48-2.69,1-4,1.52s-2.73,1.08-4.1,1.68h0c-1.28.54-2.54,1.08-3.79,1.65-.48.21-.94.44-1.43.67-1.34.61-2.63,1.25-4,1.91-1.62.79-3.19,1.64-4.77,2.49-1.38.75-2.74,1.53-4.08,2.31a155.88,155.88,0,0,0-21.91,15.47c-2.42,2-4.72,4.08-7,6.2-1.91,1.83-3.78,3.68-5.59,5.62-1.62,1.68-3.2,3.41-4.73,5.17,1.53-1.76,3.11-3.49,4.73-5.17.4,0,.8,0,1.19.05,2.23.15,4.55.56,6.67-.11,2-.64,3.51-2.1,5.35-3,4.7-2.42,11.77-2,13.66-6.91.64-1.66.44-3.59,1.32-5.14,1.64-2.89,5.8-2.74,9.08-2.21,1.39.2,3,.63,3.47,2a3.55,3.55,0,0,1-.56,2.82,26.89,26.89,0,0,1-13.25,12.2c-4.64,2-10.5,3.19-12.37,7.87.35,1.73,3.35,2,3.35,3.79,0,1.4-1.89,1.85-2.71,3-1.19,1.66.63,4.15,2.68,4.35s3.95-1,5.64-2.19c5.06-3.5,10.39-7.28,12.86-12.93,1-2.33,1.69-5.14,3.89-6.47a4.84,4.84,0,0,1,6.94,3.38c2.09-.8,5.23-1.17,5.94,1a10.31,10.31,0,0,1,.08,2.36c.19,3.23,4.27,5.27,4.26,8.5,0,3.72-5,4.93-8.71,5-3.38,0-6.76.07-10.15.13a9.22,9.22,0,0,0-4.31.73,3.25,3.25,0,0,0-1.78,3.67,9.78,9.78,0,0,0,1.46,2c2.35,3.14-.73,8.47-4.62,8-1.33-.15-2.56-.82-3.87-1.07-3.9-.73-7.51,2.27-9.88,5.46s-4.33,6.93-7.81,8.83c-5.59,3.07-14.17.93-17.46,6.41-1.32,2.21-1.19,4.93-1.17,7.51s-.2,5.38-2,7.25-5.58,1.74-6.33-.72a5.7,5.7,0,0,1,.33-3.28q1.67-5.31,3.29-10.63c.8-2.64,1.61-5.6.33-8-1.78-3.41-6.82-3.84-10.07-1.78s-5,5.76-6.34,9.34c-1,2.66-2.23,6.44-4.2,9.35h0c-1,3-1.82,6-2.59,9.06s-1.46,6.27-2.05,9.49a12.38,12.38,0,0,0,1.42-1c1.78-1.37,5.87-7.66,8.18-3.95a2.53,2.53,0,0,1-.39,3.07c-1,1-2.77,1-3.61,2.08-1,1.31-.14,3.23,1.05,4.36s2.72,2,3.46,3.45c1.41,2.83-.87,6.48.49,9.36,1.17,2.47,4.34,3.08,7,3.76l.91.29c1.54-5.29,4.7-9.31,12.29-9.91,10.48-.84,22.6,9.5,27.2,18,5.14,9.48,6.4,22,15.54,27.72,6.54,4.08,16.63,4.41,19.05,11.74,2.15,6.57-4.14,12.69-5.93,19.36-1.16,4.42-.34,9.09-.65,13.62s-2.41,9.61-6.78,10.91c-2.43.7-5.28.16-7.36,1.61-3.71,2.62-2,9.38-5.67,12-1.3.91-2.95,1.07-4.45,1.58-7.87,2.64-9.23,13.45-6.91,21.42l.26.84a156.43,156.43,0,0,0,76.27,33.43,155.72,155.72,0,0,0,75.29-7.58h0a158.08,158.08,0,0,0,36.36-18.79,150.15,150.15,0,0,0,13.54-10.58c3-2.61,5.93-5.37,8.74-8.21,1.44-1.47,2.86-2.95,4.2-4.48a153.56,153.56,0,0,0,25-36.85A152,152,0,0,0,525.47,293c1-3.42,1.85-6.89,2.6-10.41a9,9,0,0,1-6.62,1.87C517.73,283.86,515.12,280.3,514.12,276.66Z" style="fill:#ebebeb"></path><path d="M466.15,295.49c6.88-4.41,11.08-16,3.88-19.87-2.72-1.46-6.15-1.09-8.85-2.61-3.51-2-4.64-6.41-5.44-10.36q-3.15-15.55-6.31-31.11c-1.27-6.25-3.5-13.6-9.62-15.38-3.47-1-7.15.18-10.75.32-12.43.45-28.55-31.79-40.61-13.41-.51-5.54-9.52-4.79-13-.43s-5,10.58-9.86,13.24c-3.73,2-8.68,1.47-11.9,4.26-2.25,2-3,5.07-3.71,8q-1.92,8.35-3.85,16.71c-1,4.49-2.05,9.3-.37,13.59s7.24,7.35,11.05,4.76c1.75-1.19,2.72-3.23,4.22-4.72a8.88,8.88,0,0,1,9.5-1.81c2.64,1.12,4.54,3.47,6.18,5.84,13.3,19.24,15.45,44.22,12.8,67.46-.49,4.26-1.11,8.61-.12,12.78,1.16,4.88,4.47,9.17,4.9,14.17.33,3.84-1.08,7.81,0,11.5,2,6.81,11.77,8.5,17.77,4.7s8.91-10.91,11-17.7,3.85-14,8.58-19.29c2.93-3.28,6.9-5.67,9.17-9.44,3.17-5.28,2.38-12.19,5.39-17.56C450.21,302,459.27,299.89,466.15,295.49Z" style="fill:#e0e0e0"></path><path d="M313.83,290.1c-2.42-7.33-12.51-7.66-19.05-11.74-9.14-5.7-10.4-18.24-15.54-27.72-4.6-8.47-16.72-18.81-27.2-18-7.59.6-10.75,4.62-12.29,9.91l-.91-.29c-2.68-.68-5.85-1.29-7-3.76-1.36-2.88.92-6.53-.49-9.36-.74-1.48-2.27-2.3-3.46-3.45s-2.06-3.05-1.05-4.36c.84-1.1,2.59-1.1,3.61-2.08a2.53,2.53,0,0,0,.39-3.07c-2.31-3.71-6.4,2.58-8.17,3.95a13.36,13.36,0,0,1-1.43,1v0a8,8,0,0,0-.17.85c-.17.91-.3,1.85-.46,2.79s-.31,1.85-.45,2.78c-.11.76-.19,1.52-.29,2.28s-.21,1.52-.29,2.27c-.05.37-.1.71-.13,1.08a156.12,156.12,0,0,0,2.74,50.57,151.53,151.53,0,0,0,6.53,21.67c1.11,3,2.38,6,3.72,9,1.67,3.67,3.45,7.28,5.42,10.79,1.82,3.37,3.79,6.68,5.91,9.89A154,154,0,0,0,253.07,348q4.43,5.52,9.35,10.61c-4.85-22.42-9.21-45.2-19.35-65.6,10.14,20.4,14.5,43.18,19.35,65.6h0c1.39,1.48,2.81,2.89,4.26,4.27q1.71,1.66,3.47,3.26c1.18,1.07,2.37,2.12,3.59,3.15.84.72,1.69,1.42,2.57,2.12l-.26-.84c-2.32-8-1-18.78,6.91-21.42,1.5-.51,3.15-.67,4.45-1.58,3.71-2.62,2-9.38,5.67-12,2.08-1.45,4.93-.91,7.36-1.61,4.37-1.3,6.45-6.35,6.78-10.91s-.51-9.2.65-13.62C309.69,302.79,316,296.67,313.83,290.1ZM236.13,248c.82.21,1.65.4,2.48.56C237.78,248.38,237,248.19,236.13,248Zm2.2,2.93c-.26,2.38-.5,4.81-.87,7.13-.07.43-.16.86-.26,1.3.1-.44.19-.87.26-1.3C237.83,255.72,238.07,253.29,238.33,250.91Zm-12.94-14.57c2.12,1.83,4,4,4.11,6.68C229.43,240.38,227.51,238.17,225.39,236.34Zm4.17,9a2.85,2.85,0,0,1-.08-1.69,2.85,2.85,0,0,0,.08,1.69,1.94,1.94,0,0,0,.95.78A1.94,1.94,0,0,1,229.56,245.36Zm5.84,20.54a23.82,23.82,0,0,0-.93,5.34,21.4,21.4,0,0,0,1.89,8.85,21.4,21.4,0,0,1-1.89-8.85A23.82,23.82,0,0,1,235.4,265.9Zm1.25,14.85c.27.62.56,1.24.86,1.85C237.21,282,236.92,281.37,236.65,280.75Z" style="fill:#e0e0e0"></path><path d="M236.4,183.91c3.25-2.06,8.29-1.63,10.07,1.78,1.28,2.44.47,5.4-.33,8q-1.63,5.31-3.29,10.63a5.7,5.7,0,0,0-.33,3.28c.75,2.46,4.59,2.57,6.33.72s2-4.69,2-7.25-.15-5.3,1.17-7.51c3.29-5.48,11.87-3.34,17.46-6.41,3.48-1.9,5.45-5.64,7.81-8.83s6-6.19,9.88-5.46c1.31.25,2.54.92,3.87,1.07,3.89.43,7-4.9,4.62-8a9.78,9.78,0,0,1-1.46-2,3.25,3.25,0,0,1,1.78-3.67,9.22,9.22,0,0,1,4.31-.73c3.39-.06,6.77-.09,10.15-.13,3.74,0,8.69-1.25,8.71-5,0-3.23-4.07-5.27-4.26-8.5a10.31,10.31,0,0,0-.08-2.36c-.71-2.16-3.85-1.79-5.94-1a4.84,4.84,0,0,0-6.94-3.38c-2.2,1.33-2.85,4.14-3.89,6.47-2.47,5.65-7.8,9.43-12.86,12.93-1.69,1.16-3.59,2.38-5.64,2.19s-3.87-2.69-2.68-4.35c.82-1.13,2.68-1.58,2.71-3,0-1.75-3-2.06-3.35-3.79,1.87-4.68,7.73-5.89,12.37-7.87a26.89,26.89,0,0,0,13.25-12.2,3.55,3.55,0,0,0,.56-2.82c-.46-1.32-2.08-1.75-3.47-2-3.28-.53-7.44-.68-9.08,2.21-.88,1.55-.68,3.48-1.32,5.14-1.89,4.93-9,4.49-13.66,6.91-1.84.93-3.38,2.39-5.35,3-2.12.67-4.44.26-6.67.11-.39,0-.79,0-1.19-.05-1.62,1.68-3.2,3.41-4.73,5.17s-3,3.56-4.48,5.39a154.68,154.68,0,0,0-17.77,28q-2.6,5.24-4.79,10.71t-4,11.16c2-2.91,3.22-6.69,4.2-9.35C231.41,189.67,233.17,186,236.4,183.91Z" style="fill:#e0e0e0"></path><path d="M530.13,270.26q.47-3.35.76-6.67t.44-6.64c.09-1.79.14-3.56.15-5.34s0-3.74,0-5.6a150.14,150.14,0,0,0-1.29-16.61c-.28-2.1-.61-4.2-1-6.28s-.77-4.15-1.22-6.22v0h0q-.86-2.37-1.9-4.7c-6.63-14.87-17.59-27.37-25.16-41.78-2.48-4.69-4.37-8.54-9.72-10.16-7.9-2.42-12.67,1.59-17.29-6.91-1.25-2.28-3.67-4.58-6.12-3.69.35,1.73.72,3.46,1.07,5.21a2.46,2.46,0,0,1,0,1.11c-.29,1.14-2.05,1.21-2.94.43a10.42,10.42,0,0,1-1.76-3.08,8,8,0,0,0-11.5-2.64,4.5,4.5,0,0,0-2.05-4,5.38,5.38,0,0,1-7.29,3.32c-.25-1.56,2.46-1.45,3.58-2.59s.24-2.89-.72-4a17.17,17.17,0,0,0-10.06-5.69c-2.47-.4-5.21-.33-7.18-1.91-1.14-.92-1.85-2.27-3-3.17-2.5-1.93-6.11-1-9.08.12-4.05,1.54-8.3,3.6-10.21,7.5s.23,9.82,4.57,9.92c1.1,0,2.3-.34,3.31.11,1.46.63,1.89,2.5,1.79,4.08s-.52,3.21,0,4.69,2.67,2.49,3.72,1.31c2.28-1.62,2.5-4.86,2.38-7.66s-.22-5.94,1.73-7.93,6.51-.61,5.8,2.09c-.43,1.59-2.44,2.5-2.6,4.15s1.74,2.85,3.41,3,3.46-.17,5,.48,2.58,3,1.23,4c-2.37,2-7.09-2.7-8.56,0-.4.69-.23,1.57-.41,2.34-.55,2.38-3.69,2.82-6.13,2.77s-5-.2-7.06-1.55-3.12-4.43-1.57-6.3c-1.1-1.06-3.09-.45-3.95.83a8,8,0,0,0-.91,4.42c-2.47-.93-5.06.89-6.82,2.82s-3.54,4.24-6.12,4.64-5.9-1.13-7.52.94c-2.12,2.7,2.25,7.13.11,9.8-1.22,1.5-3.57,1.11-5.5,1.36-5.13.68-7.89,7.64-5.09,12s9.55,5.09,13.64,1.93c2.84-2.17,4.36-5.58,6.59-8.36s6-5,9.24-3.54a10.48,10.48,0,0,1,3.19,2.71c1.44,1.61,2.88,3.22,4.32,4.86.93,1,1.92,2.3,1.63,3.66-.26,1.09-1.24,1.82-1.76,2.8-1.46,2.82,2.42,6.25,5.35,5s3.83-5.33,2.36-8.15c-2-3.89-7.55-6.49-6.77-10.83,3.29-2,7.56,1.21,8.78,4.87s.7,7.66,1.64,11.37,4.53,7.44,8.16,6.21c-.45-3.17-.87-6.3-1.31-9.45,2.39-1.3,4.18,3.76,6.87,3.35,1.64-.26,2.16-2.49,1.69-4.11s-1.48-3.07-1.54-4.75c-.05-3.06,3.67-5.25,6.61-4.33s4.69,4.11,4.82,7.16a14.1,14.1,0,0,0,.28,3.62c.79,2.51,3.6,3.64,5.86,5s4.43,4.12,3.08,6.38c-.62,1-1.86,1.83-1.63,3s1.59,1.63,1.44,2.66c-.12.68-.9,1-1.57,1.22-1.72.43-3.51.39-5.19.93s-3.32,1.82-3.45,3.55c-.15,2.48,2.59,4.08,3.67,6.31s.48,4.68,1,7c.49,2.15,1.88,4,2.93,5.91,3.26,6.13,3.19,13.4,4.22,20.25.46,3.1,1.6,6.64,4.55,7.64a9.42,9.42,0,0,0,5-.24c4.64-1.11,9.47-2.31,13.05-5.42s5.48-8.8,2.82-12.76a2.51,2.51,0,0,0-1.36-1.17,4.61,4.61,0,0,0-2.42.47c-2.38.71-5-.54-6.62-2.46a19.25,19.25,0,0,1-3.19-6.69c-.85-2.6-1.7-5.22-2.57-7.85,1.63-1,3.86-.17,5.18,1.25s1.95,3.28,2.94,4.93c3,5.09,8.71,8,14.42,9.49a14.92,14.92,0,0,1,4.23,1.54c4,2.61,4.37,9.19,8.76,11.23,1.22.57,2.65.7,3.77,1.44,1.69,1.12,2.3,3.31,2.56,5.33.48,3.74.27,7.59,1.3,11.25s3.61,7.2,7.33,7.79a9,9,0,0,0,6.62-1.87v0c.68-3.35,1.3-6.72,1.79-10.15C530,271.69,530.08,271,530.13,270.26Z" style="fill:#e0e0e0"></path><path d="M458.49,325.6c-2.37.12-3,1.41-4.53,2.93-2,2-4.62,3.88-6.42,5.86-3.06,3.36-1.63,9.5-5.4,12.15a26.36,26.36,0,0,0-2.4,1.45,3.94,3.94,0,0,0,0,5.52,5.34,5.34,0,0,0,5.75.94,8.54,8.54,0,0,0,4.24-4.32c.64-1.34,1.12-2.89,2.36-3.7,2.14-1.39,4.91.27,7.46.28C470.39,346.76,468.87,325.07,458.49,325.6Z" style="fill:#e0e0e0"></path></g><g id="freepik--Plants--inject-6"><path d="M49,185.2c.21,2.47-2.35,3.72-4.14,3.59A10.45,10.45,0,0,1,40,186.61c-3.38-2.3-6.88-4.74-8.79-8.35a6.68,6.68,0,0,1-.9-3.5,3.47,3.47,0,0,1,1.84-3c1.31-.61,2.85-.11,4.17.49a28.57,28.57,0,0,1,10,7.66A9.91,9.91,0,0,1,49,185.2" style="fill:#C53F3F"></path><g style="opacity:0.2"><path d="M49,185.2c.21,2.47-2.35,3.72-4.14,3.59A10.45,10.45,0,0,1,40,186.61c-3.38-2.3-6.88-4.74-8.79-8.35a6.68,6.68,0,0,1-.9-3.5,3.47,3.47,0,0,1,1.84-3c1.31-.61,2.85-.11,4.17.49a28.57,28.57,0,0,1,10,7.66A9.91,9.91,0,0,1,49,185.2"></path></g><path d="M51.44,196.54A12.34,12.34,0,0,0,45,200.71a6.39,6.39,0,0,0-1.83,3.72,2.72,2.72,0,0,0,2.38,2.94,3.68,3.68,0,0,0,2.22-1.06c1.55-1.32,3.05-3,5.07-3.12,1.16-.06,2.37.44,3.43,0a2.61,2.61,0,0,0,1.4-2.82,4.51,4.51,0,0,0-1.85-2.74A5,5,0,0,0,51.44,196.54Z" style="fill:#C53F3F"></path><path d="M53.84,184.94a7.41,7.41,0,0,1-5.24-4.51,13.11,13.11,0,0,1-.63-7.08,21.74,21.74,0,0,1,2.84-7.9A7.72,7.72,0,0,1,53,163a3.43,3.43,0,0,1,3.16-.47c1.51.63,2.07,2.45,2.38,4.06a55.1,55.1,0,0,1,1,8.59c.07,2.32,0,4.76-1.16,6.78s-2.94,3.39-4.78,3" style="fill:#C53F3F"></path><path d="M68.65,208.76a4.63,4.63,0,0,1-.69-.63l-1.8-1.78a36,36,0,0,0-2.8-2.49,28.5,28.5,0,0,0-3.83-2.5,15.8,15.8,0,0,0-4.24-1.62,8.23,8.23,0,0,0-3.67,0,7.77,7.77,0,0,0-2.3.94,5,5,0,0,1-.79.49,3.71,3.71,0,0,1,.71-.61,7.29,7.29,0,0,1,2.32-1.09,8.4,8.4,0,0,1,3.8-.08A15.59,15.59,0,0,1,59.71,201a27.05,27.05,0,0,1,3.87,2.56,31.7,31.7,0,0,1,2.77,2.57c.75.78,1.32,1.43,1.72,1.88A4.2,4.2,0,0,1,68.65,208.76Z" style="fill:#263238"></path><path d="M67.28,207.38a1.89,1.89,0,0,1-.3-.32l-.78-.94c-.68-.83-1.66-2-2.92-3.44-2.5-2.87-6.11-6.7-10.29-10.74s-8.15-7.5-11.12-9.88c-.74-.6-1.42-1.13-2-1.59s-1.11-.86-1.55-1.17l-1-.73a1.79,1.79,0,0,1-.33-.28,1.54,1.54,0,0,1,.37.21l1,.68c.45.29,1,.68,1.59,1.12s1.3,1,2.05,1.55a139.93,139.93,0,0,1,11.23,9.81c4.18,4.05,7.77,7.92,10.22,10.84,1.24,1.46,2.19,2.67,2.84,3.52l.72,1A1.46,1.46,0,0,1,67.28,207.38Z" style="fill:#263238"></path><path d="M60.76,199.57a9.27,9.27,0,0,1-.81-1A34.22,34.22,0,0,1,58,195.66,47.54,47.54,0,0,1,55.67,191a44.29,44.29,0,0,1-2.19-6,31.85,31.85,0,0,1-1.4-11.41,14.49,14.49,0,0,1,.26-2c0-.29.08-.56.14-.81l.19-.66a8.31,8.31,0,0,1,.38-1.22,38.68,38.68,0,0,0-.7,4.69A33.66,33.66,0,0,0,53.84,185,47.34,47.34,0,0,0,56,190.9a50.09,50.09,0,0,0,2.27,4.62c.72,1.28,1.35,2.29,1.8,3A6.9,6.9,0,0,1,60.76,199.57Z" style="fill:#263238"></path><path d="M419.54,268.85a8,8,0,0,1,1.71,6,14.09,14.09,0,0,1-2.26,6c-2.2,3.52-6.12,6.26-9.82,8.14-1.82-4.24-.25-9.35.71-11.89,1.51-4,6.69-10.37,9.66-8.23" style="fill:#C53F3F"></path><path d="M409.87,296.85a6.81,6.81,0,0,1,4.79-4.89,9.05,9.05,0,0,1,6.92,1,3.78,3.78,0,0,1,2.07,2.45,2.9,2.9,0,0,1-1.23,2.69,5.86,5.86,0,0,1-2.91,1c-3.53.4-7,.14-9.64-2.25" style="fill:#C53F3F"></path><path d="M400.38,306.32a5.32,5.32,0,0,1,.48-.71l1.37-1.88a23.58,23.58,0,0,1,5.3-5.57,14.64,14.64,0,0,1,7.14-2.76,9.8,9.8,0,0,1,2.34.07c.28,0,.48.1.63.13a.51.51,0,0,1,.21.07,14.9,14.9,0,0,0-3.16-.06,15.13,15.13,0,0,0-7,2.79,25.62,25.62,0,0,0-5.3,5.46c-.61.77-1.1,1.4-1.45,1.82A4.09,4.09,0,0,1,400.38,306.32Z" style="fill:#263238"></path><path d="M416,274a1.7,1.7,0,0,1-.12.35c-.11.25-.24.58-.41,1-.35.86-.88,2.09-1.55,3.6-1.33,3-3.23,7.18-5.43,11.72s-4.3,8.6-5.85,11.52c-.77,1.46-1.41,2.63-1.86,3.44l-.53.93a1.28,1.28,0,0,1-.2.31,1.64,1.64,0,0,1,.15-.34c.12-.25.28-.56.48-1,.43-.86,1-2,1.77-3.49,1.51-2.94,3.56-7,5.76-11.55s4.14-8.68,5.52-11.68c.68-1.47,1.23-2.68,1.64-3.55.18-.4.33-.72.45-1A1.65,1.65,0,0,1,416,274Z" style="fill:#263238"></path><path d="M403.36,296.51a16,16,0,0,0-2.79-14.3c-.81-1-2-2-3.25-1.62s-1.71,1.86-1.81,3.14a13.61,13.61,0,0,0,7.63,13" style="fill:#C53F3F"></path><path d="M399.38,286a4,4,0,0,1,.53.61,8.92,8.92,0,0,1,.56.76c.19.31.45.65.67,1.06a13,13,0,0,1,.69,1.35,14.19,14.19,0,0,1,.66,1.61,18,18,0,0,1,.85,3.9,17.46,17.46,0,0,1-.13,4,13.38,13.38,0,0,1-.36,1.7,13,13,0,0,1-.47,1.45c-.14.44-.34.81-.48,1.15a7.84,7.84,0,0,1-.44.84,5.58,5.58,0,0,1-.42.68c-.06,0,.54-1,1.14-2.74a13.8,13.8,0,0,0,.43-1.44c.14-.52.23-1.09.33-1.68a18.12,18.12,0,0,0,.1-3.93,18.72,18.72,0,0,0-.81-3.84c-.2-.57-.39-1.11-.62-1.6s-.45-.94-.66-1.35C400.07,286.9,399.33,286,399.38,286Z" style="fill:#263238"></path></g><g id="freepik--Locators--inject-6"><path d="M231.86,346.24a2.74,2.74,0,0,0,4.83-.18l6.67-13.87c2.43-5.46,2.34-8.51,2.34-8.51.05-8.41-8.7-13.8-17.72-9.76a10.1,10.1,0,0,0-4.39,3.65c-3,4.62-2.05,10.12.14,14.63Zm5.55-15.32c-6.56,3.77-13.15-3.29-9.53-10.21a5.45,5.45,0,0,1,2.09-2.19c6.56-3.77,13.15,3.29,9.53,10.21A5.51,5.51,0,0,1,237.41,330.92Z" style="fill:#C53F3F"></path><path d="M523.2,139.09a2.73,2.73,0,0,0,4.83-.18L534.7,125c2.43-5.46,2.34-8.51,2.34-8.51.05-8.4-8.7-13.79-17.72-9.75a10.06,10.06,0,0,0-4.39,3.64c-3,4.62-2,10.12.15,14.63Zm5.55-15.32c-6.56,3.77-13.15-3.29-9.53-10.21a5.45,5.45,0,0,1,2.09-2.19c6.56-3.77,13.15,3.3,9.53,10.21A5.45,5.45,0,0,1,528.75,123.77Z" style="fill:#C53F3F"></path><path d="M591.75,318.21a2.73,2.73,0,0,0,4.83-.19l6.67-13.87c2.43-5.46,2.34-8.51,2.34-8.51,0-8.4-8.7-13.79-17.72-9.75a10.14,10.14,0,0,0-4.39,3.64c-3,4.63-2.06,10.12.14,14.64Zm5.55-15.32c-6.56,3.77-13.15-3.3-9.53-10.21a5.38,5.38,0,0,1,2.09-2.19c6.56-3.77,13.15,3.29,9.52,10.21A5.42,5.42,0,0,1,597.3,302.89Z" style="fill:#C53F3F"></path><path d="M130.29,178.25a2.73,2.73,0,0,0,4.83-.19l6.68-13.87c2.42-5.46,2.33-8.51,2.33-8.51.05-8.4-8.7-13.79-17.72-9.75a10.13,10.13,0,0,0-4.39,3.64c-3,4.63-2,10.12.15,14.64Zm5.55-15.32c-6.56,3.76-13.15-3.3-9.53-10.21a5.54,5.54,0,0,1,2.09-2.2c6.56-3.76,13.15,3.3,9.53,10.22A5.45,5.45,0,0,1,135.84,162.93Z" style="fill:#C53F3F"></path><path d="M231.51,301.65c.14,0,.1.71-.09,1.52s-.46,1.44-.59,1.4-.1-.71.09-1.52S231.37,301.62,231.51,301.65Z" style="fill:#C53F3F"></path><path d="M233.32,289.78a17.34,17.34,0,0,1-.72,6,8.9,8.9,0,0,1,.1-3A8.8,8.8,0,0,1,233.32,289.78Z" style="fill:#C53F3F"></path><path d="M233.63,277.77a8.7,8.7,0,0,1,.28,3,9.09,9.09,0,0,1-.25,3,8.57,8.57,0,0,1-.27-3A9.17,9.17,0,0,1,233.63,277.77Z" style="fill:#C53F3F"></path><path d="M232.5,265.81a9.08,9.08,0,0,1,.63,2.95,8.52,8.52,0,0,1,.11,3,9.26,9.26,0,0,1-.63-2.95A8.84,8.84,0,0,1,232.5,265.81Z" style="fill:#C53F3F"></path><path d="M229.94,254.07a17.43,17.43,0,0,1,1.45,5.83,17.28,17.28,0,0,1-1.45-5.83Z" style="fill:#C53F3F"></path><path d="M226,242.72a9,9,0,0,1,1.31,2.72,9.12,9.12,0,0,1,.83,2.9,8.89,8.89,0,0,1-1.32-2.72A8.53,8.53,0,0,1,226,242.72Z" style="fill:#C53F3F"></path><path d="M220.7,231.94a8.85,8.85,0,0,1,1.64,2.54,9.19,9.19,0,0,1,1.18,2.77,17.39,17.39,0,0,1-2.82-5.31Z" style="fill:#C53F3F"></path><path d="M214.09,221.92a7.6,7.6,0,0,1,2,2.29,8.86,8.86,0,0,1,1.5,2.62,9.25,9.25,0,0,1-1.93-2.32A10.6,10.6,0,0,1,214.09,221.92Z" style="fill:#C53F3F"></path><path d="M206.38,212.71c.11-.1,1.08.83,2.18,2.08a8.9,8.9,0,0,1,1.79,2.43,9.13,9.13,0,0,1-2.18-2.08A9.26,9.26,0,0,1,206.38,212.71Z" style="fill:#C53F3F"></path><path d="M197.86,204.24a9,9,0,0,1,2.35,1.88,8.92,8.92,0,0,1,2,2.26,8.61,8.61,0,0,1-2.35-1.88A8.79,8.79,0,0,1,197.86,204.24Z" style="fill:#C53F3F"></path><path d="M188.66,196.51a18,18,0,0,1,4.68,3.77,8.92,8.92,0,0,1-2.5-1.68A8.81,8.81,0,0,1,188.66,196.51Z" style="fill:#C53F3F"></path><path d="M178.85,189.58a17.08,17.08,0,0,1,5,3.36,8.86,8.86,0,0,1-2.63-1.47A8.74,8.74,0,0,1,178.85,189.58Z" style="fill:#C53F3F"></path><path d="M168.45,183.56a9,9,0,0,1,2.76,1.21,8.84,8.84,0,0,1,2.51,1.67,8.83,8.83,0,0,1-2.76-1.21A8.73,8.73,0,0,1,168.45,183.56Z" style="fill:#C53F3F"></path><path d="M157.46,178.69a8.59,8.59,0,0,1,2.88.89A8.8,8.8,0,0,1,163,181a9,9,0,0,1-2.88-.89A9.46,9.46,0,0,1,157.46,178.69Z" style="fill:#C53F3F"></path><path d="M145.94,175.32a8.73,8.73,0,0,1,3,.48,9.2,9.2,0,0,1,2.85,1,8.65,8.65,0,0,1-3-.48A8.86,8.86,0,0,1,145.94,175.32Z" style="fill:#C53F3F"></path><path d="M137,174.11c0-.14.69-.2,1.52-.13s1.49.24,1.47.39-.7.2-1.52.13S137,174.25,137,174.11Z" style="fill:#C53F3F"></path><path d="M139,171.85c.11.1-.25.68-.79,1.3s-1.07,1-1.18,1,.25-.68.79-1.3S138.88,171.75,139,171.85Z" style="fill:#C53F3F"></path><path d="M147.43,163.51a16.73,16.73,0,0,1-4.34,4.05c-.11-.11.79-1.1,2-2.22A9.11,9.11,0,0,1,147.43,163.51Z" style="fill:#C53F3F"></path><path d="M156.77,156.2a16.74,16.74,0,0,1-4.77,3.53,8.57,8.57,0,0,1,2.23-2A8.88,8.88,0,0,1,156.77,156.2Z" style="fill:#C53F3F"></path><path d="M166.84,149.93a17.22,17.22,0,0,1-5.11,3,8.39,8.39,0,0,1,2.42-1.73A8.94,8.94,0,0,1,166.84,149.93Z" style="fill:#C53F3F"></path><path d="M177.46,144.67a8.36,8.36,0,0,1-2.57,1.49,8.76,8.76,0,0,1-2.8,1,8.57,8.57,0,0,1,2.58-1.49A8.84,8.84,0,0,1,177.46,144.67Z" style="fill:#C53F3F"></path><path d="M188.52,140.37a8.56,8.56,0,0,1-2.7,1.27,8.76,8.76,0,0,1-2.87.77,8.27,8.27,0,0,1,2.69-1.26A8.78,8.78,0,0,1,188.52,140.37Z" style="fill:#C53F3F"></path><path d="M199.89,137a16.79,16.79,0,0,1-5.72,1.59,8.59,8.59,0,0,1,2.79-1A8.84,8.84,0,0,1,199.89,137Z" style="fill:#C53F3F"></path><path d="M211.48,134.44a17.08,17.08,0,0,1-5.82,1.17,8.6,8.6,0,0,1,2.86-.84A8.81,8.81,0,0,1,211.48,134.44Z" style="fill:#C53F3F"></path><path d="M223.21,132.7a17.17,17.17,0,0,1-5.88.77,8.69,8.69,0,0,1,2.91-.64A8.55,8.55,0,0,1,223.21,132.7Z" style="fill:#C53F3F"></path><path d="M235,131.72a8.86,8.86,0,0,1-2.95.46,8.59,8.59,0,0,1-3-.07,8.79,8.79,0,0,1,2.94-.45A8.5,8.5,0,0,1,235,131.72Z" style="fill:#C53F3F"></path><path d="M246.9,131.46a8.51,8.51,0,0,1-3,.28,8.79,8.79,0,0,1-3-.24,8.67,8.67,0,0,1,3-.28A8.83,8.83,0,0,1,246.9,131.46Z" style="fill:#C53F3F"></path><path d="M258.76,131.91a8.63,8.63,0,0,1-3,.11,8.94,8.94,0,0,1-2.95-.42,8.76,8.76,0,0,1,3-.1A8.66,8.66,0,0,1,258.76,131.91Z" style="fill:#C53F3F"></path><path d="M270.57,133.07a8.71,8.71,0,0,1-3-.08,8.44,8.44,0,0,1-2.92-.59,8.68,8.68,0,0,1,3,.08A8.44,8.44,0,0,1,270.57,133.07Z" style="fill:#C53F3F"></path><path d="M282.29,134.92a8.73,8.73,0,0,1-3-.25,8.88,8.88,0,0,1-2.88-.76,8.45,8.45,0,0,1,3,.25A8.88,8.88,0,0,1,282.29,134.92Z" style="fill:#C53F3F"></path><path d="M293.87,137.5a9.38,9.38,0,0,1-2.94-.44,8.71,8.71,0,0,1-2.83-.94,8.63,8.63,0,0,1,2.95.43A8,8,0,0,1,293.87,137.5Z" style="fill:#C53F3F"></path><path d="M305.22,141a8.43,8.43,0,0,1-2.9-.67,8.66,8.66,0,0,1-2.74-1.18,8.68,8.68,0,0,1,2.9.68A8.78,8.78,0,0,1,305.22,141Z" style="fill:#C53F3F"></path><path d="M316.23,145.37a8.84,8.84,0,0,1-2.83-.93,8.55,8.55,0,0,1-2.63-1.4,17.38,17.38,0,0,1,5.46,2.33Z" style="fill:#C53F3F"></path><path d="M326.84,150.68a8.93,8.93,0,0,1-2.75-1.15,8.59,8.59,0,0,1-2.5-1.62,8.62,8.62,0,0,1,2.74,1.16A8.42,8.42,0,0,1,326.84,150.68Z" style="fill:#C53F3F"></path><path d="M337,156.83a8.87,8.87,0,0,1-2.64-1.37,8.68,8.68,0,0,1-2.36-1.81,8.83,8.83,0,0,1,2.64,1.37A8.48,8.48,0,0,1,337,156.83Z" style="fill:#C53F3F"></path><path d="M346.6,163.76a8.54,8.54,0,0,1-2.53-1.57,8.69,8.69,0,0,1-2.22-2,8.54,8.54,0,0,1,2.53,1.57A8.68,8.68,0,0,1,346.6,163.76Z" style="fill:#C53F3F"></path><path d="M355.66,171.43a9,9,0,0,1-2.4-1.77c-1.23-1.08-2.15-2-2.05-2.15a8.85,8.85,0,0,1,2.4,1.76C354.84,170.36,355.76,171.32,355.66,171.43Z" style="fill:#C53F3F"></path><path d="M364.1,179.76a8.75,8.75,0,0,1-2.25-1.94,8.46,8.46,0,0,1-1.89-2.31,8.8,8.8,0,0,1,2.26,2A8.67,8.67,0,0,1,364.1,179.76Z" style="fill:#C53F3F"></path><path d="M371.88,188.72a8.68,8.68,0,0,1-2.1-2.11,8.59,8.59,0,0,1-1.7-2.44c.11-.1,1.05.85,2.1,2.11A8.75,8.75,0,0,1,371.88,188.72Z" style="fill:#C53F3F"></path><path d="M378.94,198.26A8.87,8.87,0,0,1,377,196a8.75,8.75,0,0,1-1.51-2.57,8.8,8.8,0,0,1,1.94,2.27A8.57,8.57,0,0,1,378.94,198.26Z" style="fill:#C53F3F"></path><path d="M385.24,208.32a16.9,16.9,0,0,1-3.05-5.09,8.47,8.47,0,0,1,1.75,2.41A8.35,8.35,0,0,1,385.24,208.32Z" style="fill:#C53F3F"></path><path d="M390.72,218.84a16.91,16.91,0,0,1-2.63-5.31,16.91,16.91,0,0,1,2.63,5.31Z" style="fill:#C53F3F"></path><path d="M395.32,229.77a8.69,8.69,0,0,1-1.34-2.66,8.8,8.8,0,0,1-.85-2.85,8.64,8.64,0,0,1,1.34,2.66A8.87,8.87,0,0,1,395.32,229.77Z" style="fill:#C53F3F"></path><path d="M399,241.05a8.67,8.67,0,0,1-1.11-2.77,9,9,0,0,1-.61-2.91,8.56,8.56,0,0,1,1.11,2.76A8.77,8.77,0,0,1,399,241.05Z" style="fill:#C53F3F"></path><path d="M401.11,249.78c-.14,0-.39-.6-.57-1.41s-.21-1.48-.07-1.52.4.6.58,1.41S401.26,249.75,401.11,249.78Z" style="fill:#C53F3F"></path><path d="M406.92,239.11c.13,0,.08.71-.12,1.51s-.48,1.43-.62,1.39-.09-.71.12-1.51S406.78,239.07,406.92,239.11Z" style="fill:#C53F3F"></path><path d="M410.21,227.13a9.39,9.39,0,0,1-.6,3.06,9.67,9.67,0,0,1-1.1,2.91,18.78,18.78,0,0,1,1.7-6Z" style="fill:#C53F3F"></path><path d="M414,215.32a9.35,9.35,0,0,1-.75,3A9,9,0,0,1,412,221.2a18.82,18.82,0,0,1,2-5.88Z" style="fill:#C53F3F"></path><path d="M418.55,203.76a9.07,9.07,0,0,1-.93,3,9.65,9.65,0,0,1-1.42,2.78,9.07,9.07,0,0,1,.93-3A9.94,9.94,0,0,1,418.55,203.76Z" style="fill:#C53F3F"></path><path d="M424,192.59a9.6,9.6,0,0,1-1.18,2.88,9.32,9.32,0,0,1-1.64,2.65,9.5,9.5,0,0,1,1.18-2.88A9.21,9.21,0,0,1,424,192.59Z" style="fill:#C53F3F"></path><path d="M430.36,182a9.48,9.48,0,0,1-1.45,2.75A9.78,9.78,0,0,1,427,187.2a9,9,0,0,1,1.45-2.76A9.39,9.39,0,0,1,430.36,182Z" style="fill:#C53F3F"></path><path d="M437.89,172.11a9.59,9.59,0,0,1-1.75,2.57,9.39,9.39,0,0,1-2.16,2.25,9.47,9.47,0,0,1,1.75-2.57A9.13,9.13,0,0,1,437.89,172.11Z" style="fill:#e0e0e0"></path><path d="M446.54,163.22a9.46,9.46,0,0,1-2.05,2.34,9.57,9.57,0,0,1-2.41,2,18.76,18.76,0,0,1,4.46-4.31Z" style="fill:#C53F3F"></path><path d="M456.21,155.45a9.16,9.16,0,0,1-2.32,2.08,9.49,9.49,0,0,1-2.63,1.66,9.61,9.61,0,0,1,2.32-2.08A9.81,9.81,0,0,1,456.21,155.45Z" style="fill:#C53F3F"></path><path d="M466.79,149a9.71,9.71,0,0,1-2.57,1.75,9.48,9.48,0,0,1-2.83,1.31,9.46,9.46,0,0,1,2.57-1.76A9.12,9.12,0,0,1,466.79,149Z" style="fill:#C53F3F"></path><path d="M478.05,143.78a9.62,9.62,0,0,1-2.75,1.46,9.44,9.44,0,0,1-2.95,1,9.43,9.43,0,0,1,2.75-1.47A9,9,0,0,1,478.05,143.78Z" style="fill:#C53F3F"></path><path d="M489.79,139.75a9.93,9.93,0,0,1-2.89,1.18,9.74,9.74,0,0,1-3,.68,9.07,9.07,0,0,1,2.89-1.18A9.2,9.2,0,0,1,489.79,139.75Z" style="fill:#C53F3F"></path><path d="M501.92,137.16a9.65,9.65,0,0,1-3,.8,9.39,9.39,0,0,1-3.1.28,18.37,18.37,0,0,1,6.11-1.08Z" style="fill:#C53F3F"></path><path d="M514.3,136.8a12.66,12.66,0,0,1-3.1.06,12.22,12.22,0,0,1-3.1-.24,13.18,13.18,0,0,1,6.2.18Z" style="fill:#C53F3F"></path><path d="M523.2,139.09c-.06.13-.73,0-1.49-.29s-1.35-.65-1.3-.79.71,0,1.49.3S523.26,139,523.2,139.09Z" style="fill:#C53F3F"></path><path d="M409.45,252.77c0,.14-.55.47-1.33.74s-1.46.38-1.51.24.55-.46,1.34-.73S409.4,252.64,409.45,252.77Z" style="fill:#C53F3F"></path><path d="M421.13,249.3a9.22,9.22,0,0,1-2.87,1.07,9,9,0,0,1-3,.56,9.55,9.55,0,0,1,2.86-1.07A9.07,9.07,0,0,1,421.13,249.3Z" style="fill:#C53F3F"></path><path d="M433,246.63a9.35,9.35,0,0,1-2.93.87,9.17,9.17,0,0,1-3,.36,17.93,17.93,0,0,1,6-1.23Z" style="fill:#C53F3F"></path><path d="M445.06,244.78a9.42,9.42,0,0,1-3,.67,8.75,8.75,0,0,1-3.05.15,9.22,9.22,0,0,1,3-.67A8.81,8.81,0,0,1,445.06,244.78Z" style="fill:#C53F3F"></path><path d="M457.2,243.72a18.33,18.33,0,0,1-6.08.43,9.11,9.11,0,0,1,3-.48A9.46,9.46,0,0,1,457.2,243.72Z" style="fill:#C53F3F"></path><path d="M469.38,243.47a9.37,9.37,0,0,1-3,.27,8.81,8.81,0,0,1-3-.25,9.32,9.32,0,0,1,3-.27A8.81,8.81,0,0,1,469.38,243.47Z" style="fill:#C53F3F"></path><path d="M481.56,244a9,9,0,0,1-3.06.08,9.2,9.2,0,0,1-3-.44,8.85,8.85,0,0,1,3-.08A9.23,9.23,0,0,1,481.56,244Z" style="fill:#C53F3F"></path><path d="M493.68,245.33a8.91,8.91,0,0,1-3.06-.12,9.35,9.35,0,0,1-3-.64,17.85,17.85,0,0,1,6.05.76Z" style="fill:#C53F3F"></path><path d="M505.69,247.45a9.48,9.48,0,0,1-3.05-.32,9.18,9.18,0,0,1-2.94-.84,9.44,9.44,0,0,1,3,.32A9.09,9.09,0,0,1,505.69,247.45Z" style="fill:#C53F3F"></path><path d="M517.52,250.35a9.59,9.59,0,0,1-3-.52,9,9,0,0,1-2.88-1,17.75,17.75,0,0,1,5.89,1.55Z" style="fill:#C53F3F"></path><path d="M529.14,254a8.8,8.8,0,0,1-3-.72,9.18,9.18,0,0,1-2.81-1.21,8.8,8.8,0,0,1,3,.72A9.17,9.17,0,0,1,529.14,254Z" style="fill:#C53F3F"></path><path d="M540.48,258.47a8.87,8.87,0,0,1-2.91-.92,9,9,0,0,1-2.72-1.4,9.25,9.25,0,0,1,2.91.92A9.09,9.09,0,0,1,540.48,258.47Z" style="fill:#C53F3F"></path><path d="M551.49,263.69a8.9,8.9,0,0,1-2.84-1.12A9.1,9.1,0,0,1,546,261a9.09,9.09,0,0,1,2.85,1.12A8.79,8.79,0,0,1,551.49,263.69Z" style="fill:#C53F3F"></path><path d="M562.11,269.67a9.37,9.37,0,0,1-2.76-1.32,9.25,9.25,0,0,1-2.49-1.76,9,9,0,0,1,2.76,1.31A9.2,9.2,0,0,1,562.11,269.67Z" style="fill:#C53F3F"></path><path d="M572.29,276.37a9.52,9.52,0,0,1-2.66-1.51,9,9,0,0,1-2.37-1.93,17.75,17.75,0,0,1,5,3.44Z" style="fill:#C53F3F"></path><path d="M582,283.74A17.78,17.78,0,0,1,577.2,280a9.34,9.34,0,0,1,2.56,1.68A9.16,9.16,0,0,1,582,283.74Z" style="fill:#C53F3F"></path><path d="M257,322.8c.14,0,0,.72-.21,1.5s-.57,1.39-.71,1.35,0-.71.21-1.51S256.85,322.75,257,322.8Z" style="fill:#C53F3F"></path><path d="M261.41,311.86a8.62,8.62,0,0,1-.94,2.81,8.12,8.12,0,0,1-1.43,2.59,17.15,17.15,0,0,1,2.37-5.4Z" style="fill:#C53F3F"></path><path d="M267,301.5a16.58,16.58,0,0,1-3,5.1,8.76,8.76,0,0,1,1.26-2.68A8.61,8.61,0,0,1,267,301.5Z" style="fill:#C53F3F"></path><path d="M273.78,291.81a16.8,16.8,0,0,1-3.5,4.75,8.56,8.56,0,0,1,1.54-2.53A8.7,8.7,0,0,1,273.78,291.81Z" style="fill:#C53F3F"></path><path d="M281.54,282.92a17.21,17.21,0,0,1-4,4.34,8.51,8.51,0,0,1,1.81-2.35A8.65,8.65,0,0,1,281.54,282.92Z" style="fill:#C53F3F"></path><path d="M290.22,274.92a8.56,8.56,0,0,1-2.06,2.13,8.74,8.74,0,0,1-2.39,1.75c-.1-.11.82-1.06,2.05-2.14A8.6,8.6,0,0,1,290.22,274.92Z" style="fill:#C53F3F"></path><path d="M299.72,267.93a8.48,8.48,0,0,1-2.28,1.89,8.6,8.6,0,0,1-2.57,1.47,8.63,8.63,0,0,1,2.28-1.9A8.42,8.42,0,0,1,299.72,267.93Z" style="fill:#C53F3F"></path><path d="M310,262.05a8.74,8.74,0,0,1-2.48,1.63,8.34,8.34,0,0,1-2.72,1.16,8.71,8.71,0,0,1,2.48-1.62A9,9,0,0,1,310,262.05Z" style="fill:#C53F3F"></path><path d="M320.79,257.41a17,17,0,0,1-5.49,2.16,8.78,8.78,0,0,1,2.65-1.32A8.45,8.45,0,0,1,320.79,257.41Z" style="fill:#C53F3F"></path><path d="M332.09,254a16.91,16.91,0,0,1-5.69,1.52,16.91,16.91,0,0,1,5.69-1.52Z" style="fill:#C53F3F"></path><path d="M343.71,252a9,9,0,0,1-2.88.7,8.72,8.72,0,0,1-3,.18,8.67,8.67,0,0,1,2.88-.7A8.42,8.42,0,0,1,343.71,252Z" style="fill:#C53F3F"></path><path d="M355.48,251.14a8.86,8.86,0,0,1-2.94.38,8.35,8.35,0,0,1-3-.14,8.79,8.79,0,0,1,2.94-.38A8.29,8.29,0,0,1,355.48,251.14Z" style="fill:#C53F3F"></path><path d="M367.27,251.61a8.7,8.7,0,0,1-3,.06,8.52,8.52,0,0,1-2.93-.46,8.72,8.72,0,0,1,3-.06A8.52,8.52,0,0,1,367.27,251.61Z" style="fill:#C53F3F"></path><path d="M378.94,253.37a16.64,16.64,0,0,1-5.81-1,8.66,8.66,0,0,1,2.95.27A8.43,8.43,0,0,1,378.94,253.37Z" style="fill:#C53F3F"></path><path d="M390.34,256.42a8.54,8.54,0,0,1-2.9-.59,8.8,8.8,0,0,1-2.76-1.1,8.79,8.79,0,0,1,2.9.6A8.4,8.4,0,0,1,390.34,256.42Z" style="fill:#C53F3F"></path><path d="M398.65,259.57c-.06.13-.72,0-1.49-.33s-1.34-.68-1.28-.82.71,0,1.48.33S398.71,259.44,398.65,259.57Z" style="fill:#C53F3F"></path><path d="M397.92,272a2.73,2.73,0,0,0,4.83-.19l6.67-13.87c2.43-5.46,2.34-8.51,2.34-8.51.05-8.4-8.7-13.79-17.72-9.75a10.07,10.07,0,0,0-4.39,3.64c-3,4.63-2.06,10.12.14,14.64Zm5.55-15.32c-6.56,3.76-13.15-3.3-9.53-10.21a5.47,5.47,0,0,1,2.09-2.2c6.56-3.76,13.15,3.3,9.52,10.22A5.42,5.42,0,0,1,403.47,256.67Z" style="fill:#C53F3F"></path></g></svg>