<svg xmlns="http://www.w3.org/2000/svg" viewBox="0 0 750 500"><path fill="#ebebeb" d="M38.4 307.13h44.15s-3.9-7.11-15.27-6.07c-10.85 1-11.4-3.5-16.92-4.05s-10.12 3.68-11.96 10.12ZM654.27 201.27c-8.21-11.63-5.57-26.76-.53-39.4.84-2.11 1.42-4.44 3.11-6s4.52-1.93 6.11-.34c1.32 1.31 1.35 3.41 1.68 5.25a13.3 13.3 0 0 0 3.29 6.59c1.1 1.2 2.63 2.23 4.24 2 2.21-.36 3.34-2.82 4.1-5l4.2-11.9a21.19 21.19 0 0 1 2.91-6.08 7 7 0 0 1 5.75-3c2.22.17 4.3 2.23 4 4.47a20.26 20.26 0 0 1-.89 2.66 2.38 2.38 0 0 0 .55 2.58 2.74 2.74 0 0 0 2.68-.14 29.77 29.77 0 0 0 7.83-5.83 41.54 41.54 0 0 1 7.58-6.19c2.83-1.63 6.25-2.49 9.35-1.56s5.67 4 5.36 7.23-3.15 5.68-5.92 7.42a50.34 50.34 0 0 1-13.28 5.97 4.22 4.22 0 0 0-2.29 1.18c-1 1.25-.14 3.14 1.09 4.11 1.39 1.1 3.17 1.55 4.76 2.35s3.11 2.16 3.18 4c.08 2.48-2.55 4.1-4.88 4.95a43.37 43.37 0 0 1-14.52 2.61 14.48 14.48 0 0 0-5.25.56c-1.65.64-3.1 2.28-2.88 4s2 3 3.75 3.24a31.46 31.46 0 0 0 5.31-.1c3.31-.05 7 1.51 8 4.7a7.15 7.15 0 0 1-1.43 6.21 16.26 16.26 0 0 1-5.11 4.08 43.36 43.36 0 0 1-21.85 6c-7.62-.09-14.12-1.72-20-6.6"/><path fill="#e0e0e0" d="M656 202.75c2.28-4.9.21-2.55 4.43-8.32a201.54 201.54 0 0 1 14.93-17.77l4.16-4.45c1.37-1.46 2.72-2.91 4.13-4.24a99.78 99.78 0 0 1 8.57-7.2 215.97 215.97 0 0 1 15.57-10.72 80.52 80.52 0 0 1 11.36-5.73c1.39-.57 2.48-1 3.22-1.24l.85-.29a1.14 1.14 0 0 1 .29-.09 1.16 1.16 0 0 1-.27.13l-.84.33c-.73.29-1.81.72-3.19 1.31a84.6 84.6 0 0 0-11.21 5.84c-2.29 1.4-4.73 3-7.33 4.84s-5.35 3.76-8.17 5.92a102.82 102.82 0 0 0-8.51 7.19c-1.4 1.33-2.74 2.77-4.11 4.23l-4.17 4.51a206.39 206.39 0 0 0-14.94 17.71c-4.22 5.74-2.15 3.35-4.47 8.22"/><path fill="#e0e0e0" d="M683.81 168a4.74 4.74 0 0 1 .12-1c.1-.63.27-1.53.51-2.64.46-2.22 1.2-5.27 2-8.63s1.53-6.41 2-8.63l.49-2.64a4.84 4.84 0 0 1 .21-1 4.36 4.36 0 0 1 0 1 44.4 44.4 0 0 1-.36 2.67c-.36 2.24-1 5.32-1.84 8.68l-2.16 8.59-.63 2.61a4 4 0 0 1-.34.99ZM713 172.73a7.32 7.32 0 0 1-1.14-.27c-.72-.19-1.76-.47-3.07-.77-2.59-.63-6.21-1.38-10.24-2s-7.71-1.06-10.38-1.29c-1.33-.13-2.41-.2-3.16-.26a6.1 6.1 0 0 1-1.16-.12 6.34 6.34 0 0 1 1.17 0c.75 0 1.84 0 3.18.12 2.68.16 6.37.54 10.41 1.18a101.29 101.29 0 0 1 10.26 2.15c1.29.34 2.33.67 3 .91a5.58 5.58 0 0 1 1.13.35ZM661 194.05a2.43 2.43 0 0 1-.07-.4c0-.31-.06-.69-.11-1.15-.09-1-.18-2.47-.28-4.27-.19-3.6-.29-8.59-.34-14.09s-.1-10.48-.22-14.09l-.14-4.26v-1.16a1.3 1.3 0 0 1 0-.41 1.69 1.69 0 0 1 .07.4c0 .31.06.69.11 1.16.09 1 .18 2.46.28 4.26.19 3.6.3 8.59.34 14.09s.1 10.49.22 14.09l.14 4.26v1.17a1.25 1.25 0 0 1 0 .4ZM701.49 195.43a1.44 1.44 0 0 1-.42 0h-1.18l-4.34-.14c-3.66-.11-8.73-.22-14.32-.33s-10.67-.26-14.33-.45c-1.83-.1-3.31-.19-4.33-.28l-1.18-.1a1.25 1.25 0 0 1-.41-.07 2 2 0 0 1 .42 0h1.18l4.34.14c3.66.12 8.72.22 14.32.33s10.66.26 14.33.46c1.83.09 3.31.19 4.33.27l1.18.11a1.51 1.51 0 0 1 .41.06Z"/><path fill="#ebebeb" d="M373.16 84.43a2.74 2.74 0 0 0 4.84 0l7.29-13.55c2.66-5.35 2.72-8.4 2.72-8.4.42-8.39-8.07-14.17-17.27-10.54a10.15 10.15 0 0 0-4.55 3.44c-3.22 4.48-2.51 10-.51 14.63Zm6.24-15.06c-6.73 3.47-13-3.88-9.06-10.63a5.47 5.47 0 0 1 2.18-2.09c6.72-3.47 13 3.88 9.06 10.63a5.41 5.41 0 0 1-2.18 2.09ZM620.5 283.84a1.86 1.86 0 0 0 3.29-.12l4.56-9.47a15.05 15.05 0 0 0 1.59-5.81c0-5.73-5.93-9.41-12.09-6.65a6.79 6.79 0 0 0-3 2.49c-2.07 3.15-1.41 6.9.09 10Zm3.78-10.45c-4.47 2.57-9-2.25-6.5-7a3.76 3.76 0 0 1 1.43-1.5c4.47-2.57 9 2.25 6.5 7a3.69 3.69 0 0 1-1.43 1.5ZM197.78 253.82a1.87 1.87 0 0 0 3.3-.13l4.55-9.46a15 15 0 0 0 1.6-5.81c0-5.73-5.94-9.41-12.09-6.65a6.86 6.86 0 0 0-3 2.48c-2.06 3.16-1.4 6.91.1 10Zm3.79-10.45c-4.48 2.57-9-2.25-6.5-7a3.74 3.74 0 0 1 1.42-1.5c4.48-2.57 9 2.25 6.5 7a3.8 3.8 0 0 1-1.42 1.5Z"/><path fill="#f5f5f5" d="M101.67 96.43h86.92s-7.68-14-30.06-12c-21.36 1.94-22.45-6.88-33.32-8s-19.92 7.32-23.54 20Z"/><path fill="#ebebeb" d="M67.31 123.44h56.16s-5-9-19.42-7.73c-13.81 1.26-14.51-4.44-21.53-5.14s-12.87 4.68-15.21 12.87ZM233.15 438.93h56.16s-5-9-19.42-7.72c-13.81 1.26-14.51-4.44-21.53-5.14s-12.87 4.68-15.21 12.86Z"/><path fill="#e0e0e0" d="M649.81 316h53s-4.69-8.53-18.34-7.29c-13 1.19-13.7-4.19-20.33-4.86S652 308.29 649.81 316Z"/><path fill="#ebebeb" d="M268.6 85.18a8.06 8.06 0 0 1-.22-1.69 14.21 14.21 0 0 0-.27-2 19.4 19.4 0 0 0-.59-2.73 25.73 25.73 0 0 0-3-7 26.24 26.24 0 0 0-31.44-11.18 24.38 24.38 0 0 0-6.6 3.53 29 29 0 0 0-3 2.5 29.67 29.67 0 0 0-2.56 3 25.92 25.92 0 0 0-.15 30.76 29.76 29.76 0 0 0 2.53 3 30.26 30.26 0 0 0 2.94 2.53 24.44 24.44 0 0 0 6.57 3.6 26.2 26.2 0 0 0 24.82-3.5 26.62 26.62 0 0 0 6.78-7.37 26 26 0 0 0 3-7 20.19 20.19 0 0 0 .62-2.73 14.67 14.67 0 0 0 .28-2 7.89 7.89 0 0 1 .24-1.7 7.57 7.57 0 0 1 .06 1.72 12.78 12.78 0 0 1-.15 2.07 19.52 19.52 0 0 1-.5 2.81 24.84 24.84 0 0 1-2.9 7.25A27.08 27.08 0 0 1 246.78 112a27.38 27.38 0 0 1-14.39-1.18 26.14 26.14 0 0 1-6.94-3.74 31 31 0 0 1-3.11-2.66 30.55 30.55 0 0 1-2.68-3.19 27.25 27.25 0 0 1 .15-32.47 31.82 31.82 0 0 1 2.72-3.16 30.92 30.92 0 0 1 3.13-2.63 25.83 25.83 0 0 1 7-3.67 27.4 27.4 0 0 1 14.39-1 27.11 27.11 0 0 1 18.21 13.1 25.21 25.21 0 0 1 2.84 7.28 17.74 17.74 0 0 1 .46 2.81 10.73 10.73 0 0 1 .13 2.08 7.05 7.05 0 0 1-.09 1.61Z"/><path fill="#ebebeb" d="M262.93 68.58c.06.08-.41.51-1.33 1.22l-1.7 1.27c-.34.24-.69.51-1.08.77l-1.3.71a30.22 30.22 0 0 1-15.65 4.27l-2.38-.06-2.29-.32-1.11-.16L235 76c-.71-.19-1.41-.34-2.07-.54a34.53 34.53 0 0 1-6.73-2.94c-3.63-2.1-5.41-4-5.28-4.16s2.12 1.44 5.77 3.25a39.94 39.94 0 0 0 6.62 2.55c.64.18 1.31.3 2 .47l1 .23 1.07.14 2.19.28h2.27A32.5 32.5 0 0 0 257 71.63l1.32-.6c.41-.22.77-.46 1.12-.66l1.81-1c1.03-.6 1.62-.87 1.68-.79ZM220.78 101.93c-.06-.09.42-.51 1.33-1.23l1.7-1.26c.34-.24.69-.51 1.08-.77l1.3-.72a30.32 30.32 0 0 1 15.65-4.26l2.38.06 2.29.31c.38.06.75.1 1.11.17l1.08.26c.7.18 1.4.33 2.06.53a34.53 34.53 0 0 1 6.73 2.98c3.63 2.1 5.41 4 5.28 4.17s-2.12-1.45-5.77-3.25a39.9 39.9 0 0 0-6.62-2.56c-.64-.17-1.31-.3-2-.46l-1-.23-1.07-.14-2.19-.28h-2.27a32.53 32.53 0 0 0-15.15 3.72l-1.32.6c-.4.22-.77.45-1.12.66l-1.8 1c-1.03.5-1.62.77-1.68.7ZM268.6 85.8c0 .41-12 .68-26.75.61s-26.75-.46-26.74-.86 12-.68 26.75-.61 26.74.46 26.74.86Z"/><path fill="#ebebeb" d="M241.13 111.79c-.41 0-.68-12-.61-26.74s.46-26.74.87-26.74.67 12 .6 26.74-.45 26.74-.86 26.74Z"/><path fill="#ebebeb" d="M241.13 111.75c-.1.16-3.08-1.78-6.57-6.24a35.8 35.8 0 0 1-4.95-8.59 32.06 32.06 0 0 1-2.3-11.92 30.63 30.63 0 0 1 2.47-11.91 37.13 37.13 0 0 1 5.05-8.51c3.52-4.42 6.45-6.41 6.56-6.26s-2.5 2.41-5.72 6.88a39.68 39.68 0 0 0-4.64 8.4 30.71 30.71 0 0 0-2.25 11.4 32.5 32.5 0 0 0 2.09 11.45 38.22 38.22 0 0 0 4.53 8.46c3.18 4.48 5.88 6.67 5.73 6.84ZM242 58.31c.1-.16 3.09 1.78 6.58 6.23a36.14 36.14 0 0 1 4.94 8.59 32.27 32.27 0 0 1 2.31 11.94A30.77 30.77 0 0 1 253.34 97a37.44 37.44 0 0 1-5.06 8.52c-3.52 4.42-6.45 6.4-6.55 6.25s2.5-2.4 5.72-6.88a40.13 40.13 0 0 0 4.63-8.4 30.83 30.83 0 0 0 2.26-11.4 32.72 32.72 0 0 0-2.1-11.45 38.88 38.88 0 0 0-4.52-8.46c-3.18-4.52-5.88-6.71-5.72-6.87ZM514.12 276.66c-1-3.66-.82-7.51-1.3-11.25-.26-2-.87-4.21-2.56-5.33-1.12-.74-2.55-.87-3.77-1.44-4.39-2-4.71-8.62-8.76-11.23a14.92 14.92 0 0 0-4.23-1.54c-5.71-1.53-11.43-4.4-14.42-9.49-1-1.65-1.65-3.52-2.94-4.93s-3.55-2.27-5.18-1.25l2.57 7.85a19.25 19.25 0 0 0 3.19 6.69c1.62 1.92 4.24 3.17 6.62 2.46a4.61 4.61 0 0 1 2.42-.47 2.51 2.51 0 0 1 1.36 1.17c2.66 4 .79 9.62-2.82 12.76s-8.41 4.31-13.05 5.42a9.42 9.42 0 0 1-5 .24c-2.95-1-4.09-4.54-4.55-7.64-1-6.85-1-14.12-4.22-20.25-1.05-1.93-2.44-3.76-2.93-5.91-.51-2.32.05-4.87-1-7s-3.82-3.83-3.67-6.31c.13-1.73 1.77-3 3.45-3.55s3.47-.5 5.19-.93c.67-.18 1.45-.54 1.57-1.22.15-1-1.21-1.65-1.44-2.66s1-2 1.63-3c1.35-2.26-.79-5-3.08-6.38s-5.07-2.46-5.86-5a14.1 14.1 0 0 1-.28-3.62c-.13-3-1.9-6.23-4.82-7.16s-6.66 1.27-6.61 4.33c.06 1.68 1.1 3.14 1.54 4.75s-.05 3.85-1.69 4.11c-2.69.41-4.48-4.65-6.87-3.35.44 3.15.86 6.28 1.31 9.45-3.63 1.23-7.23-2.47-8.16-6.21s-.41-7.74-1.64-11.37-5.49-6.85-8.78-4.87c-.78 4.34 4.73 6.94 6.77 10.83 1.47 2.82.6 6.92-2.36 8.15s-6.81-2.21-5.35-5c.52-1 1.5-1.71 1.76-2.8.29-1.36-.7-2.63-1.63-3.66-1.44-1.64-2.88-3.25-4.32-4.86a10.48 10.48 0 0 0-3.19-2.71c-3.24-1.47-7 .78-9.24 3.54s-3.75 6.19-6.59 8.36c-4.09 3.16-10.86 2.41-13.64-1.93s0-11.29 5.09-12c1.93-.25 4.28.14 5.5-1.36 2.14-2.67-2.23-7.1-.11-9.8 1.62-2.07 4.91-.54 7.52-.94s4.34-2.7 6.12-4.64S406 160 408.46 161a8 8 0 0 1 .91-4.42c.86-1.28 2.85-1.89 3.95-.83-1.55 1.87-.47 5 1.57 6.3s4.61 1.47 7.06 1.55 5.58-.39 6.13-2.77c.18-.77 0-1.65.41-2.34 1.47-2.71 6.19 2 8.56 0 1.35-1 .36-3.35-1.23-4s-3.33-.29-5-.48-3.58-1.34-3.41-3 2.17-2.56 2.6-4.15c.71-2.7-3.84-4.09-5.8-2.09s-1.82 5.14-1.73 7.93-.1 6-2.38 7.66c-1 1.18-3.18.17-3.72-1.31s-.15-3.12 0-4.69-.33-3.45-1.79-4.08c-1-.45-2.21-.1-3.31-.11-4.34-.1-6.51-6-4.57-9.92s6.16-6 10.21-7.5c3-1.13 6.58-2.05 9.08-.12 1.17.9 1.88 2.25 3 3.17 2 1.58 4.71 1.51 7.18 1.91a17.17 17.17 0 0 1 10.06 5.69c1 1.16 1.75 3 .72 4s-3.83 1-3.58 2.59a5.38 5.38 0 0 0 7.29-3.32 4.5 4.5 0 0 1 2.05 4 8 8 0 0 1 11.5 2.64 10.42 10.42 0 0 0 1.76 3.08c.89.78 2.65.71 2.94-.43a2.46 2.46 0 0 0 0-1.11l-1.07-5.21c2.45-.89 4.87 1.41 6.12 3.69 4.62 8.5 9.39 4.49 17.29 6.91 5.35 1.62 7.24 5.47 9.72 10.16 7.57 14.41 18.53 26.91 25.16 41.78q1 2.33 1.9 4.7c-.09-.39-.16-.77-.26-1.16a151.92 151.92 0 0 0-8.82-27.23 133.16 133.16 0 0 0-4.17-8.93c-.71-1.46-1.48-2.87-2.25-4.28-.62-1.14-1.23-2.26-1.87-3.35-.44-.77-.91-1.53-1.37-2.3s-1-1.72-1.58-2.58l-1.71-2.68c-.17-.27-.35-.55-.56-.83a67.61 67.61 0 0 0-1.88-2.77.61.61 0 0 0-.18-.28l-.54-.75c-.52-.78-1.08-1.54-1.62-2.29a97.51 97.51 0 0 0-2.78-3.65c-.77-1-1.58-2-2.41-3s-1.45-1.76-2.2-2.62-1.46-1.69-2.22-2.52c-.9-1-1.83-2.05-2.78-3.06a135.46 135.46 0 0 0-8.19-8.07c-.7-.65-1.39-1.28-2.1-1.9s-1.44-1.27-2.16-1.87-1.45-1.23-2.19-1.82-1.47-1.21-2.21-1.79-1.19-1-1.81-1.39a9.86 9.86 0 0 0-.92-.71c-1.28-1-2.59-2-3.91-2.87-.66-.47-1.32-.94-2-1.39-.84-.6-1.71-1.17-2.58-1.72a2.65 2.65 0 0 0-.39-.26l-2.36-1.52a99.58 99.58 0 0 0-3.38-2c-1.29-.76-2.59-1.52-3.91-2.24s-2.92-1.6-4.41-2.34-3-1.51-4.54-2.23-3.05-1.39-4.6-2.07a157.73 157.73 0 0 0-9.35-3.68l-.17-.07a97.79 97.79 0 0 0-3.65-1.23.89.89 0 0 0-.24-.09c-.52-.17-1.07-.35-1.63-.51-2.27-.73-4.57-1.38-6.91-2-.27-.09-.56-.15-.85-.22-.67-.2-1.35-.35-2-.52-1.55-.38-3.1-.73-4.68-1.05s-3.28-.68-4.94-1-3.46-.6-5.2-.85q-6.92-1-13.77-1.37c-1.09-.08-2.16-.13-3.23-.16s-2.24-.08-3.36-.09h-3.36c-1.11 0-2.23 0-3.36.06-.95 0-1.93.05-2.89.11q-3.56.16-7.05.48c-1.09.09-2.19.21-3.28.35s-2.19.26-3.26.41c-1.82.24-3.58.53-5.35.83l-4.32.8a.21.21 0 0 0-.1 0c-1.47.29-2.89.61-4.35 1h-.23c-1.32.31-2.64.64-3.94 1-1.64.41-3.26.88-4.85 1.35-1.36.4-2.7.81-4 1.25s-2.84.94-4.24 1.44h-.16c-1.34.48-2.69 1-4 1.52s-2.73 1.08-4.1 1.68c-1.28.54-2.54 1.08-3.79 1.65-.48.21-.94.44-1.43.67-1.34.61-2.63 1.25-4 1.91-1.62.79-3.19 1.64-4.77 2.49-1.38.75-2.74 1.53-4.08 2.31a155.88 155.88 0 0 0-21.91 15.47 141.1 141.1 0 0 0-12.59 11.82c.4 0 .8 0 1.19.05 2.23.15 4.55.56 6.67-.11 2-.64 3.51-2.1 5.35-3 4.7-2.42 11.77-2 13.66-6.91.64-1.66.44-3.59 1.32-5.14 1.64-2.89 5.8-2.74 9.08-2.21 1.39.2 3 .63 3.47 2a3.55 3.55 0 0 1-.56 2.82 26.89 26.89 0 0 1-13.25 12.2c-4.64 2-10.5 3.19-12.37 7.87.35 1.73 3.35 2 3.35 3.79 0 1.4-1.89 1.85-2.71 3-1.19 1.66.63 4.15 2.68 4.35s3.95-1 5.64-2.19c5.06-3.5 10.39-7.28 12.86-12.93 1-2.33 1.69-5.14 3.89-6.47a4.84 4.84 0 0 1 6.94 3.38c2.09-.8 5.23-1.17 5.94 1a10.31 10.31 0 0 1 .08 2.36c.19 3.23 4.27 5.27 4.26 8.5 0 3.72-5 4.93-8.71 5-3.38 0-6.76.07-10.15.13a9.22 9.22 0 0 0-4.31.73 3.25 3.25 0 0 0-1.78 3.67 9.78 9.78 0 0 0 1.46 2c2.35 3.14-.73 8.47-4.62 8-1.33-.15-2.56-.82-3.87-1.07-3.9-.73-7.51 2.27-9.88 5.46s-4.33 6.93-7.81 8.83c-5.59 3.07-14.17.93-17.46 6.41-1.32 2.21-1.19 4.93-1.17 7.51s-.2 5.38-2 7.25-5.58 1.74-6.33-.72a5.7 5.7 0 0 1 .33-3.28q1.67-5.31 3.29-10.63c.8-2.64 1.61-5.6.33-8-1.78-3.41-6.82-3.84-10.07-1.78s-5 5.76-6.34 9.34c-1 2.66-2.23 6.44-4.2 9.35a149.85 149.85 0 0 0-4.64 18.55 12.38 12.38 0 0 0 1.42-1c1.78-1.37 5.87-7.66 8.18-3.95a2.53 2.53 0 0 1-.39 3.07c-1 1-2.77 1-3.61 2.08-1 1.31-.14 3.23 1.05 4.36s2.72 2 3.46 3.45c1.41 2.83-.87 6.48.49 9.36 1.17 2.47 4.34 3.08 7 3.76l.91.29c1.54-5.29 4.7-9.31 12.29-9.91 10.48-.84 22.6 9.5 27.2 18 5.14 9.48 6.4 22 15.54 27.72 6.54 4.08 16.63 4.41 19.05 11.74 2.15 6.57-4.14 12.69-5.93 19.36-1.16 4.42-.34 9.09-.65 13.62s-2.41 9.61-6.78 10.91c-2.43.7-5.28.16-7.36 1.61-3.71 2.62-2 9.38-5.67 12-1.3.91-2.95 1.07-4.45 1.58-7.87 2.64-9.23 13.45-6.91 21.42l.26.84a156.43 156.43 0 0 0 76.27 33.43 155.72 155.72 0 0 0 75.29-7.58 158.08 158.08 0 0 0 36.36-18.79 150.15 150.15 0 0 0 13.54-10.58c3-2.61 5.93-5.37 8.74-8.21a110.3 110.3 0 0 0 4.2-4.48 153.56 153.56 0 0 0 25-36.85 152 152 0 0 0 9.62-25.53c1-3.42 1.85-6.89 2.6-10.41a9 9 0 0 1-6.62 1.87c-3.72-.6-6.33-4.16-7.33-7.8Z"/><path fill="#e0e0e0" d="M466.15 295.49c6.88-4.41 11.08-16 3.88-19.87-2.72-1.46-6.15-1.09-8.85-2.61-3.51-2-4.64-6.41-5.44-10.36l-6.31-31.11c-1.27-6.25-3.5-13.6-9.62-15.38-3.47-1-7.15.18-10.75.32-12.43.45-28.55-31.79-40.61-13.41-.51-5.54-9.52-4.79-13-.43s-5 10.58-9.86 13.24c-3.73 2-8.68 1.47-11.9 4.26-2.25 2-3 5.07-3.71 8l-3.85 16.71c-1 4.49-2.05 9.3-.37 13.59s7.24 7.35 11.05 4.76c1.75-1.19 2.72-3.23 4.22-4.72a8.88 8.88 0 0 1 9.5-1.81c2.64 1.12 4.54 3.47 6.18 5.84 13.3 19.24 15.45 44.22 12.8 67.46-.49 4.26-1.11 8.61-.12 12.78 1.16 4.88 4.47 9.17 4.9 14.17.33 3.84-1.08 7.81 0 11.5 2 6.81 11.77 8.5 17.77 4.7s8.91-10.91 11-17.7 3.85-14 8.58-19.29c2.93-3.28 6.9-5.67 9.17-9.44 3.17-5.28 2.38-12.19 5.39-17.56 4.01-7.13 13.07-9.24 19.95-13.64ZM313.83 290.1c-2.42-7.33-12.51-7.66-19.05-11.74-9.14-5.7-10.4-18.24-15.54-27.72-4.6-8.47-16.72-18.81-27.2-18-7.59.6-10.75 4.62-12.29 9.91l-.91-.29c-2.68-.68-5.85-1.29-7-3.76-1.36-2.88.92-6.53-.49-9.36-.74-1.48-2.27-2.3-3.46-3.45s-2.06-3.05-1.05-4.36c.84-1.1 2.59-1.1 3.61-2.08a2.53 2.53 0 0 0 .39-3.07c-2.31-3.71-6.4 2.58-8.17 3.95a13.36 13.36 0 0 1-1.43 1 8 8 0 0 0-.17.85c-.17.91-.3 1.85-.46 2.79s-.31 1.85-.45 2.78c-.11.76-.19 1.52-.29 2.28s-.21 1.52-.29 2.27c-.05.37-.1.71-.13 1.08a156.12 156.12 0 0 0 2.74 50.57 151.53 151.53 0 0 0 6.53 21.67 148.76 148.76 0 0 0 9.14 19.79c1.82 3.37 3.79 6.68 5.91 9.89a154 154 0 0 0 9.3 12.9q4.43 5.52 9.35 10.61c-4.85-22.42-9.21-45.2-19.35-65.6 10.14 20.4 14.5 43.18 19.35 65.6 1.39 1.48 2.81 2.89 4.26 4.27q1.71 1.66 3.47 3.26a134.7 134.7 0 0 0 6.16 5.27l-.26-.84c-2.32-8-1-18.78 6.91-21.42 1.5-.51 3.15-.67 4.45-1.58 3.71-2.62 2-9.38 5.67-12 2.08-1.45 4.93-.91 7.36-1.61 4.37-1.3 6.45-6.35 6.78-10.91s-.51-9.2.65-13.62c1.82-6.64 8.13-12.76 5.96-19.33Zm-77.7-42.1c.82.21 1.65.4 2.48.56l-2.48-.56Zm2.2 2.93c-.26 2.38-.5 4.81-.87 7.13.37-2.34.61-4.77.87-7.15Zm-12.94-14.57c2.12 1.83 4 4 4.11 6.68-.07-2.66-1.99-4.87-4.11-6.7Zm4.17 9a2.85 2.85 0 0 1-.08-1.69 2.85 2.85 0 0 0 .08 1.69 1.94 1.94 0 0 0 .95.78 1.94 1.94 0 0 1-.95-.78Zm5.84 20.54a23.82 23.82 0 0 0-.93 5.34 21.4 21.4 0 0 0 1.89 8.85 21.4 21.4 0 0 1-1.89-8.85 23.82 23.82 0 0 1 .93-5.34Zm1.25 14.85ZM236.4 183.91c3.25-2.06 8.29-1.63 10.07 1.78 1.28 2.44.47 5.4-.33 8q-1.63 5.31-3.29 10.63a5.7 5.7 0 0 0-.33 3.28c.75 2.46 4.59 2.57 6.33.72s2-4.69 2-7.25-.15-5.3 1.17-7.51c3.29-5.48 11.87-3.34 17.46-6.41 3.48-1.9 5.45-5.64 7.81-8.83s6-6.19 9.88-5.46c1.31.25 2.54.92 3.87 1.07 3.89.43 7-4.9 4.62-8a9.78 9.78 0 0 1-1.46-2 3.25 3.25 0 0 1 1.78-3.67 9.22 9.22 0 0 1 4.31-.73c3.39-.06 6.77-.09 10.15-.13 3.74 0 8.69-1.25 8.71-5 0-3.23-4.07-5.27-4.26-8.5a10.31 10.31 0 0 0-.08-2.36c-.71-2.16-3.85-1.79-5.94-1a4.84 4.84 0 0 0-6.94-3.38c-2.2 1.33-2.85 4.14-3.89 6.47-2.47 5.65-7.8 9.43-12.86 12.93-1.69 1.16-3.59 2.38-5.64 2.19s-3.87-2.69-2.68-4.35c.82-1.13 2.68-1.58 2.71-3 0-1.75-3-2.06-3.35-3.79 1.87-4.68 7.73-5.89 12.37-7.87a26.89 26.89 0 0 0 13.25-12.2 3.55 3.55 0 0 0 .56-2.82c-.46-1.32-2.08-1.75-3.47-2-3.28-.53-7.44-.68-9.08 2.21-.88 1.55-.68 3.48-1.32 5.14-1.89 4.93-9 4.49-13.66 6.91-1.84.93-3.38 2.39-5.35 3-2.12.67-4.44.26-6.67.11-.39 0-.79 0-1.19-.05-1.62 1.68-3.2 3.41-4.73 5.17s-3 3.56-4.48 5.39a154.68 154.68 0 0 0-17.77 28q-2.6 5.24-4.79 10.71t-4 11.16c2-2.91 3.22-6.69 4.2-9.35 1.32-3.45 3.08-7.12 6.31-9.21Z"/><path fill="#e0e0e0" d="M530.13 270.26q.47-3.35.76-6.67t.44-6.64c.09-1.79.14-3.56.15-5.34v-5.6a150.14 150.14 0 0 0-1.29-16.61c-.28-2.1-.61-4.2-1-6.28s-.77-4.15-1.22-6.22q-.86-2.37-1.9-4.7c-6.63-14.87-17.59-27.37-25.16-41.78-2.48-4.69-4.37-8.54-9.72-10.16-7.9-2.42-12.67 1.59-17.29-6.91-1.25-2.28-3.67-4.58-6.12-3.69l1.07 5.21a2.46 2.46 0 0 1 0 1.11c-.29 1.14-2.05 1.21-2.94.43a10.42 10.42 0 0 1-1.76-3.08 8 8 0 0 0-11.5-2.64 4.5 4.5 0 0 0-2.05-4 5.38 5.38 0 0 1-7.29 3.32c-.25-1.56 2.46-1.45 3.58-2.59s.24-2.89-.72-4a17.17 17.17 0 0 0-10.06-5.69c-2.47-.4-5.21-.33-7.18-1.91-1.14-.92-1.85-2.27-3-3.17-2.5-1.93-6.11-1-9.08.12-4.05 1.54-8.3 3.6-10.21 7.5s.23 9.82 4.57 9.92c1.1 0 2.3-.34 3.31.11 1.46.63 1.89 2.5 1.79 4.08s-.52 3.21 0 4.69 2.67 2.49 3.72 1.31c2.28-1.62 2.5-4.86 2.38-7.66s-.22-5.94 1.73-7.93 6.51-.61 5.8 2.09c-.43 1.59-2.44 2.5-2.6 4.15s1.74 2.85 3.41 3 3.46-.17 5 .48 2.58 3 1.23 4c-2.37 2-7.09-2.7-8.56 0-.4.69-.23 1.57-.41 2.34-.55 2.38-3.69 2.82-6.13 2.77s-5-.2-7.06-1.55-3.12-4.43-1.57-6.3c-1.1-1.06-3.09-.45-3.95.83a8 8 0 0 0-.91 4.42c-2.47-.93-5.06.89-6.82 2.82s-3.54 4.24-6.12 4.64-5.9-1.13-7.52.94c-2.12 2.7 2.25 7.13.11 9.8-1.22 1.5-3.57 1.11-5.5 1.36-5.13.68-7.89 7.64-5.09 12s9.55 5.09 13.64 1.93c2.84-2.17 4.36-5.58 6.59-8.36s6-5 9.24-3.54a10.48 10.48 0 0 1 3.19 2.71c1.44 1.61 2.88 3.22 4.32 4.86.93 1 1.92 2.3 1.63 3.66-.26 1.09-1.24 1.82-1.76 2.8-1.46 2.82 2.42 6.25 5.35 5s3.83-5.33 2.36-8.15c-2-3.89-7.55-6.49-6.77-10.83 3.29-2 7.56 1.21 8.78 4.87s.7 7.66 1.64 11.37 4.53 7.44 8.16 6.21c-.45-3.17-.87-6.3-1.31-9.45 2.39-1.3 4.18 3.76 6.87 3.35 1.64-.26 2.16-2.49 1.69-4.11s-1.48-3.07-1.54-4.75c-.05-3.06 3.67-5.25 6.61-4.33s4.69 4.11 4.82 7.16a14.1 14.1 0 0 0 .28 3.62c.79 2.51 3.6 3.64 5.86 5s4.43 4.12 3.08 6.38c-.62 1-1.86 1.83-1.63 3s1.59 1.63 1.44 2.66c-.12.68-.9 1-1.57 1.22-1.72.43-3.51.39-5.19.93s-3.32 1.82-3.45 3.55c-.15 2.48 2.59 4.08 3.67 6.31s.48 4.68 1 7c.49 2.15 1.88 4 2.93 5.91 3.26 6.13 3.19 13.4 4.22 20.25.46 3.1 1.6 6.64 4.55 7.64a9.42 9.42 0 0 0 5-.24c4.64-1.11 9.47-2.31 13.05-5.42s5.48-8.8 2.82-12.76a2.51 2.51 0 0 0-1.36-1.17 4.61 4.61 0 0 0-2.42.47c-2.38.71-5-.54-6.62-2.46a19.25 19.25 0 0 1-3.19-6.69l-2.57-7.85c1.63-1 3.86-.17 5.18 1.25s1.95 3.28 2.94 4.93c3 5.09 8.71 8 14.42 9.49a14.92 14.92 0 0 1 4.23 1.54c4 2.61 4.37 9.19 8.76 11.23 1.22.57 2.65.7 3.77 1.44 1.69 1.12 2.3 3.31 2.56 5.33.48 3.74.27 7.59 1.3 11.25s3.61 7.2 7.33 7.79a9 9 0 0 0 6.62-1.87c.68-3.35 1.3-6.72 1.79-10.15.24-.87.32-1.56.37-2.3ZM458.49 325.6c-2.37.12-3 1.41-4.53 2.93-2 2-4.62 3.88-6.42 5.86-3.06 3.36-1.63 9.5-5.4 12.15a26.36 26.36 0 0 0-2.4 1.45 3.94 3.94 0 0 0 0 5.52 5.34 5.34 0 0 0 5.75.94 8.54 8.54 0 0 0 4.24-4.32c.64-1.34 1.12-2.89 2.36-3.7 2.14-1.39 4.91.27 7.46.28 10.84.05 9.32-21.64-1.06-21.11Z"/><path fill="#c53f3f" d="M49 185.2c.21 2.47-2.35 3.72-4.14 3.59a10.45 10.45 0 0 1-4.86-2.18c-3.38-2.3-6.88-4.74-8.79-8.35a6.68 6.68 0 0 1-.9-3.5 3.47 3.47 0 0 1 1.84-3c1.31-.61 2.85-.11 4.17.49a28.57 28.57 0 0 1 10 7.66A9.91 9.91 0 0 1 49 185.2"/><path d="M49 185.2c.21 2.47-2.35 3.72-4.14 3.59a10.45 10.45 0 0 1-4.86-2.18c-3.38-2.3-6.88-4.74-8.79-8.35a6.68 6.68 0 0 1-.9-3.5 3.47 3.47 0 0 1 1.84-3c1.31-.61 2.85-.11 4.17.49a28.57 28.57 0 0 1 10 7.66A9.91 9.91 0 0 1 49 185.2" opacity=".2"/><path fill="#c53f3f" d="M51.44 196.54a12.34 12.34 0 0 0-6.44 4.17 6.39 6.39 0 0 0-1.83 3.72 2.72 2.72 0 0 0 2.38 2.94 3.68 3.68 0 0 0 2.22-1.06c1.55-1.32 3.05-3 5.07-3.12 1.16-.06 2.37.44 3.43 0a2.61 2.61 0 0 0 1.4-2.82 4.51 4.51 0 0 0-1.85-2.74 5 5 0 0 0-4.38-1.09ZM53.84 184.94a7.41 7.41 0 0 1-5.24-4.51 13.11 13.11 0 0 1-.63-7.08 21.74 21.74 0 0 1 2.84-7.9A7.72 7.72 0 0 1 53 163a3.43 3.43 0 0 1 3.16-.47c1.51.63 2.07 2.45 2.38 4.06a55.1 55.1 0 0 1 1 8.59c.07 2.32 0 4.76-1.16 6.78s-2.94 3.39-4.78 3"/><path fill="#263238" d="M68.65 208.76a4.63 4.63 0 0 1-.69-.63l-1.8-1.78a36 36 0 0 0-2.8-2.49 28.5 28.5 0 0 0-3.83-2.5 15.8 15.8 0 0 0-4.24-1.62 8.23 8.23 0 0 0-3.67 0 7.77 7.77 0 0 0-2.3.94 5 5 0 0 1-.79.49 3.71 3.71 0 0 1 .71-.61 7.29 7.29 0 0 1 2.32-1.09 8.4 8.4 0 0 1 3.8-.08 15.59 15.59 0 0 1 4.35 1.61 27.05 27.05 0 0 1 3.87 2.56 31.7 31.7 0 0 1 2.77 2.57c.75.78 1.32 1.43 1.72 1.88a4.2 4.2 0 0 1 .58.75Z"/><path fill="#263238" d="M67.28 207.38a1.89 1.89 0 0 1-.3-.32l-.78-.94c-.68-.83-1.66-2-2.92-3.44-2.5-2.87-6.11-6.7-10.29-10.74s-8.15-7.5-11.12-9.88l-2-1.59c-.58-.46-1.11-.86-1.55-1.17l-1-.73a1.79 1.79 0 0 1-.33-.28 1.54 1.54 0 0 1 .37.21l1 .68c.45.29 1 .68 1.59 1.12s1.3 1 2.05 1.55a139.93 139.93 0 0 1 11.23 9.81c4.18 4.05 7.77 7.92 10.22 10.84a87.8 87.8 0 0 1 2.84 3.52l.72 1a1.46 1.46 0 0 1 .27.36Z"/><path fill="#263238" d="M60.76 199.57a9.27 9.27 0 0 1-.81-1 34.22 34.22 0 0 1-1.95-2.91 47.54 47.54 0 0 1-2.33-4.66 44.29 44.29 0 0 1-2.19-6 31.85 31.85 0 0 1-1.4-11.41 14.49 14.49 0 0 1 .26-2c0-.29.08-.56.14-.81l.19-.66a8.31 8.31 0 0 1 .38-1.22 38.68 38.68 0 0 0-.7 4.69A33.66 33.66 0 0 0 53.84 185a47.34 47.34 0 0 0 2.16 5.9 50.09 50.09 0 0 0 2.27 4.62 64.9 64.9 0 0 0 1.8 3 6.9 6.9 0 0 1 .69 1.05Z"/><path fill="#c53f3f" d="M419.54 268.85a8 8 0 0 1 1.71 6 14.09 14.09 0 0 1-2.26 6c-2.2 3.52-6.12 6.26-9.82 8.14-1.82-4.24-.25-9.35.71-11.89 1.51-4 6.69-10.37 9.66-8.23M409.87 296.85a6.81 6.81 0 0 1 4.79-4.89 9.05 9.05 0 0 1 6.92 1 3.78 3.78 0 0 1 2.07 2.45 2.9 2.9 0 0 1-1.23 2.69 5.86 5.86 0 0 1-2.91 1c-3.53.4-7 .14-9.64-2.25"/><path fill="#263238" d="M400.38 306.32a5.32 5.32 0 0 1 .48-.71l1.37-1.88a23.58 23.58 0 0 1 5.3-5.57 14.64 14.64 0 0 1 7.14-2.76 9.8 9.8 0 0 1 2.34.07c.28 0 .48.1.63.13a.51.51 0 0 1 .21.07 14.9 14.9 0 0 0-3.16-.06 15.13 15.13 0 0 0-7 2.79 25.62 25.62 0 0 0-5.3 5.46c-.61.77-1.1 1.4-1.45 1.82a4.09 4.09 0 0 1-.56.64Z"/><path fill="#263238" d="M416 274a1.7 1.7 0 0 1-.12.35l-.41 1a387.57 387.57 0 0 1-6.98 15.32 357.8 357.8 0 0 1-7.71 14.96l-.53.93a1.28 1.28 0 0 1-.2.31 1.64 1.64 0 0 1 .15-.34c.12-.25.28-.56.48-1 .43-.86 1-2 1.77-3.49 1.51-2.94 3.56-7 5.76-11.55s4.14-8.68 5.52-11.68l1.64-3.55.45-1a1.65 1.65 0 0 1 .18-.26Z"/><path fill="#c53f3f" d="M403.36 296.51a16 16 0 0 0-2.79-14.3c-.81-1-2-2-3.25-1.62s-1.71 1.86-1.81 3.14a13.61 13.61 0 0 0 7.63 13"/><path fill="#263238" d="M399.38 286a4 4 0 0 1 .53.61 8.92 8.92 0 0 1 .56.76c.19.31.45.65.67 1.06a13 13 0 0 1 .69 1.35 14.19 14.19 0 0 1 .66 1.61 18 18 0 0 1 .85 3.9 17.46 17.46 0 0 1-.13 4 13.38 13.38 0 0 1-.36 1.7 13 13 0 0 1-.47 1.45c-.14.44-.34.81-.48 1.15a7.84 7.84 0 0 1-.44.84 5.58 5.58 0 0 1-.42.68c-.06 0 .54-1 1.14-2.74a13.8 13.8 0 0 0 .43-1.44c.14-.52.23-1.09.33-1.68a18.12 18.12 0 0 0 .1-3.93 18.72 18.72 0 0 0-.81-3.84 17.25 17.25 0 0 0-1.28-2.95c-.88-1.63-1.62-2.53-1.57-2.53Z"/><path fill="#c53f3f" d="M231.86 346.24a2.74 2.74 0 0 0 4.83-.18l6.67-13.87c2.43-5.46 2.34-8.51 2.34-8.51.05-8.41-8.7-13.8-17.72-9.76a10.1 10.1 0 0 0-4.39 3.65c-3 4.62-2.05 10.12.14 14.63Zm5.55-15.32c-6.56 3.77-13.15-3.29-9.53-10.21a5.45 5.45 0 0 1 2.09-2.19c6.56-3.77 13.15 3.29 9.53 10.21a5.51 5.51 0 0 1-2.09 2.19ZM523.2 139.09a2.73 2.73 0 0 0 4.83-.18L534.7 125c2.43-5.46 2.34-8.51 2.34-8.51.05-8.4-8.7-13.79-17.72-9.75a10.06 10.06 0 0 0-4.39 3.64c-3 4.62-2 10.12.15 14.63Zm5.55-15.32c-6.56 3.77-13.15-3.29-9.53-10.21a5.45 5.45 0 0 1 2.09-2.19c6.56-3.77 13.15 3.3 9.53 10.21a5.45 5.45 0 0 1-2.09 2.19ZM591.75 318.21a2.73 2.73 0 0 0 4.83-.19l6.67-13.87c2.43-5.46 2.34-8.51 2.34-8.51 0-8.4-8.7-13.79-17.72-9.75a10.14 10.14 0 0 0-4.39 3.64c-3 4.63-2.06 10.12.14 14.64Zm5.55-15.32c-6.56 3.77-13.15-3.3-9.53-10.21a5.38 5.38 0 0 1 2.09-2.19c6.56-3.77 13.15 3.29 9.52 10.21a5.42 5.42 0 0 1-2.08 2.19ZM130.29 178.25a2.73 2.73 0 0 0 4.83-.19l6.68-13.87c2.42-5.46 2.33-8.51 2.33-8.51.05-8.4-8.7-13.79-17.72-9.75a10.13 10.13 0 0 0-4.39 3.64c-3 4.63-2 10.12.15 14.64Zm5.55-15.32c-6.56 3.76-13.15-3.3-9.53-10.21a5.54 5.54 0 0 1 2.09-2.2c6.56-3.76 13.15 3.3 9.53 10.22a5.45 5.45 0 0 1-2.09 2.19ZM231.51 301.65c.14 0 .1.71-.09 1.52s-.46 1.44-.59 1.4-.1-.71.09-1.52.45-1.43.59-1.4ZM233.32 289.78a17.34 17.34 0 0 1-.72 6 8.9 8.9 0 0 1 .1-3 8.8 8.8 0 0 1 .62-3ZM233.63 277.77a8.7 8.7 0 0 1 .28 3 9.09 9.09 0 0 1-.25 3 8.57 8.57 0 0 1-.27-3 9.17 9.17 0 0 1 .24-3ZM232.5 265.81a9.08 9.08 0 0 1 .63 2.95 8.52 8.52 0 0 1 .11 3 9.26 9.26 0 0 1-.63-2.95 8.84 8.84 0 0 1-.11-3ZM229.94 254.07a17.43 17.43 0 0 1 1.45 5.83 17.28 17.28 0 0 1-1.45-5.83ZM226 242.72a9 9 0 0 1 1.31 2.72 9.12 9.12 0 0 1 .83 2.9 8.89 8.89 0 0 1-1.32-2.72 8.53 8.53 0 0 1-.82-2.9ZM220.7 231.94a8.85 8.85 0 0 1 1.64 2.54 9.19 9.19 0 0 1 1.18 2.77 17.39 17.39 0 0 1-2.82-5.31ZM214.09 221.92a7.6 7.6 0 0 1 2 2.29 8.86 8.86 0 0 1 1.5 2.62 9.25 9.25 0 0 1-1.93-2.32 10.6 10.6 0 0 1-1.57-2.59ZM206.38 212.71c.11-.1 1.08.83 2.18 2.08a8.9 8.9 0 0 1 1.79 2.43 9.13 9.13 0 0 1-2.18-2.08 9.26 9.26 0 0 1-1.79-2.43ZM197.86 204.24a9 9 0 0 1 2.35 1.88 8.92 8.92 0 0 1 2 2.26 8.61 8.61 0 0 1-2.35-1.88 8.79 8.79 0 0 1-2-2.26ZM188.66 196.51a18 18 0 0 1 4.68 3.77 8.92 8.92 0 0 1-2.5-1.68 8.81 8.81 0 0 1-2.18-2.09ZM178.85 189.58a17.08 17.08 0 0 1 5 3.36 8.86 8.86 0 0 1-2.63-1.47 8.74 8.74 0 0 1-2.37-1.89ZM168.45 183.56a9 9 0 0 1 2.76 1.21 8.84 8.84 0 0 1 2.51 1.67 8.83 8.83 0 0 1-2.76-1.21 8.73 8.73 0 0 1-2.51-1.67ZM157.46 178.69a8.59 8.59 0 0 1 2.88.89A8.8 8.8 0 0 1 163 181a9 9 0 0 1-2.88-.89 9.46 9.46 0 0 1-2.66-1.42ZM145.94 175.32a8.73 8.73 0 0 1 3 .48 9.2 9.2 0 0 1 2.85 1 8.65 8.65 0 0 1-3-.48 8.86 8.86 0 0 1-2.85-1Z"/><path fill="#c53f3f" d="M137 174.11c0-.14.69-.2 1.52-.13s1.49.24 1.47.39-.7.2-1.52.13-1.47-.25-1.47-.39Z"/><path fill="#c53f3f" d="M139 171.85c.11.1-.25.68-.79 1.3s-1.07 1-1.18 1 .25-.68.79-1.3 1.06-1.1 1.18-1ZM147.43 163.51a16.73 16.73 0 0 1-4.34 4.05c-.11-.11.79-1.1 2-2.22a9.11 9.11 0 0 1 2.34-1.83ZM156.77 156.2a16.74 16.74 0 0 1-4.77 3.53 8.57 8.57 0 0 1 2.23-2 8.88 8.88 0 0 1 2.54-1.53ZM166.84 149.93a17.22 17.22 0 0 1-5.11 3 8.39 8.39 0 0 1 2.42-1.73 8.94 8.94 0 0 1 2.69-1.27ZM177.46 144.67a8.36 8.36 0 0 1-2.57 1.49 8.76 8.76 0 0 1-2.8 1 8.57 8.57 0 0 1 2.58-1.49 8.84 8.84 0 0 1 2.79-1ZM188.52 140.37a8.56 8.56 0 0 1-2.7 1.27 8.76 8.76 0 0 1-2.87.77 8.27 8.27 0 0 1 2.69-1.26 8.78 8.78 0 0 1 2.88-.78ZM199.89 137a16.79 16.79 0 0 1-5.72 1.59 8.59 8.59 0 0 1 2.79-1 8.84 8.84 0 0 1 2.93-.59ZM211.48 134.44a17.08 17.08 0 0 1-5.82 1.17 8.6 8.6 0 0 1 2.86-.84 8.81 8.81 0 0 1 2.96-.33ZM223.21 132.7a17.17 17.17 0 0 1-5.88.77 8.69 8.69 0 0 1 2.91-.64 8.55 8.55 0 0 1 2.97-.13ZM235 131.72a8.86 8.86 0 0 1-2.95.46 8.59 8.59 0 0 1-3-.07 8.79 8.79 0 0 1 2.94-.45 8.5 8.5 0 0 1 3.01.06ZM246.9 131.46a8.51 8.51 0 0 1-3 .28 8.79 8.79 0 0 1-3-.24 8.67 8.67 0 0 1 3-.28 8.83 8.83 0 0 1 3 .24ZM258.76 131.91a8.63 8.63 0 0 1-3 .11 8.94 8.94 0 0 1-2.95-.42 8.76 8.76 0 0 1 3-.1 8.66 8.66 0 0 1 2.95.41ZM270.57 133.07a8.71 8.71 0 0 1-3-.08 8.44 8.44 0 0 1-2.92-.59 8.68 8.68 0 0 1 3 .08 8.44 8.44 0 0 1 2.92.59ZM282.29 134.92a8.73 8.73 0 0 1-3-.25 8.88 8.88 0 0 1-2.88-.76 8.45 8.45 0 0 1 3 .25 8.88 8.88 0 0 1 2.88.76ZM293.87 137.5a9.38 9.38 0 0 1-2.94-.44 8.71 8.71 0 0 1-2.83-.94 8.63 8.63 0 0 1 2.95.43 8 8 0 0 1 2.82.95ZM305.22 141a8.43 8.43 0 0 1-2.9-.67 8.66 8.66 0 0 1-2.74-1.18 8.68 8.68 0 0 1 2.9.68 8.78 8.78 0 0 1 2.74 1.17ZM316.23 145.37a8.84 8.84 0 0 1-2.83-.93 8.55 8.55 0 0 1-2.63-1.4 17.38 17.38 0 0 1 5.46 2.33ZM326.84 150.68a8.93 8.93 0 0 1-2.75-1.15 8.59 8.59 0 0 1-2.5-1.62 8.62 8.62 0 0 1 2.74 1.16 8.42 8.42 0 0 1 2.51 1.61ZM337 156.83a8.87 8.87 0 0 1-2.64-1.37 8.68 8.68 0 0 1-2.36-1.81 8.83 8.83 0 0 1 2.64 1.37 8.48 8.48 0 0 1 2.36 1.81ZM346.6 163.76a8.54 8.54 0 0 1-2.53-1.57 8.69 8.69 0 0 1-2.22-2 8.54 8.54 0 0 1 2.53 1.57 8.68 8.68 0 0 1 2.22 2ZM355.66 171.43a9 9 0 0 1-2.4-1.77c-1.23-1.08-2.15-2-2.05-2.15a8.85 8.85 0 0 1 2.4 1.76c1.23 1.09 2.15 2.05 2.05 2.16ZM364.1 179.76a8.75 8.75 0 0 1-2.25-1.94 8.46 8.46 0 0 1-1.89-2.31 8.8 8.8 0 0 1 2.26 2 8.67 8.67 0 0 1 1.88 2.25ZM371.88 188.72a8.68 8.68 0 0 1-2.1-2.11 8.59 8.59 0 0 1-1.7-2.44c.11-.1 1.05.85 2.1 2.11a8.75 8.75 0 0 1 1.7 2.44ZM378.94 198.26A8.87 8.87 0 0 1 377 196a8.75 8.75 0 0 1-1.51-2.57 8.8 8.8 0 0 1 1.94 2.27 8.57 8.57 0 0 1 1.51 2.56ZM385.24 208.32a16.9 16.9 0 0 1-3.05-5.09 8.47 8.47 0 0 1 1.75 2.41 8.35 8.35 0 0 1 1.3 2.68ZM390.72 218.84a16.91 16.91 0 0 1-2.63-5.31 16.91 16.91 0 0 1 2.63 5.31ZM395.32 229.77a8.69 8.69 0 0 1-1.34-2.66 8.8 8.8 0 0 1-.85-2.85 8.64 8.64 0 0 1 1.34 2.66 8.87 8.87 0 0 1 .85 2.85ZM399 241.05a8.67 8.67 0 0 1-1.11-2.77 9 9 0 0 1-.61-2.91 8.56 8.56 0 0 1 1.11 2.76 8.77 8.77 0 0 1 .61 2.92ZM401.11 249.78c-.14 0-.39-.6-.57-1.41s-.21-1.48-.07-1.52.4.6.58 1.41.21 1.49.06 1.52ZM406.92 239.11c.13 0 .08.71-.12 1.51s-.48 1.43-.62 1.39-.09-.71.12-1.51.48-1.43.62-1.39ZM410.21 227.13a9.39 9.39 0 0 1-.6 3.06 9.67 9.67 0 0 1-1.1 2.91 18.78 18.78 0 0 1 1.7-6ZM414 215.32a9.35 9.35 0 0 1-.75 3 9 9 0 0 1-1.25 2.88 18.82 18.82 0 0 1 2-5.88ZM418.55 203.76a9.07 9.07 0 0 1-.93 3 9.65 9.65 0 0 1-1.42 2.78 9.07 9.07 0 0 1 .93-3 9.94 9.94 0 0 1 1.42-2.78ZM424 192.59a9.6 9.6 0 0 1-1.18 2.88 9.32 9.32 0 0 1-1.64 2.65 9.5 9.5 0 0 1 1.18-2.88 9.21 9.21 0 0 1 1.64-2.65ZM430.36 182a9.48 9.48 0 0 1-1.45 2.75 9.78 9.78 0 0 1-1.91 2.45 9 9 0 0 1 1.45-2.76 9.39 9.39 0 0 1 1.91-2.44Z"/><path fill="#e0e0e0" d="M437.89 172.11a9.59 9.59 0 0 1-1.75 2.57 9.39 9.39 0 0 1-2.16 2.25 9.47 9.47 0 0 1 1.75-2.57 9.13 9.13 0 0 1 2.16-2.25Z"/><path fill="#c53f3f" d="M446.54 163.22a9.46 9.46 0 0 1-2.05 2.34 9.57 9.57 0 0 1-2.41 2 18.76 18.76 0 0 1 4.46-4.31ZM456.21 155.45a9.16 9.16 0 0 1-2.32 2.08 9.49 9.49 0 0 1-2.63 1.66 9.61 9.61 0 0 1 2.32-2.08 9.81 9.81 0 0 1 2.63-1.66ZM466.79 149a9.71 9.71 0 0 1-2.57 1.75 9.48 9.48 0 0 1-2.83 1.31 9.46 9.46 0 0 1 2.57-1.76 9.12 9.12 0 0 1 2.83-1.3ZM478.05 143.78a9.62 9.62 0 0 1-2.75 1.46 9.44 9.44 0 0 1-2.95 1 9.43 9.43 0 0 1 2.75-1.47 9 9 0 0 1 2.95-.99ZM489.79 139.75a9.93 9.93 0 0 1-2.89 1.18 9.74 9.74 0 0 1-3 .68 9.07 9.07 0 0 1 2.89-1.18 9.2 9.2 0 0 1 3-.68ZM501.92 137.16a9.65 9.65 0 0 1-3 .8 9.39 9.39 0 0 1-3.1.28 18.37 18.37 0 0 1 6.11-1.08ZM514.3 136.8a12.66 12.66 0 0 1-3.1.06 12.22 12.22 0 0 1-3.1-.24 13.18 13.18 0 0 1 6.2.18ZM523.2 139.09c-.06.13-.73 0-1.49-.29s-1.35-.65-1.3-.79.71 0 1.49.3 1.36.69 1.3.78ZM409.45 252.77c0 .14-.55.47-1.33.74s-1.46.38-1.51.24.55-.46 1.34-.73 1.45-.38 1.5-.25ZM421.13 249.3a9.22 9.22 0 0 1-2.87 1.07 9 9 0 0 1-3 .56 9.55 9.55 0 0 1 2.86-1.07 9.07 9.07 0 0 1 3.01-.56ZM433 246.63a9.35 9.35 0 0 1-2.93.87 9.17 9.17 0 0 1-3 .36 17.93 17.93 0 0 1 6-1.23ZM445.06 244.78a9.42 9.42 0 0 1-3 .67 8.75 8.75 0 0 1-3.05.15 9.22 9.22 0 0 1 3-.67 8.81 8.81 0 0 1 3.05-.15ZM457.2 243.72a18.33 18.33 0 0 1-6.08.43 9.11 9.11 0 0 1 3-.48 9.46 9.46 0 0 1 3.08.05ZM469.38 243.47a9.37 9.37 0 0 1-3 .27 8.81 8.81 0 0 1-3-.25 9.32 9.32 0 0 1 3-.27 8.81 8.81 0 0 1 3 .25ZM481.56 244a9 9 0 0 1-3.06.08 9.2 9.2 0 0 1-3-.44 8.85 8.85 0 0 1 3-.08 9.23 9.23 0 0 1 3.06.44ZM493.68 245.33a8.91 8.91 0 0 1-3.06-.12 9.35 9.35 0 0 1-3-.64 17.85 17.85 0 0 1 6.05.76ZM505.69 247.45a9.48 9.48 0 0 1-3.05-.32 9.18 9.18 0 0 1-2.94-.84 9.44 9.44 0 0 1 3 .32 9.09 9.09 0 0 1 2.99.84ZM517.52 250.35a9.59 9.59 0 0 1-3-.52 9 9 0 0 1-2.88-1 17.75 17.75 0 0 1 5.89 1.55ZM529.14 254a8.8 8.8 0 0 1-3-.72 9.18 9.18 0 0 1-2.81-1.21 8.8 8.8 0 0 1 3 .72 9.17 9.17 0 0 1 2.81 1.21ZM540.48 258.47a8.87 8.87 0 0 1-2.91-.92 9 9 0 0 1-2.72-1.4 9.25 9.25 0 0 1 2.91.92 9.09 9.09 0 0 1 2.72 1.4ZM551.49 263.69a8.9 8.9 0 0 1-2.84-1.12A9.1 9.1 0 0 1 546 261a9.09 9.09 0 0 1 2.85 1.12 8.79 8.79 0 0 1 2.64 1.57ZM562.11 269.67a9.37 9.37 0 0 1-2.76-1.32 9.25 9.25 0 0 1-2.49-1.76 9 9 0 0 1 2.76 1.31 9.2 9.2 0 0 1 2.49 1.77ZM572.29 276.37a9.52 9.52 0 0 1-2.66-1.51 9 9 0 0 1-2.37-1.93 17.75 17.75 0 0 1 5 3.44ZM582 283.74a17.78 17.78 0 0 1-4.8-3.74 9.34 9.34 0 0 1 2.56 1.68 9.16 9.16 0 0 1 2.24 2.06ZM257 322.8c.14 0 0 .72-.21 1.5s-.57 1.39-.71 1.35 0-.71.21-1.51.56-1.39.71-1.34ZM261.41 311.86a8.62 8.62 0 0 1-.94 2.81 8.12 8.12 0 0 1-1.43 2.59 17.15 17.15 0 0 1 2.37-5.4ZM267 301.5a16.58 16.58 0 0 1-3 5.1 8.76 8.76 0 0 1 1.26-2.68 8.61 8.61 0 0 1 1.74-2.42ZM273.78 291.81a16.8 16.8 0 0 1-3.5 4.75 8.56 8.56 0 0 1 1.54-2.53 8.7 8.7 0 0 1 1.96-2.22ZM281.54 282.92a17.21 17.21 0 0 1-4 4.34 8.51 8.51 0 0 1 1.81-2.35 8.65 8.65 0 0 1 2.19-1.99ZM290.22 274.92a8.56 8.56 0 0 1-2.06 2.13 8.74 8.74 0 0 1-2.39 1.75c-.1-.11.82-1.06 2.05-2.14a8.6 8.6 0 0 1 2.4-1.74ZM299.72 267.93a8.48 8.48 0 0 1-2.28 1.89 8.6 8.6 0 0 1-2.57 1.47 8.63 8.63 0 0 1 2.28-1.9 8.42 8.42 0 0 1 2.57-1.46ZM310 262.05a8.74 8.74 0 0 1-2.48 1.63 8.34 8.34 0 0 1-2.72 1.16 8.71 8.71 0 0 1 2.48-1.62 9 9 0 0 1 2.72-1.17ZM320.79 257.41a17 17 0 0 1-5.49 2.16 8.78 8.78 0 0 1 2.65-1.32 8.45 8.45 0 0 1 2.84-.84ZM332.09 254a16.91 16.91 0 0 1-5.69 1.52 16.91 16.91 0 0 1 5.69-1.52ZM343.71 252a9 9 0 0 1-2.88.7 8.72 8.72 0 0 1-3 .18 8.67 8.67 0 0 1 2.88-.7 8.42 8.42 0 0 1 3-.18ZM355.48 251.14a8.86 8.86 0 0 1-2.94.38 8.35 8.35 0 0 1-3-.14 8.79 8.79 0 0 1 2.94-.38 8.29 8.29 0 0 1 3 .14ZM367.27 251.61a8.7 8.7 0 0 1-3 .06 8.52 8.52 0 0 1-2.93-.46 8.72 8.72 0 0 1 3-.06 8.52 8.52 0 0 1 2.93.46ZM378.94 253.37a16.64 16.64 0 0 1-5.81-1 8.66 8.66 0 0 1 2.95.27 8.43 8.43 0 0 1 2.86.73ZM390.34 256.42a8.54 8.54 0 0 1-2.9-.59 8.8 8.8 0 0 1-2.76-1.1 8.79 8.79 0 0 1 2.9.6 8.4 8.4 0 0 1 2.76 1.09ZM398.65 259.57c-.06.13-.72 0-1.49-.33s-1.34-.68-1.28-.82.71 0 1.48.33 1.35.69 1.29.82Z"/><path fill="#c53f3f" d="M397.92 272a2.73 2.73 0 0 0 4.83-.19l6.67-13.87c2.43-5.46 2.34-8.51 2.34-8.51.05-8.4-8.7-13.79-17.72-9.75a10.07 10.07 0 0 0-4.39 3.64c-3 4.63-2.06 10.12.14 14.64Zm5.55-15.32c-6.56 3.76-13.15-3.3-9.53-10.21a5.47 5.47 0 0 1 2.09-2.2c6.56-3.76 13.15 3.3 9.52 10.22a5.42 5.42 0 0 1-2.08 2.18Z"/></svg>
