<svg xmlns="http://www.w3.org/2000/svg" viewBox="0 0 750 500"><g id="freepik--background-complete--inject-6"><path d="M601.44,383s9.84.85,14.23,11.9c2.72,6.84,9.85,19.28,15.32,18l12.43-10.48A44.33,44.33,0,0,1,633,386.29c-3.19-9.25-16.26-17.21-16.26-17.21Z" style="fill:#f5f5f5"></path><path d="M630.47,386.52a7.77,7.77,0,0,1-4.31,10.93c-3.87,1.19-8.52-2.75-9.71-6.62a7.34,7.34,0,0,1,4.85-9.17C625.17,380.47,628.62,382.91,630.47,386.52Z" style="fill:#e0e0e0"></path><path d="M625.54,392.77a2.32,2.32,0,0,0,.19-.73,2.53,2.53,0,0,0,0-.73,3.59,3.59,0,0,0-.39-1.06c.92-.76,1.74-1.47,2.38-2.06.31.37.58.73.77,1,.31.42.51.66.62.62s.13-.36,0-.9a6.82,6.82,0,0,0-.63-1.47c.43-.44.65-.74.6-.81s-.37.08-.86.38c-.06-.09-.08-.16-.15-.26s-.25-.25-.37-.37c.53-.53.83-.89.77-1s-.51.17-1.19.62a3.57,3.57,0,0,0-.63-.4,3,3,0,0,0-2.29-.16,2.79,2.79,0,0,0-1.76,2,2.69,2.69,0,0,0-.06.75,2.46,2.46,0,0,0,.36,1.2c-.76.64-1.44,1.24-2,1.75-.19-.26-.36-.51-.51-.7-.3-.43-.52-.66-.63-.61s-.11.36,0,.89a6.14,6.14,0,0,0,.31,1s.07.1.09.15c-.6.58-.94,1-.87,1.06s.5-.16,1.15-.59a4,4,0,0,0,.34.58l.16.16c-.16.19-.24.33-.2.37s.19,0,.44-.13a3.29,3.29,0,0,0,1.07.72,2.55,2.55,0,0,0,1.14.21,2.58,2.58,0,0,0,1.24-.39A2.52,2.52,0,0,0,625.54,392.77Zm1.61-5.17s0,.06.07.08c-.67.48-1.48,1.1-2.34,1.8l-.19-.32-.05-.09c.76-.63,1.46-1.22,2-1.75A5.3,5.3,0,0,1,627.15,387.6Zm-2.22-.64a1.51,1.51,0,0,1,1.05,0c-.52.38-1.08.82-1.68,1.3a1,1,0,0,1,0-.44A1.24,1.24,0,0,1,624.93,387Zm-3.26,5.09c-.13-.12-.22-.25-.34-.38.58-.42,1.23-.92,1.94-1.48l.25.41c-.66.57-1.24,1.09-1.7,1.53C621.77,392.09,621.71,392.08,621.67,392.05Zm1.05.6a1.83,1.83,0,0,1-.3-.18c.44-.31.94-.68,1.49-1.11a1.92,1.92,0,0,1,.11.27,1.22,1.22,0,0,1,0,.26.72.72,0,0,1,0,.22.81.81,0,0,1-.29.38A1.09,1.09,0,0,1,622.72,392.65Z" style="fill:#f5f5f5"></path><path d="M624.36,407.52c-3.63-4.18-6.23-10.31-8.15-14.83-.47-1.13-.92-2.19-1.33-3.09-2.74-6-9.71-7.35-10.28-7.15l-.3-.42,12.08-10.44.15.07A30.33,30.33,0,0,1,632.66,390c1.62,5.55,8.3,11.86,8.37,11.92l.21.2-11.34,9.49-.15-.06A14.1,14.1,0,0,1,624.36,407.52Zm-10.83-20.95a11.9,11.9,0,0,1,1.82,2.82c.41.91.86,2,1.34,3.1,2.71,6.37,6.79,16,13.11,18.55l10.66-8.91c-1.18-1.15-6.78-6.77-8.3-11.95a29.79,29.79,0,0,0-15.69-18L605.19,382a9.55,9.55,0,0,1,1.45.31A15,15,0,0,1,613.53,386.57Z" style="fill:#e0e0e0"></path><path d="M404.74,394.46s-9.12,3.79-18.12-4c-5.57-4.8-17.64-12.55-21.9-8.88l-6.18,15a44.41,44.41,0,0,1,16.67,9.45c7.1,6.73,22.37,7.75,22.37,7.75Z" style="fill:#f5f5f5"></path><path d="M377.35,404.72A7.77,7.77,0,0,1,376.12,393c2.89-2.84,8.83-1.49,11.67,1.39a7.33,7.33,0,0,1-.07,10.37C384.84,407.64,380.65,407.07,377.35,404.72Z" style="fill:#e0e0e0"></path><path d="M378.83,396.9a2.41,2.41,0,0,0,.17.74,2.79,2.79,0,0,0,.36.63,3.84,3.84,0,0,0,.84.75c-.47,1.1-.86,2.11-1.15,2.94-.45-.19-.86-.38-1.16-.53-.46-.24-.75-.36-.83-.27s.05.38.41.8a6.07,6.07,0,0,0,1.23,1c-.17.59-.24,1-.15,1s.29-.24.58-.74c.1,0,.15.11.26.16a3.66,3.66,0,0,0,.5.16c-.23.72-.33,1.18-.24,1.22s.38-.39.77-1.1a3.57,3.57,0,0,0,.74.07,3,3,0,0,0,2.11-.92,2.78,2.78,0,0,0,.64-2.57,2.36,2.36,0,0,0-.29-.7,3.51,3.51,0,0,0-.44-.56,4.12,4.12,0,0,0-.43-.33c.38-.92.71-1.76,1-2.48l.77.38c.48.24.77.34.85.25s-.07-.37-.43-.78a5.39,5.39,0,0,0-.72-.7s-.1-.06-.14-.09c.26-.79.37-1.31.28-1.35s-.37.37-.75,1.06a3.2,3.2,0,0,0-.58-.36l-.21-.07c0-.25.06-.4,0-.42s-.17.09-.33.32a3.47,3.47,0,0,0-1.28-.15,2.73,2.73,0,0,0-1.11.34,2.61,2.61,0,0,0-.92.92A2.49,2.49,0,0,0,378.83,396.9Zm1,5.33-.11,0c.38-.74.81-1.66,1.25-2.68l.32.2.07.05c-.38.91-.72,1.76-1,2.5A4.75,4.75,0,0,1,379.8,402.23Zm2.26-.46a1.59,1.59,0,0,1-.93.5c.28-.58.58-1.23.89-1.94a1.27,1.27,0,0,1,.25.37A1.24,1.24,0,0,1,382.06,401.77Zm.54-6c.17.05.31.12.47.18-.31.64-.66,1.38-1,2.21l-.42-.25c.33-.81.61-1.54.81-2.14Zm-1.21-.05a2.11,2.11,0,0,1,.35,0c-.25.48-.52,1-.81,1.67a1.42,1.42,0,0,1-.22-.18,1.43,1.43,0,0,1-.15-.22.6.6,0,0,1-.06-.22.7.7,0,0,1,.08-.46A1.06,1.06,0,0,1,381.39,395.7Z" style="fill:#f5f5f5"></path><path d="M373.06,383.27c5.15,2,10.29,6.27,14.08,9.39.94.78,1.83,1.51,2.61,2.12,5.2,4.06,12,2,12.42,1.6l.46.23-5.89,14.84h-.16a30.29,30.29,0,0,1-22.8-8.85c-4-4.17-12.84-6.68-12.93-6.7l-.28-.08,5.68-13.65.16,0A14,14,0,0,1,373.06,383.27Zm19.29,13.58a12.16,12.16,0,0,1-2.92-1.66c-.78-.61-1.67-1.35-2.61-2.13-5.35-4.4-13.41-11.05-20.21-10.4l-5.34,12.84c1.58.46,9.15,2.86,12.89,6.76A29.77,29.77,0,0,0,396.38,411l5.5-13.85a9.82,9.82,0,0,1-1.43.39A15,15,0,0,1,392.35,396.85Z" style="fill:#e0e0e0"></path><path d="M689.19,126.61s-8.27,3.44-16.43-3.62c-5-4.36-16-11.38-19.87-8l-5.61,13.64a40.26,40.26,0,0,1,15.12,8.57c6.45,6.11,20.3,7,20.3,7Z" style="fill:#f5f5f5"></path><path d="M664.35,135.91a7,7,0,0,1-1.12-10.6c2.62-2.58,8-1.36,10.59,1.26a6.66,6.66,0,0,1-.06,9.41C671.14,138.56,667.34,138,664.35,135.91Z" style="fill:#e0e0e0"></path><path d="M665.69,128.81a2.31,2.31,0,0,0,.15.68,2.92,2.92,0,0,0,.33.57,3.22,3.22,0,0,0,.77.68c-.43,1-.79,1.92-1.06,2.66-.4-.16-.77-.34-1-.48-.42-.21-.68-.32-.76-.24s0,.34.37.73a6,6,0,0,0,1.13.92c-.16.53-.22.87-.14.9s.26-.22.52-.67c.09.05.14.1.24.15a3,3,0,0,0,.45.14c-.21.65-.3,1.07-.21,1.1s.34-.34.69-1a3,3,0,0,0,.68.06,2.65,2.65,0,0,0,1.91-.83,2.54,2.54,0,0,0,.58-2.34,2.26,2.26,0,0,0-.26-.62,3.1,3.1,0,0,0-.4-.52,3.47,3.47,0,0,0-.4-.3c.35-.83.65-1.6.89-2.25.26.13.5.26.7.35.43.22.7.31.76.22s-.06-.33-.38-.7a5.66,5.66,0,0,0-.65-.64l-.14-.08c.24-.72.34-1.18.26-1.22s-.34.33-.68,1a2.9,2.9,0,0,0-.52-.33l-.2-.06c.05-.23.06-.36,0-.39s-.15.09-.29.3a3.11,3.11,0,0,0-1.17-.14,2.55,2.55,0,0,0-1,.31,2.44,2.44,0,0,0-.83.83A2.35,2.35,0,0,0,665.69,128.81Zm.87,4.84-.09,0c.34-.67.73-1.5,1.13-2.42l.29.17s0,0,.07,0c-.34.83-.65,1.6-.9,2.27A4.07,4.07,0,0,1,666.56,133.65Zm2.06-.42a1.41,1.41,0,0,1-.84.46c.25-.53.52-1.12.81-1.76a1.09,1.09,0,0,1,.22.34A1.11,1.11,0,0,1,668.62,133.23Zm.49-5.45a3.16,3.16,0,0,1,.43.16c-.29.57-.61,1.25-.94,2l-.38-.23c.3-.73.55-1.39.74-1.94Zm-1.1,0a1.77,1.77,0,0,1,.32,0c-.23.43-.47.94-.74,1.51a1.75,1.75,0,0,1-.2-.16,1.2,1.2,0,0,1-.13-.21.6.6,0,0,1-.06-.19.8.8,0,0,1,.07-.42A1,1,0,0,1,668,127.73Z" style="fill:#f5f5f5"></path><path d="M660.46,116.45c4.67,1.84,9.33,5.69,12.77,8.52.86.71,1.66,1.37,2.37,1.92,4.72,3.69,10.9,1.86,11.27,1.45l.41.22L681.94,142h-.15a27.51,27.51,0,0,1-20.68-8c-3.63-3.78-11.65-6.06-11.73-6.08l-.25-.07,5.15-12.39.14,0A13,13,0,0,1,660.46,116.45ZM678,128.77a10.46,10.46,0,0,1-2.65-1.51c-.71-.55-1.52-1.22-2.38-1.93-4.85-4-12.16-10-18.32-9.43l-4.85,11.64c1.43.42,8.29,2.6,11.69,6.14a27,27,0,0,0,20.16,7.88l5-12.56a9.41,9.41,0,0,1-1.29.35A13.5,13.5,0,0,1,678,128.77Z" style="fill:#e0e0e0"></path><path d="M691.6,353.9s-6,5.87-15.48,2.62c-5.89-2-17.81-4.25-20,0l-.08,13.76a37.51,37.51,0,0,1,16.07,2.12c7.71,3,20-1,20-1Z" style="fill:#f5f5f5"></path><path d="M673.37,370.63a6.57,6.57,0,0,1-4.67-8.78c1.36-3.14,6.45-4,9.59-2.61a6.2,6.2,0,0,1,3.23,8.16C680.17,370.55,676.7,371.42,673.37,370.63Z" style="fill:#e0e0e0"></path><path d="M672.05,364a2,2,0,0,0,.36.53,2.48,2.48,0,0,0,.49.38,3.19,3.19,0,0,0,.9.33c0,1,0,1.92,0,2.66a10.53,10.53,0,0,1-1.07-.05c-.44,0-.7,0-.74.06s.16.28.57.5a5.45,5.45,0,0,0,1.3.4c0,.52.11.83.19.83s.15-.28.22-.76a2.17,2.17,0,0,0,.25,0l.45,0c0,.63.11,1,.2,1s.17-.42.25-1.1a3.87,3.87,0,0,0,.61-.19,2.54,2.54,0,0,0,1.36-1.39,2.36,2.36,0,0,0-.31-2.22,2.13,2.13,0,0,0-.45-.45,3.12,3.12,0,0,0-.53-.3,2.44,2.44,0,0,0-.44-.13c0-.84,0-1.6,0-2.25l.73.06c.45,0,.72,0,.74-.08s-.17-.26-.58-.48a5.16,5.16,0,0,0-.78-.32l-.15,0c-.05-.7-.12-1.14-.2-1.14s-.18.4-.25,1.06a3.22,3.22,0,0,0-.57-.1h-.19c0-.21-.08-.33-.13-.33s-.1.13-.15.36a2.94,2.94,0,0,0-1.06.28,2.46,2.46,0,0,0-.76.63,2.19,2.19,0,0,0-.43,1A2.11,2.11,0,0,0,672.05,364Zm2.44,3.88h-.09c.06-.7.11-1.55.13-2.49l.31,0,.08,0c0,.83,0,1.61,0,2.27A3.81,3.81,0,0,1,674.49,367.9Zm1.63-1.08a1.25,1.25,0,0,1-.57.69q.06-.83.09-1.8a.89.89,0,0,1,.31.21A1,1,0,0,1,676.12,366.82Zm-1.48-4.89a3.09,3.09,0,0,1,.43,0c-.05.6-.09,1.29-.11,2.06l-.41-.06c0-.74,0-1.4,0-1.94Zm-1,.35a1.24,1.24,0,0,1,.29-.1c-.05.45-.08,1-.11,1.57-.07,0-.18,0-.23-.07a1.33,1.33,0,0,1-.19-.14.3.3,0,0,1-.11-.14.65.65,0,0,1-.09-.39A.9.9,0,0,1,673.67,362.28Z" style="fill:#f5f5f5"></path><path d="M663.2,355.17c4.69-.05,10.06,1.65,14,2.9,1,.31,1.91.6,2.71.83,5.37,1.54,10.07-2.2,10.25-2.69l.44.05.08,13.5-.13.06a25.66,25.66,0,0,1-20.68.29c-4.46-2-12.19-1.17-12.27-1.16l-.24,0,.13-12.52.11-.06A11.89,11.89,0,0,1,663.2,355.17Zm19.44,4.53a9.8,9.8,0,0,1-2.82-.38c-.81-.23-1.74-.52-2.72-.84-5.6-1.76-14-4.41-19.15-1.75l-.12,11.76c1.39-.14,8.08-.65,12.25,1.22a25.2,25.2,0,0,0,20.19-.23l-.08-12.61a8.57,8.57,0,0,1-1,.76A12.7,12.7,0,0,1,682.64,359.7Z" style="fill:#e0e0e0"></path><path d="M446.87,59.68s-.95,9.82-12.05,14.1c-6.86,2.65-19.38,9.64-18.15,15.13L427,101.45A44.37,44.37,0,0,1,443.21,91.2c9.28-3.1,17.38-16.07,17.38-16.07Z" style="fill:#f5f5f5"></path><path d="M443,88.67a7.76,7.76,0,0,1-10.89-4.43c-1.15-3.88,2.84-8.49,6.72-9.64a7.34,7.34,0,0,1,9.12,5C449.12,83.44,446.64,86.86,443,88.67Z" style="fill:#e0e0e0"></path><path d="M436.81,83.67a2.33,2.33,0,0,0,.73.2,2.61,2.61,0,0,0,.74,0,3.63,3.63,0,0,0,1.05-.39c.75.94,1.45,1.76,2,2.41-.37.31-.73.57-1,.76-.43.3-.66.5-.62.61s.35.14.89,0a6.45,6.45,0,0,0,1.48-.61c.44.43.73.66.81.6s-.08-.37-.38-.85c.09-.07.17-.09.26-.16s.25-.24.38-.36c.52.53.88.84,1,.78s-.16-.52-.61-1.19a3.41,3.41,0,0,0,.41-.63,3,3,0,0,0,.19-2.29,2.78,2.78,0,0,0-2-1.78,2.69,2.69,0,0,0-.75-.07,3.94,3.94,0,0,0-.7.12,3.29,3.29,0,0,0-.5.23c-.63-.77-1.22-1.46-1.73-2l.71-.5c.43-.3.66-.52.61-.63s-.36-.11-.89,0a6.3,6.3,0,0,0-1,.3l-.14.09c-.58-.6-1-1-1.06-.88s.15.5.58,1.15a4.14,4.14,0,0,0-.59.35l-.16.15c-.19-.16-.32-.24-.37-.21s0,.2.13.44a3.49,3.49,0,0,0-.73,1.06,2.78,2.78,0,0,0-.23,1.15,2.71,2.71,0,0,0,.38,1.24A2.45,2.45,0,0,0,436.81,83.67ZM442,85.33a.6.6,0,0,1-.08.08c-.47-.68-1.08-1.49-1.77-2.37l.33-.18.08,0c.62.76,1.21,1.46,1.73,2.05A3.58,3.58,0,0,1,442,85.33Zm.67-2.21a1.57,1.57,0,0,1,0,1c-.38-.52-.81-1.09-1.28-1.7a1.09,1.09,0,0,1,.43,0A1.22,1.22,0,0,1,442.63,83.12Zm-5.05-3.31a3.9,3.9,0,0,1,.38-.33c.41.57.9,1.23,1.46,2l-.42.25c-.56-.67-1.07-1.26-1.51-1.72C437.53,79.91,437.54,79.85,437.58,79.81Zm-.62,1a2.48,2.48,0,0,1,.18-.31c.31.45.68,1,1.1,1.51-.09,0-.19.09-.27.11l-.27,0-.21,0a.84.84,0,0,1-.38-.3A1.07,1.07,0,0,1,437,80.86Z" style="fill:#f5f5f5"></path><path d="M422.08,82.34c4.21-3.59,10.37-6.12,14.91-8,1.13-.46,2.2-.9,3.1-1.3,6-2.67,7.46-9.63,7.26-10.2l.43-.29,10.31,12.18-.07.15a30.33,30.33,0,0,1-18.54,15.94c-5.57,1.56-12,8.18-12,8.24l-.2.21L417.9,87.83l.06-.14A14,14,0,0,1,422.08,82.34Zm21.06-10.61a12,12,0,0,1-2.84,1.79c-.91.4-2,.84-3.11,1.3-6.4,2.64-16.06,6.62-18.69,12.92l8.8,10.76c1.15-1.18,6.83-6.72,12-8.18a29.78,29.78,0,0,0,18.15-15.5l-9.63-11.38a10.36,10.36,0,0,1-.33,1.44A15,15,0,0,1,443.14,71.73Z" style="fill:#e0e0e0"></path><polygon points="704.82 287.87 703.55 290.19 701.24 291.45 703.55 292.72 704.82 295.04 706.09 292.72 708.4 291.45 706.09 290.19 704.82 287.87" style="fill:#e0e0e0"></polygon><polygon points="631.74 67.5 630.47 69.82 628.15 71.09 630.47 72.35 631.74 74.67 633 72.35 635.32 71.09 633 69.82 631.74 67.5" style="fill:#e0e0e0"></polygon><polygon points="414.5 356.54 413.23 358.86 410.91 360.12 413.23 361.39 414.5 363.7 415.76 361.39 418.08 360.12 415.76 358.86 414.5 356.54" style="fill:#e0e0e0"></polygon><polygon points="356.23 340.04 353.71 344.64 349.11 347.16 353.71 349.68 356.23 354.28 358.75 349.68 363.35 347.16 358.75 344.64 356.23 340.04" style="fill:#e0e0e0"></polygon><polygon points="656.99 74.79 654.47 79.39 649.87 81.91 654.47 84.43 656.99 89.03 659.51 84.43 664.11 81.91 659.51 79.39 656.99 74.79" style="fill:#e0e0e0"></polygon></g><g id="freepik--Floor--inject-6"><path d="M703,460.3c0,.14-146.84.26-327.93.26s-328-.12-328-.26S193.86,460,375,460,703,460.15,703,460.3Z" style="fill:#263238"></path></g><g id="freepik--Vault--inject-6"><rect x="375.63" y="185.49" width="10.69" height="106.26" style="fill:#263238"></rect><ellipse cx="245.64" cy="238.12" rx="96.81" ry="119.02" style="fill:#263238"></ellipse><rect x="364.94" y="201.25" width="21.38" height="73.24" style="fill:#455a64"></rect><rect x="371.66" y="172.95" width="18.32" height="12.53" style="fill:#263238"></rect><rect x="372.47" y="291.45" width="18.32" height="12.53" style="fill:#263238"></rect><ellipse cx="274.85" cy="238.12" rx="96.81" ry="119.02" style="fill:#455a64"></ellipse><ellipse cx="281.61" cy="237.87" rx="74.62" ry="92.09" style="fill:#455a64"></ellipse><path d="M356.23,237.87s0-.45-.06-1.35,0-2.23-.13-4a117.72,117.72,0,0,0-1.79-15.17c-.16-.81-.32-1.65-.48-2.51l-.61-2.63c-.38-1.8-1-3.65-1.47-5.6a112.65,112.65,0,0,0-4.49-12.34,92.44,92.44,0,0,0-17.54-26.58A73.82,73.82,0,0,0,315.31,156a65.23,65.23,0,0,0-18.4-8,61.59,61.59,0,0,0-21.4-1.61,57.86,57.86,0,0,0-11.05,2.16,61.91,61.91,0,0,0-10.77,4.24,69.25,69.25,0,0,0-10.11,6.2,82.82,82.82,0,0,0-9.18,8,93.12,93.12,0,0,0-8,9.48,97.71,97.71,0,0,0-6.73,10.72,110.17,110.17,0,0,0,0,101.54,97,97,0,0,0,6.74,10.73,91.54,91.54,0,0,0,8,9.47,82,82,0,0,0,9.18,8,69.25,69.25,0,0,0,10.11,6.2,62.22,62.22,0,0,0,10.77,4.24,57.81,57.81,0,0,0,11.06,2.16,61.29,61.29,0,0,0,21.39-1.62,65.27,65.27,0,0,0,18.41-8A73.8,73.8,0,0,0,329.67,308a92.47,92.47,0,0,0,17.53-26.58,112.53,112.53,0,0,0,4.49-12.33c.52-1.95,1.09-3.8,1.47-5.61.21-.89.41-1.77.61-2.62s.32-1.7.48-2.51A117.64,117.64,0,0,0,356,243.2c.1-1.74.1-3.08.13-4s.06-1.36.06-1.36,0,1.84-.08,5.34a114.65,114.65,0,0,1-1.7,15.2c-.15.82-.31,1.66-.47,2.52s-.39,1.74-.6,2.64c-.37,1.8-.93,3.66-1.45,5.61a112.77,112.77,0,0,1-4.46,12.39,92.62,92.62,0,0,1-17.54,26.72,74.23,74.23,0,0,1-14.4,11.84A65.8,65.8,0,0,1,297,328.21a61.71,61.71,0,0,1-21.55,1.65,58.76,58.76,0,0,1-11.14-2.16,62,62,0,0,1-10.85-4.26,68.9,68.9,0,0,1-10.19-6.24,81.08,81.08,0,0,1-9.24-8,91.73,91.73,0,0,1-8.08-9.53,97.81,97.81,0,0,1-6.78-10.77,110.65,110.65,0,0,1,0-102A98.12,98.12,0,0,1,226,176.08a94.06,94.06,0,0,1,8.08-9.53,82.88,82.88,0,0,1,9.24-8,68.9,68.9,0,0,1,10.19-6.24,62,62,0,0,1,10.85-4.26,58.6,58.6,0,0,1,11.14-2.16A62,62,0,0,1,297,147.53a65.65,65.65,0,0,1,18.51,8.09,74.17,74.17,0,0,1,14.4,11.84,92.44,92.44,0,0,1,17.53,26.72,110.78,110.78,0,0,1,4.47,12.38c.52,2,1.07,3.81,1.45,5.62.2.9.4,1.78.6,2.63s.31,1.71.47,2.52a114.94,114.94,0,0,1,1.7,15.21C356.25,236,356.23,237.87,356.23,237.87Z" style="fill:#263238"></path><ellipse cx="301.51" cy="235.82" rx="43.76" ry="42.73" style="fill:#263238"></ellipse><path d="M279.07,210.62h0a6.84,6.84,0,0,1-9.66.45L264,206.14a6.84,6.84,0,0,1-.45-9.66h0a6.84,6.84,0,0,1,9.66-.45l5.41,4.93A6.84,6.84,0,0,1,279.07,210.62Z" style="fill:#263238"></path><path d="M302,198.06h0a6.83,6.83,0,0,1-6.84-6.83v-7.32a6.84,6.84,0,0,1,6.84-6.84h0a6.83,6.83,0,0,1,6.83,6.84v7.32A6.83,6.83,0,0,1,302,198.06Z" style="fill:#263238"></path><path d="M329.14,209.67h0a6.83,6.83,0,0,1-1.39-9.57l4.37-5.87a6.84,6.84,0,0,1,9.57-1.39h0a6.83,6.83,0,0,1,1.39,9.57l-4.37,5.86A6.84,6.84,0,0,1,329.14,209.67Z" style="fill:#263238"></path><path d="M270.4,237.87h0a6.83,6.83,0,0,1-6.83,6.84h-7.32a6.84,6.84,0,0,1-6.84-6.84h0a6.83,6.83,0,0,1,6.84-6.83h7.32A6.83,6.83,0,0,1,270.4,237.87Z" style="fill:#263238"></path><path d="M360.44,235.76h0a6.83,6.83,0,0,1-6.84,6.83h-7.32a6.83,6.83,0,0,1-6.83-6.83h0a6.83,6.83,0,0,1,6.83-6.84h7.32A6.84,6.84,0,0,1,360.44,235.76Z" style="fill:#263238"></path><path d="M280.58,264.3h0a6.84,6.84,0,0,1-.43,9.66l-5.4,4.93a6.83,6.83,0,0,1-9.66-.43h0a6.83,6.83,0,0,1,.43-9.66l5.4-4.93A6.83,6.83,0,0,1,280.58,264.3Z" style="fill:#263238"></path><path d="M309.06,269.77h0a6.83,6.83,0,0,1,7.15,6.5l.34,7.31a6.82,6.82,0,0,1-6.5,7.15h0a6.83,6.83,0,0,1-7.16-6.5l-.34-7.31A6.84,6.84,0,0,1,309.06,269.77Z" style="fill:#263238"></path><path d="M331.69,260.66h0a6.84,6.84,0,0,1,9.66-.45l5.41,4.93a6.83,6.83,0,0,1,.44,9.66h0a6.82,6.82,0,0,1-9.65.44l-5.41-4.93A6.83,6.83,0,0,1,331.69,260.66Z" style="fill:#263238"></path><ellipse cx="309.55" cy="236.03" rx="35.43" ry="39.81" style="fill:#455a64"></ellipse><circle cx="532.89" cy="241.71" r="112.58" transform="translate(-14.84 447.61) rotate(-45)" style="fill:#ebebeb"></circle><path d="M491.55,289.46V245.65h39.8V223.72h48.17v-45h45.91v31.88h15.78V156.1l9.34,14.5s20,36.92-10.51,79.79S551.82,318.05,491.55,289.46Z" style="fill:#e0e0e0"></path><path d="M432.67,206.18h44.21l6.3,13.56h27.43l9.2,11.3v37.64l10.46-.95,9.26,9.25v33.89H455.18S413.6,275.34,432.67,206.18Z" style="fill:#C53F3F"></path><path d="M432.67,206.18h44.21l6.3,13.56h27.43l9.2,11.3v37.64l10.46-.95,9.26,9.25v33.89H455.18S413.6,275.34,432.67,206.18Z" style="opacity:0.4"></path><path d="M499.18,338.93V309.79H472.93V294h-14v-5.74H438.59S457,326.83,499.18,338.93Z" style="fill:#C53F3F"></path><path d="M499.18,338.93V309.79H472.93V294h-14v-5.74H438.59S457,326.83,499.18,338.93Z" style="opacity:0.30000000000000004"></path><path d="M487.83,336.63V299.05H522V280.24H563.3V241.6h39.38v27.34h13.53V222.23h12.44s12.7,44.1-13.44,80.88S539.53,361.16,487.83,336.63Z" style="fill:#C53F3F"></path><path d="M541.68,365.93V323.3h38.41V300.15H600.6v-8.4h29.71S603.42,348.23,541.68,365.93Z" style="fill:#C53F3F"></path><path d="M541.68,367.06V324.43h38.41V301.28H600.6v-8.4h29.71S603.42,349.36,541.68,367.06Z" style="fill:#fff;opacity:0.30000000000000004"></path><path d="M534.29,98.35a139.8,139.8,0,1,0,139.8,139.8A139.8,139.8,0,0,0,534.29,98.35Zm-4.41,245.16a101.8,101.8,0,1,1,101.81-101.8A101.8,101.8,0,0,1,529.88,343.51Z" style="fill:#455a64"></path><path d="M534.29,131.75A106.55,106.55,0,0,0,427.73,238.3a108.22,108.22,0,0,0,.83,13.31c-.31-3.25-.48-6.56-.48-9.9a101.7,101.7,0,1,1,67,95.7,106.56,106.56,0,1,0,39.2-205.66Z" style="fill:#263238"></path><circle cx="590.44" cy="127.66" r="7.72" transform="translate(305.63 660.39) rotate(-74.07)" style="fill:#455a64"></circle><path d="M598.15,127.66c-.06,0,0-.68-.34-1.86a7.59,7.59,0,0,0-2.82-4.12,7.34,7.34,0,0,0-3.17-1.38,7.54,7.54,0,0,0-3.93.34,7.44,7.44,0,0,0-3.46,2.61,7.43,7.43,0,0,0,0,8.82,7.41,7.41,0,0,0,3.46,2.62,7.59,7.59,0,0,0,9.92-5.17c.32-1.17.28-1.86.34-1.86a1.61,1.61,0,0,1,0,.5,5.71,5.71,0,0,1-.17,1.41,7.68,7.68,0,0,1-2.79,4.37,7.83,7.83,0,0,1-3.32,1.52,8,8,0,0,1-4.17-.32,7.86,7.86,0,0,1-3.71-2.76,7.91,7.91,0,0,1,0-9.43,7.86,7.86,0,0,1,3.71-2.76,7.86,7.86,0,0,1,7.49,1.19,7.73,7.73,0,0,1,2.79,4.38,5.66,5.66,0,0,1,.17,1.41A1.56,1.56,0,0,1,598.15,127.66Z" style="fill:#263238"></path><path d="M590.24,132.4s-.49-.42-.92-1.34a7.17,7.17,0,0,1-.53-3.91,7,7,0,0,1,1.65-3.57c.68-.77,1.24-1.07,1.27-1s-.41.46-1,1.25a7.55,7.55,0,0,0-1.06,7.11C590,131.84,590.31,132.36,590.24,132.4Z" style="fill:#263238"></path><path d="M595.55,129a13.87,13.87,0,0,0-10.92-1.42,3.79,3.79,0,0,1,1.57-.67,10.52,10.52,0,0,1,4.11-.26,10.72,10.72,0,0,1,3.9,1.3A3.85,3.85,0,0,1,595.55,129Z" style="fill:#263238"></path><circle cx="499.77" cy="120.9" r="7.72" transform="translate(-8.38 199.47) rotate(-22.39)" style="fill:#455a64"></circle><path d="M507.49,120.9c-.06,0,0-.69-.34-1.86a7.73,7.73,0,0,0-2.82-4.13,7.64,7.64,0,0,0-3.17-1.38,7.54,7.54,0,0,0-3.93.35,7.33,7.33,0,0,0-3.46,2.61,7.43,7.43,0,0,0,0,8.82,7.33,7.33,0,0,0,3.46,2.61,7.49,7.49,0,0,0,7.1-1,7.73,7.73,0,0,0,2.82-4.13c.31-1.17.28-1.86.34-1.86a1.61,1.61,0,0,1,0,.5,6.3,6.3,0,0,1-.17,1.41,7.79,7.79,0,0,1-6.11,5.88,7.93,7.93,0,0,1-7.89-3.08,7.91,7.91,0,0,1,0-9.42,7.85,7.85,0,0,1,14,2.8,6.32,6.32,0,0,1,.17,1.42A1.56,1.56,0,0,1,507.49,120.9Z" style="fill:#263238"></path><path d="M499.58,125.64c-.05,0-.5-.42-.92-1.35a7,7,0,0,1,1.12-7.48c.68-.76,1.24-1.06,1.27-1s-.41.46-1,1.24a7.62,7.62,0,0,0-1.07,7.12A13.71,13.71,0,0,1,499.58,125.64Z" style="fill:#263238"></path><path d="M504.89,122.24a17.9,17.9,0,0,0-5.31-1.84,18.31,18.31,0,0,0-5.61.41,4.13,4.13,0,0,1,1.57-.67,10.9,10.9,0,0,1,4.11-.26,10.71,10.71,0,0,1,3.9,1.31C504.46,121.73,504.93,122.19,504.89,122.24Z" style="fill:#263238"></path><circle cx="646.73" cy="183.47" r="7.72" transform="translate(59.69 511.04) rotate(-45)" style="fill:#455a64"></circle><path d="M654.45,183.47c-.06,0,0-.69-.34-1.86a7.73,7.73,0,0,0-2.82-4.13,7.52,7.52,0,0,0-7.11-1,7.38,7.38,0,0,0-3.46,2.61,7.43,7.43,0,0,0,0,8.82,7.38,7.38,0,0,0,3.46,2.61,7.55,7.55,0,0,0,3.93.35,7.64,7.64,0,0,0,6-5.51c.31-1.17.28-1.86.34-1.86a2.66,2.66,0,0,1,0,.49,5.78,5.78,0,0,1-.17,1.42,7.63,7.63,0,0,1-2.79,4.37,7.9,7.9,0,0,1-11.2-1.57,7.89,7.89,0,0,1,0-9.42,7.89,7.89,0,0,1,11.2-1.57,7.63,7.63,0,0,1,2.79,4.37,5.76,5.76,0,0,1,.17,1.41A2.73,2.73,0,0,1,654.45,183.47Z" style="fill:#263238"></path><path d="M646.53,188.21a3.19,3.19,0,0,1-.91-1.35,7,7,0,0,1,1.11-7.48c.68-.76,1.24-1.07,1.28-1s-.42.47-1,1.25a7.64,7.64,0,0,0-1.06,7.12A14.8,14.8,0,0,1,646.53,188.21Z" style="fill:#263238"></path><path d="M651.85,184.81a14,14,0,0,0-10.93-1.43,4.13,4.13,0,0,1,1.57-.67,10.7,10.7,0,0,1,8,1A3.83,3.83,0,0,1,651.85,184.81Z" style="fill:#263238"></path><circle cx="422.96" cy="179.58" r="7.72" transform="translate(150.72 549.76) rotate(-76.67)" style="fill:#455a64"></circle><path d="M430.68,179.58c-.06,0,0-.69-.34-1.86a7.73,7.73,0,0,0-2.82-4.13,7.64,7.64,0,0,0-3.17-1.38A7.49,7.49,0,0,0,417,184a7.4,7.4,0,0,0,3.47,2.61,7.49,7.49,0,0,0,7.1-1,7.73,7.73,0,0,0,2.82-4.13c.31-1.17.28-1.86.34-1.86a1.61,1.61,0,0,1,0,.5,6.89,6.89,0,0,1-.17,1.41,7.82,7.82,0,0,1-6.11,5.88,7.93,7.93,0,0,1-7.89-3.08,7.93,7.93,0,0,1,0-9.42,7.88,7.88,0,0,1,11.2-1.57,7.71,7.71,0,0,1,2.8,4.37,7,7,0,0,1,.17,1.42A1.56,1.56,0,0,1,430.68,179.58Z" style="fill:#263238"></path><path d="M422.77,184.32s-.5-.42-.92-1.35a7,7,0,0,1,1.12-7.48c.67-.76,1.24-1.06,1.27-1s-.42.46-1,1.24a8,8,0,0,0-1.43,3.43,7.82,7.82,0,0,0,.36,3.69A13.71,13.71,0,0,1,422.77,184.32Z" style="fill:#263238"></path><path d="M428.08,180.92a17.9,17.9,0,0,0-5.31-1.84,18.31,18.31,0,0,0-5.61.41,3.84,3.84,0,0,1,1.56-.66,10.66,10.66,0,0,1,8,1C427.65,180.41,428.12,180.87,428.08,180.92Z" style="fill:#263238"></path><circle cx="649.27" cy="281.85" r="7.72" transform="translate(-9.13 541.66) rotate(-45)" style="fill:#455a64"></circle><path d="M657,281.85c-.06,0,0-.68-.34-1.85a7.69,7.69,0,0,0-2.82-4.13,7.44,7.44,0,0,0-3.17-1.38,7.48,7.48,0,0,0-7.4,11.77,7.46,7.46,0,0,0,3.46,2.62,7.54,7.54,0,0,0,7.11-1,7.69,7.69,0,0,0,2.82-4.13c.31-1.17.28-1.86.34-1.86a1.61,1.61,0,0,1,0,.5,6.89,6.89,0,0,1-.17,1.41,7.65,7.65,0,0,1-2.8,4.37,7.78,7.78,0,0,1-3.31,1.52,8.05,8.05,0,0,1-4.18-.32,7.91,7.91,0,0,1-3.71-2.76,7.91,7.91,0,0,1,0-9.43,7.91,7.91,0,0,1,3.71-2.76,8.05,8.05,0,0,1,4.18-.32,7.89,7.89,0,0,1,3.31,1.51,7.7,7.7,0,0,1,2.8,4.38,6.81,6.81,0,0,1,.17,1.41A1.51,1.51,0,0,1,657,281.85Z" style="fill:#263238"></path><path d="M649.08,286.59c-.05,0-.5-.41-.92-1.34a7,7,0,0,1,1.12-7.48c.67-.77,1.23-1.07,1.27-1s-.42.46-1,1.25a7.63,7.63,0,0,0-1.06,7.11C648.81,286,649.15,286.55,649.08,286.59Z" style="fill:#263238"></path><path d="M654.39,283.19a13.87,13.87,0,0,0-10.92-1.42,3.61,3.61,0,0,1,1.56-.67,10.54,10.54,0,0,1,4.11-.26,10.78,10.78,0,0,1,3.91,1.3A4,4,0,0,1,654.39,283.19Z" style="fill:#263238"></path><circle cx="419.03" cy="281.85" r="7.72" transform="translate(48.18 624.63) rotate(-76.67)" style="fill:#455a64"></circle><path d="M426.75,281.85c-.06,0,0-.68-.34-1.85a7.69,7.69,0,0,0-2.82-4.13,7.39,7.39,0,0,0-3.17-1.38,7.5,7.5,0,0,0-8.84,7.36,7.54,7.54,0,0,0,4.91,7,7.53,7.53,0,0,0,7.1-1,7.69,7.69,0,0,0,2.82-4.13c.31-1.17.28-1.86.34-1.86a1.61,1.61,0,0,1,0,.5,6.24,6.24,0,0,1-.17,1.41,7.65,7.65,0,0,1-2.8,4.37,7.78,7.78,0,0,1-3.31,1.52,8.05,8.05,0,0,1-4.18-.32,7.91,7.91,0,0,1-3.71-2.76,7.95,7.95,0,0,1,0-9.43,7.91,7.91,0,0,1,3.71-2.76,8.05,8.05,0,0,1,4.18-.32,7.89,7.89,0,0,1,3.31,1.51,7.7,7.7,0,0,1,2.8,4.38,6.18,6.18,0,0,1,.17,1.41A1.51,1.51,0,0,1,426.75,281.85Z" style="fill:#263238"></path><path d="M418.84,286.59s-.5-.41-.92-1.34a7,7,0,0,1,1.12-7.48c.67-.77,1.24-1.07,1.27-1s-.41.46-1,1.25a7.91,7.91,0,0,0-1.43,3.42,7.79,7.79,0,0,0,.36,3.69C418.58,286,418.91,286.55,418.84,286.59Z" style="fill:#263238"></path><path d="M424.15,283.19a13.87,13.87,0,0,0-10.92-1.42,3.7,3.7,0,0,1,1.57-.67,10.47,10.47,0,0,1,4.1-.26,10.71,10.71,0,0,1,3.91,1.3A4,4,0,0,1,424.15,283.19Z" style="fill:#263238"></path><circle cx="590" cy="350.17" r="7.72" transform="translate(-74.8 519.76) rotate(-45)" style="fill:#455a64"></circle><path d="M597.72,350.17c-.06,0,0-.69-.34-1.86a7.73,7.73,0,0,0-2.82-4.13,7.49,7.49,0,0,0-7.1-1,7.35,7.35,0,0,0-3.47,2.61,7.47,7.47,0,0,0,0,8.82,7.35,7.35,0,0,0,3.47,2.61,7.49,7.49,0,0,0,7.1-1,7.73,7.73,0,0,0,2.82-4.13c.31-1.17.28-1.86.34-1.86a1.56,1.56,0,0,1,0,.49,7,7,0,0,1-.17,1.42,7.82,7.82,0,0,1-6.11,5.88,7.93,7.93,0,0,1-7.89-3.08,7.93,7.93,0,0,1,0-9.42,7.88,7.88,0,0,1,11.2-1.57,7.71,7.71,0,0,1,2.8,4.37,7,7,0,0,1,.17,1.41A1.61,1.61,0,0,1,597.72,350.17Z" style="fill:#263238"></path><path d="M589.81,354.91a3.05,3.05,0,0,1-.92-1.35,7,7,0,0,1,1.12-7.48c.67-.76,1.23-1.07,1.27-1s-.42.47-1,1.25a8,8,0,0,0-1.42,3.43,7.82,7.82,0,0,0,.36,3.69A13.71,13.71,0,0,1,589.81,354.91Z" style="fill:#263238"></path><path d="M595.12,351.51a17.57,17.57,0,0,0-5.31-1.84,18,18,0,0,0-5.61.41,3.93,3.93,0,0,1,1.56-.67,10.94,10.94,0,0,1,4.11-.26,10.77,10.77,0,0,1,3.91,1.31C594.69,351,595.16,351.46,595.12,351.51Z" style="fill:#263238"></path><circle cx="479.59" cy="351.14" r="7.72" transform="translate(27.35 736.87) rotate(-76.67)" style="fill:#455a64"></circle><path d="M487.31,351.14c-.06,0,0-.69-.34-1.86a7.73,7.73,0,0,0-2.82-4.13,7.5,7.5,0,0,0-7.11-1,7.38,7.38,0,0,0-3.46,2.61,7.47,7.47,0,0,0,0,8.82,7.38,7.38,0,0,0,3.46,2.61,7.5,7.5,0,0,0,7.11-1A7.73,7.73,0,0,0,487,353c.31-1.17.28-1.86.34-1.86a1.61,1.61,0,0,1,0,.5,7,7,0,0,1-.17,1.41,7.82,7.82,0,0,1-6.11,5.88,7.93,7.93,0,0,1-7.89-3.08,7.89,7.89,0,0,1,0-9.42,7.88,7.88,0,0,1,11.2-1.57,7.71,7.71,0,0,1,2.8,4.37,7,7,0,0,1,.17,1.42A1.56,1.56,0,0,1,487.31,351.14Z" style="fill:#263238"></path><path d="M479.4,355.88s-.5-.42-.92-1.35a7,7,0,0,1,1.12-7.48,3.12,3.12,0,0,1,1.27-1c.05.07-.42.47-1,1.25a7.65,7.65,0,0,0-1.06,7.12C479.13,355.31,479.46,355.83,479.4,355.88Z" style="fill:#263238"></path><path d="M484.71,352.48a17.57,17.57,0,0,0-5.32-1.84,17.91,17.91,0,0,0-5.6.41,3.93,3.93,0,0,1,1.56-.67,10.94,10.94,0,0,1,4.11-.26,10.77,10.77,0,0,1,3.91,1.31C484.28,352,484.75,352.43,484.71,352.48Z" style="fill:#263238"></path><polygon points="499.19 175.64 497.92 177.95 495.6 179.22 497.92 180.49 499.19 182.8 500.45 180.49 502.77 179.22 500.45 177.95 499.19 175.64" style="fill:#C53F3F"></polygon><polygon points="536.4 156.1 535.76 157.26 534.61 157.89 535.76 158.53 536.4 159.68 537.03 158.53 538.19 157.89 537.03 157.26 536.4 156.1" style="fill:#C53F3F"></polygon><polygon points="547.93 251.12 547.3 252.28 546.14 252.91 547.3 253.54 547.93 254.7 548.57 253.54 549.73 252.91 548.57 252.28 547.93 251.12" style="fill:#C53F3F"></polygon><path d="M522,201.93a12.08,12.08,0,0,1,12.35-.66c4.43,2.1,13.55,4.93,15.64,1.82l1.3-10.76a29.48,29.48,0,0,1-12.38-3.11c-5.76-3.06-15.75-1-15.75-1Z" style="fill:#C53F3F"></path><path d="M537.76,190.48a5.17,5.17,0,0,1,2.87,7.29c-1.35,2.34-5.41,2.53-7.75,1.18a4.89,4.89,0,0,1-1.79-6.68C532.44,189.93,535.22,189.56,537.76,190.48Z" style="fill:#C53F3F"></path><g style="opacity:0.4"><path d="M537.76,190.48a5.17,5.17,0,0,1,2.87,7.29c-1.35,2.34-5.41,2.53-7.75,1.18a4.89,4.89,0,0,1-1.79-6.68C532.44,189.93,535.22,189.56,537.76,190.48Z"></path></g><path d="M538.2,195.77a1.5,1.5,0,0,0-.24-.45,1.88,1.88,0,0,0-.35-.34,2.36,2.36,0,0,0-.67-.34c.11-.78.18-1.5.23-2.08.32,0,.61.09.83.13s.55.1.58,0-.1-.23-.4-.44a4.21,4.21,0,0,0-1-.43c0-.41,0-.66-.07-.66s-.15.2-.25.57l-.19-.06h-.35c0-.5,0-.81-.06-.82s-.18.31-.3.84a1.75,1.75,0,0,0-.49.09,1.92,1.92,0,0,0-1.19,1,1.86,1.86,0,0,0,0,1.77,1.66,1.66,0,0,0,.31.39,2.55,2.55,0,0,0,.38.29,2.92,2.92,0,0,0,.34.13c-.08.66-.14,1.26-.18,1.77-.21,0-.41-.09-.57-.11-.34-.07-.55-.09-.58,0s.11.22.41.42a4.12,4.12,0,0,0,.58.33l.12,0c0,.55,0,.9.05.91s.17-.3.29-.81a2,2,0,0,0,.44.13h.15c0,.16,0,.26.07.27s.09-.09.15-.27a2,2,0,0,0,.85-.13,1.7,1.7,0,0,0,.65-.41,1.79,1.79,0,0,0,.43-.76A1.65,1.65,0,0,0,538.2,195.77Zm-1.56-3.25h.07c-.11.54-.22,1.21-.33,1.94l-.24-.07-.06,0c.09-.65.16-1.26.2-1.78A2.29,2.29,0,0,1,536.64,192.52Zm-1.37.69a1,1,0,0,1,.5-.48c-.08.42-.15.89-.23,1.4a.72.72,0,0,1-.22-.2A.79.79,0,0,1,535.27,193.21Zm.71,4c-.12,0-.22,0-.33,0,.09-.46.18-1,.27-1.6l.31.09c-.07.57-.11,1.09-.14,1.51A.35.35,0,0,1,536,197.17Zm.79-.18a1.55,1.55,0,0,1-.23,0c.08-.35.15-.76.23-1.22.05,0,.13.05.17.08a.5.5,0,0,1,.13.12.23.23,0,0,1,.08.12.56.56,0,0,1,0,.32A.72.72,0,0,1,536.77,197Z" style="fill:#C53F3F"></path><g style="opacity:0.4"><path d="M544.32,203.49c-3.66-.38-7.72-2.19-10.71-3.53l-2.05-.9a8.7,8.7,0,0,0-8.26,1.18l-.34-.07,1.15-10.57.11,0a20.21,20.21,0,0,1,16.21,1.64c3.31,2,9.43,2,9.49,2h.2L548.89,203l-.09,0A9.46,9.46,0,0,1,544.32,203.49Zm-14.8-5.29a7.37,7.37,0,0,1,2.17.55c.62.25,1.32.56,2.06.9,4.22,1.88,10.58,4.71,14.82,3.09l1.16-9.19c-1.1,0-6.38-.21-9.48-2.05a19.81,19.81,0,0,0-15.82-1.64l-1.07,9.87a7.35,7.35,0,0,1,.85-.51A9.91,9.91,0,0,1,529.52,198.2Z"></path></g><path d="M640.84,331A12.07,12.07,0,0,1,629,327.44c-3.46-3.47-11.1-9.22-14.11-7L610,330.14a29.49,29.49,0,0,1,10.61,7.1c4.39,4.83,14.48,6.27,14.48,6.27Z" style="fill:#C53F3F"></path><path d="M622.13,336.44a5.18,5.18,0,0,1-.23-7.83c2.06-1.74,5.94-.55,7.68,1.51A4.88,4.88,0,0,1,629,337C627,338.75,624.21,338.17,622.13,336.44Z" style="fill:#C53F3F"></path><g style="opacity:0.4"><path d="M622.13,336.44a5.18,5.18,0,0,1-.23-7.83c2.06-1.74,5.94-.55,7.68,1.51A4.88,4.88,0,0,1,629,337C627,338.75,624.21,338.17,622.13,336.44Z"></path></g><path d="M623.51,331.32a1.44,1.44,0,0,0,.07.5,1.78,1.78,0,0,0,.21.44,2.44,2.44,0,0,0,.52.54c-.37.71-.68,1.36-.92,1.89-.28-.14-.54-.29-.73-.41s-.49-.27-.54-.22,0,.25.23.55a3.67,3.67,0,0,0,.77.74c-.15.38-.21.62-.15.65s.2-.14.42-.46c.06,0,.09.08.16.12a3.24,3.24,0,0,0,.33.13c-.19.47-.28.77-.22.8s.27-.24.56-.69a2.64,2.64,0,0,0,.49.08,2,2,0,0,0,1.45-.5,1.89,1.89,0,0,0,.56-1.68,1.94,1.94,0,0,0-.16-.48,2.8,2.8,0,0,0-.27-.4,2.91,2.91,0,0,0-.27-.24c.3-.59.56-1.13.77-1.6l.49.3c.31.18.5.26.55.2s0-.24-.24-.54a5.42,5.42,0,0,0-.44-.5l-.1-.07c.21-.51.32-.84.26-.87s-.27.22-.55.66a2.21,2.21,0,0,0-.37-.27l-.13-.05c0-.17,0-.27,0-.28s-.12,0-.23.19a2.43,2.43,0,0,0-.85-.16,1.77,1.77,0,0,0-.75.17,1.72,1.72,0,0,0-.66.57A1.62,1.62,0,0,0,623.51,331.32Zm.37,3.59s0,0-.07,0c.29-.48.62-1.06,1-1.72l.2.15,0,0c-.3.58-.57,1.13-.79,1.6C624.12,334.93,624,334.94,623.88,334.91Zm1.52-.2a1,1,0,0,1-.63.29l.69-1.24a.83.83,0,0,1,.14.26A.8.8,0,0,1,625.4,334.71Zm.66-4a1.46,1.46,0,0,1,.31.14c-.24.4-.51.88-.8,1.41l-.26-.18c.26-.52.48-1,.64-1.39C626,330.74,626,330.73,626.06,330.75Zm-.8-.1a2,2,0,0,1,.24,0c-.19.31-.4.67-.63,1.07a1.79,1.79,0,0,1-.14-.13.8.8,0,0,1-.08-.16.35.35,0,0,1,0-.14.59.59,0,0,1,.07-.31A.73.73,0,0,1,625.26,330.65Z" style="fill:#C53F3F"></path><g style="opacity:0.4"><path d="M620.35,322c3.32,1.6,6.53,4.67,8.89,6.94.59.56,1.14,1.09,1.63,1.54a8.68,8.68,0,0,0,8.17,1.67l.29.19-4.65,9.56h-.11a20.19,20.19,0,0,1-14.7-7c-2.46-3-8.2-5.08-8.26-5.1l-.18-.07,4.45-8.79h.1A9.18,9.18,0,0,1,620.35,322Zm12.14,10a7.83,7.83,0,0,1-1.85-1.25c-.49-.45-1-1-1.64-1.54-3.33-3.2-8.36-8-12.9-7.92l-4.19,8.26c1,.39,5.93,2.36,8.22,5.14a19.87,19.87,0,0,0,14.34,6.88l4.34-8.93a7.44,7.44,0,0,1-1,.19A9.94,9.94,0,0,1,632.49,332Z"></path></g><path d="M463,267.46s2.15-6.21,10-7.24c4.86-.64,14.07-3.21,14.13-7l-4.74-9.74a29.63,29.63,0,0,1-12.09,4.1c-6.5.55-13.78,7.68-13.78,7.68Z" style="fill:#C53F3F"></path><path d="M470.08,249.29a5.18,5.18,0,0,1,6.36,4.57c.13,2.7-3.17,5.06-5.87,5.19a4.89,4.89,0,0,1-5.13-4.63C465.31,251.72,467.45,249.89,470.08,249.29Z" style="fill:#C53F3F"></path><g style="opacity:0.4"><path d="M470.08,249.29a5.18,5.18,0,0,1,6.36,4.57c.13,2.7-3.17,5.06-5.87,5.19a4.89,4.89,0,0,1-5.13-4.63C465.31,251.72,467.45,249.89,470.08,249.29Z"></path></g><path d="M473.31,253.5a1.36,1.36,0,0,0-.44-.25,2,2,0,0,0-.48-.1,2.21,2.21,0,0,0-.74.09c-.34-.72-.67-1.37-.95-1.88.29-.14.57-.26.78-.34s.51-.21.5-.29-.21-.15-.58-.16a4,4,0,0,0-1,.17c-.22-.35-.37-.54-.43-.52s0,.25.11.62a1.33,1.33,0,0,0-.19,0l-.3.18c-.26-.43-.44-.68-.5-.65s0,.35.2.86a2.85,2.85,0,0,0-.36.34,2,2,0,0,0-.48,1.46,1.87,1.87,0,0,0,1,1.46,1.7,1.7,0,0,0,.48.16,1.94,1.94,0,0,0,.48,0,1.36,1.36,0,0,0,.35-.07c.29.6.56,1.14.8,1.59l-.53.21c-.33.13-.51.23-.5.31s.22.13.58.14a4.4,4.4,0,0,0,.67-.05.35.35,0,0,1,.11,0c.28.48.48.76.54.73s0-.34-.19-.84a2.82,2.82,0,0,0,.43-.12l.13-.08c.1.14.17.21.21.19s0-.12,0-.3a2.28,2.28,0,0,0,.65-.57,1.86,1.86,0,0,0,.32-.71,1.8,1.8,0,0,0,0-.86A1.68,1.68,0,0,0,473.31,253.5Zm-3.07-1.89.06,0c.2.51.47,1.13.78,1.81l-.24.07h-.06c-.28-.59-.56-1.14-.8-1.6A3.19,3.19,0,0,1,470.24,251.61Zm-.78,1.33a1,1,0,0,1,.16-.68c.17.4.36.83.57,1.3a.64.64,0,0,1-.29,0A.82.82,0,0,1,469.46,252.94Zm2.75,2.94-.3.16c-.17-.44-.39-1-.63-1.5l.3-.09c.26.52.5,1,.71,1.35C472.26,255.82,472.24,255.86,472.21,255.88Zm.56-.58c0,.06-.11.11-.16.17-.13-.34-.29-.73-.47-1.15l.19,0a.47.47,0,0,1,.17,0,.3.3,0,0,1,.14.06.57.57,0,0,1,.2.25A.71.71,0,0,1,472.77,255.3Z" style="fill:#C53F3F"></path><g style="opacity:0.4"><path d="M482.65,256.67c-3.29,1.66-7.68,2.34-10.92,2.84-.8.12-1.56.24-2.21.36a8.69,8.69,0,0,0-6.3,5.47l-.32.12L458.13,256l.07-.08a20.18,20.18,0,0,1,14.51-7.42c3.85-.14,9-3.42,9.07-3.46l.16-.1,4.27,8.88,0,.08A9.43,9.43,0,0,1,482.65,256.67Zm-15.31,3.57a7.67,7.67,0,0,1,2.12-.71c.65-.12,1.42-.24,2.22-.36,4.56-.71,11.44-1.77,14.13-5.43l-4-8.35c-.93.58-5.48,3.27-9.08,3.41A19.83,19.83,0,0,0,458.54,256l4.45,8.88a6.32,6.32,0,0,1,.44-.88A10,10,0,0,1,467.34,260.24Z"></path></g></g><g id="freepik--Character--inject-6"><path d="M86.46,177.56c0,.86-.91,1.45-1.77,1.52a16.85,16.85,0,0,1-2.54-.27A5,5,0,0,0,77.06,183c-.18,1.32.17,2.76-.49,3.91-1.31,2.3-5.28,1.48-6.81,3.63-1.29,1.79,0,4.51-1.17,6.4-.77,1.3-2.39,1.78-3.68,2.56a7.7,7.7,0,0,0-3.63,6.93,3.54,3.54,0,0,0,1.41,2.9,4.63,4.63,0,0,0,3,.29,94.61,94.61,0,0,1,15-.47,6.18,6.18,0,0,1,1-6.83c1.21-1.29,3-2.15,3.54-3.83.79-2.6-2.08-5.46-.87-7.89.7-1.4,2.48-1.91,3.45-3.15a5.82,5.82,0,0,0,.94-3.69,15.08,15.08,0,0,1,.13-3.86,3.37,3.37,0,0,1,2.48-2.69" style="fill:#C53F3F"></path><path d="M89.73,207.43l-1.45-33.37,13.38-10.13,12.16,5.94s.41,15.27,0,21.89-7.08,7.33-7.08,7.33l.41,7.5a8.72,8.72,0,0,1-8.1,9.16h0A8.72,8.72,0,0,1,89.73,207.43Z" style="fill:#ffbe9d"></path><path d="M112.5,181a.85.85,0,1,1-1.7,0,.85.85,0,0,1,1.7,0Z" style="fill:#263238"></path><path d="M113.32,180.08c-.11.11-.74-.42-1.65-.47s-1.6.39-1.69.27.07-.26.37-.47a2.21,2.21,0,0,1,1.36-.35,2.17,2.17,0,0,1,1.3.52C113.28,179.82,113.37,180,113.32,180.08Z" style="fill:#263238"></path><path d="M102.68,181a.85.85,0,0,1-1.7,0,.85.85,0,0,1,1.7,0Z" style="fill:#263238"></path><path d="M103.2,180.08c-.1.11-.73-.42-1.64-.47s-1.6.39-1.7.27.07-.26.37-.47a2.23,2.23,0,0,1,1.36-.35,2.2,2.2,0,0,1,1.31.52C103.17,179.82,103.26,180,103.2,180.08Z" style="fill:#263238"></path><path d="M103.48,188.65a17.08,17.08,0,0,0,4.41,1.52,2.57,2.57,0,0,1-3,.86A1.89,1.89,0,0,1,103.48,188.65Z" style="fill:#fff"></path><path d="M106.75,199.09a16.57,16.57,0,0,1-8.78-3s2,4.86,8.63,4.59Z" style="fill:#eb996e"></path><path d="M106.5,187.79a6.08,6.08,0,0,1,1.49-.19c.23,0,.46,0,.51-.22a1.31,1.31,0,0,0-.13-.73l-.63-1.9c-.43-1.34-.8-2.57-1.06-3.46a6,6,0,0,1-.33-1.46,5.62,5.62,0,0,1,.58,1.38c.32.87.73,2.09,1.16,3.43l.6,1.9a1.45,1.45,0,0,1,.09,1,.55.55,0,0,1-.39.33,1.4,1.4,0,0,1-.39,0A6.36,6.36,0,0,1,106.5,187.79Z" style="fill:#263238"></path><path d="M89.26,185.93a8.17,8.17,0,0,0-.36-3.27,3.08,3.08,0,0,0-2.38-2.06,2.61,2.61,0,0,0-2.69,2.17A3.22,3.22,0,0,0,85.47,186a4.24,4.24,0,0,0,3.68.1" style="fill:#ffbe9d"></path><path d="M87.33,185c0-.07-.36.09-.83-.05a1.49,1.49,0,0,1-1-1.41,1.07,1.07,0,0,1,.24-.88,1,1,0,0,1,.72-.22c.49,0,.84.18.87.09s-.22-.3-.81-.47a1.3,1.3,0,0,0-1.12.21,1.53,1.53,0,0,0-.45,1.31,2.06,2.06,0,0,0,.49,1.23,1.51,1.51,0,0,0,1,.52C87.08,185.36,87.38,185,87.33,185Z" style="fill:#eb996e"></path><path d="M85.87,174.06s.53,8.32,2.76,8.05,4-6.51,4-6.51,9.91.1,13.88-4.08c0,0,6.38,4.61,7.5,4.52s1.21-6.66,1.21-6.66L104.14,163l-16.35,4.27Z" style="fill:#C53F3F"></path><path d="M110.61,166.37l-.19-2.15s6.29-8.23-.79-8.95-31,9.58-27.32,15.77l2.51,2L86,175.38C92.81,171.48,101.23,168.62,110.61,166.37Z" style="fill:#263238"></path><path d="M117.51,170.05,94.7,171.11c5.25-2.29,10.56-4.2,16.11-4.76C110.81,166.35,128.6,169.08,117.51,170.05Z" style="fill:#263238"></path><path d="M110.42,164.22s-11.33,0-25.6,8.77L86,175.38s6.31-4.81,24.57-9Z" style="fill:#455a64"></path><path d="M108,157.86c.1.15,1.61,2.06,1.61,2.06l-1.2,2.21-1.6.29L105,160.48l1-2.29Z" style="fill:#C53F3F"></path><path d="M148,236.25c0-1.84,0-3.67.11-5.49-.46.26-.91.53-1.38.77-2.36,1.24-23.14-15-23.14-15l-12.89,16.12s1.51,3.42,24.2,16.81c4.33,2.56,9,2.66,13.81,1.19C148.23,245.93,148,241.12,148,236.25Z" style="fill:#eb996e"></path><path d="M90.49,205.46c-4.61-.31-11.31,1.26-14.84,7.44l-1.81,13.33,5.53,22.29C81,255,75.05,261,76.89,271l43.62,11.79-.68-30.12.53-8.59,8.25,5.35,14.94-18.94L127.9,217.21c-13.71-13.1-21.63-10.61-21.63-10.61" style="fill:#455a64"></path><path d="M115.55,228.65a1.79,1.79,0,0,1,.71.18,8,8,0,0,1,1.77.94,9.57,9.57,0,0,1,3.36,11.83,8.15,8.15,0,0,1-1,1.72c-.29.37-.48.55-.51.53s.6-.86,1.19-2.39a9.73,9.73,0,0,0-3.24-11.39C116.51,229.07,115.51,228.74,115.55,228.65Z" style="fill:#263238"></path><polygon points="87.34 206.65 89.47 201.5 106.93 202.53 109.85 208.27 87.34 206.65" style="fill:#455a64"></polygon><path d="M115.72,229a25,25,0,0,1,.14-3.43,48.08,48.08,0,0,0,0-8.22,21.42,21.42,0,0,0-2.31-7.8c-1-1.85-1.93-2.8-1.85-2.86a3.05,3.05,0,0,1,.68.63,13.07,13.07,0,0,1,1.49,2.05,19.75,19.75,0,0,1,2.51,7.92,39,39,0,0,1-.11,8.31c-.11,1.06-.23,1.91-.32,2.5A3.45,3.45,0,0,1,115.72,229Z" style="fill:#263238"></path><path d="M112.44,234.13a1.74,1.74,0,0,1,0,.47c0,.37,0,.82,0,1.36,0,1.18,0,2.88,0,5,0,4.21-.15,10-.42,16.46s-.55,12.16-.75,16.45c-.1,2-.19,3.72-.25,5,0,.54-.07,1-.09,1.35a1.62,1.62,0,0,1-.07.47,2.15,2.15,0,0,1,0-.47v-1.36c0-1.18,0-2.88.08-5,.11-4.21.34-10,.6-16.45s.46-12.24.58-16.45c0-2,.1-3.72.13-5,0-.54,0-1,0-1.36A1.47,1.47,0,0,1,112.44,234.13Z" style="fill:#263238"></path><polygon points="106.51 209 104.12 248.99 112.55 260.95 115.55 251.6 107.93 208.8 106.51 209" style="fill:#C53F3F"></polygon><path d="M87.6,205.17a19.58,19.58,0,0,1,3.22.05c2,.1,4.72.27,7.74.49,2.42.18,4.65.36,6.43.52l-.21.13c.56-1.25,1-2.3,1.25-3a6.28,6.28,0,0,1,.44-1.15,14.34,14.34,0,0,1-1.3,4.35l-.06.13H105c-1.79-.1-4-.24-6.44-.42-3-.22-5.76-.45-7.73-.64A20.73,20.73,0,0,1,87.6,205.17Z" style="fill:#263238"></path><path d="M89,205.5s-6.54.42-9.54,5.06l6.42.82s4.53-6,9.95-5.6Z" style="fill:#C53F3F"></path><path d="M87,210.11a13,13,0,0,1-3.31-.21,12.4,12.4,0,0,1-3.28-.58,9.54,9.54,0,0,1,3.34.06A9.29,9.29,0,0,1,87,210.11Z" style="fill:#263238"></path><path d="M113.47,455.71l-.07-8.7-16.3,0,0,12.73,1,.06c4.5.24,22.89.92,25.9,0C127.33,458.81,113.47,455.71,113.47,455.71Z" style="fill:#C53F3F"></path><g style="opacity:0.30000000000000004"><path d="M103,459.63a5.64,5.64,0,0,0-2.08-3.47A5.49,5.49,0,0,0,97.09,455v4.56Z" style="fill:#fff"></path></g><g style="opacity:0.30000000000000004"><path d="M120.24,457.47s4.86,1.39,4.26,2.19-19.22.82-27.43.11l0-.36,21.71.16S119.3,457.51,120.24,457.47Z" style="fill:#fff"></path></g><path d="M96.84,459.4l.28,0,.81,0,3,.13c2.5.08,6,.16,9.78.16s7.28-.08,9.78-.17l3-.13.8,0,.28,0h-1.09l-3,.06c-2.5.05-6,.11-9.78.11s-7.27-.05-9.78-.1l-3-.06H96.84Z" style="fill:#263238"></path><path d="M118.8,459.82a7.16,7.16,0,0,1,.55-1.42,7.24,7.24,0,0,1,1-1.13,2.66,2.66,0,0,0-1.56,2.55Z" style="fill:#263238"></path><path d="M114,457.38c.05,0,.28-.25.51-.62s.4-.7.35-.73-.28.25-.51.62S113.94,457.36,114,457.38Z" style="fill:#263238"></path><path d="M112.67,456.69s.29-.13.57-.39.48-.49.45-.53-.3.13-.58.39S112.63,456.65,112.67,456.69Z" style="fill:#263238"></path><path d="M111.83,455.15c0,.06.38.1.85.11a2.15,2.15,0,0,0,.86-.09c0-.06-.38-.1-.85-.11A2.15,2.15,0,0,0,111.83,455.15Z" style="fill:#263238"></path><path d="M111.55,454.07a2.41,2.41,0,0,0,1.92.14,5.42,5.42,0,0,0-1-.07A5,5,0,0,0,111.55,454.07Z" style="fill:#263238"></path><path d="M114.54,456a3.1,3.1,0,0,0,1,0,5.45,5.45,0,0,0,1.11-.24,3.14,3.14,0,0,0,.64-.27.57.57,0,0,0,.26-.32.41.41,0,0,0-.16-.42,1.92,1.92,0,0,0-2.37.56,1.82,1.82,0,0,0-.34.7.55.55,0,0,0,0,.29,3,3,0,0,1,.47-.9,2,2,0,0,1,.9-.58,1.64,1.64,0,0,1,1.25.08c.16.13.1.32-.09.43a3,3,0,0,1-.58.25,7.7,7.7,0,0,1-1.08.29C114.94,455.93,114.54,455.93,114.54,456Z" style="fill:#263238"></path><path d="M114.81,456s.17-.25.12-.72a1.73,1.73,0,0,0-.28-.77,1.07,1.07,0,0,0-.88-.53.41.41,0,0,0-.32.48,1.1,1.1,0,0,0,.18.47,3.45,3.45,0,0,0,.49.63,1.61,1.61,0,0,0,.6.43s-.2-.19-.49-.52a3.64,3.64,0,0,1-.44-.63c-.15-.22-.25-.62,0-.67s.53.24.69.45a1.73,1.73,0,0,1,.29.68A2.73,2.73,0,0,1,114.81,456Z" style="fill:#263238"></path><path d="M97.17,454.94a10.68,10.68,0,0,1,1.2,0,5.13,5.13,0,0,1,4.28,3.39c.25.7.27,1.17.31,1.17a.94.94,0,0,0,0-.33,4.55,4.55,0,0,0-.18-.88,4.93,4.93,0,0,0-4.39-3.49,4.17,4.17,0,0,0-.9,0C97.28,454.89,97.17,454.92,97.17,454.94Z" style="fill:#263238"></path><path d="M98.85,448.15a30.57,30.57,0,0,0-.13,3.35,25.23,25.23,0,0,0,.06,3.35,30.57,30.57,0,0,0,.13-3.35A27.45,27.45,0,0,0,98.85,448.15Z" style="fill:#263238"></path><path d="M105,458a9.54,9.54,0,0,0,2.38.23,9.12,9.12,0,0,0,2.39-.19c0-.06-1.07,0-2.39,0S105,458,105,458Z" style="fill:#263238"></path><path d="M101.84,458s.09.22.19.47.17.46.23.46.08-.26-.05-.54S101.87,458,101.84,458Z" style="fill:#263238"></path><path d="M100.63,456.54s.07.21.24.38.33.28.37.24-.06-.21-.23-.38S100.67,456.5,100.63,456.54Z" style="fill:#263238"></path><path d="M98.91,455.86c0,.05.23.05.47.14s.41.21.45.17-.09-.26-.39-.36S98.89,455.81,98.91,455.86Z" style="fill:#263238"></path><path d="M97.68,455.54s.08.13.21.18.26.06.28,0-.07-.14-.21-.19S97.7,455.49,97.68,455.54Z" style="fill:#263238"></path><path d="M60.29,434.07l6.93-5.27-9.8-13-10.2,7.61.55.84c2.5,3.75,13,18.87,15.52,20.73C66.12,447,60.29,434.07,60.29,434.07Z" style="fill:#C53F3F"></path><g style="opacity:0.30000000000000004"><path d="M50.87,428a5.66,5.66,0,0,0,1.53-3.75,5.51,5.51,0,0,0-1.34-3.75l-3.65,2.73Z" style="fill:#fff"></path></g><g style="opacity:0.30000000000000004"><path d="M63,440.54s1.79,4.73.79,4.72-12.17-14.89-16.52-21.88l.3-.2L60.4,440.65S62.35,439.81,63,440.54Z" style="fill:#fff"></path></g><path d="M47.38,423a1,1,0,0,0,.14.24l.44.67,1.68,2.45c1.43,2.05,3.44,4.87,5.73,7.93s4.43,5.78,6,7.73l1.88,2.29.52.62a1.14,1.14,0,0,0,.19.2,1.5,1.5,0,0,0-.16-.23l-.49-.64-1.83-2.33c-1.54-2-3.66-4.71-5.95-7.76s-4.32-5.86-5.78-7.89L48,423.84c-.18-.24-.33-.46-.48-.65A1.74,1.74,0,0,0,47.38,423Z" style="fill:#263238"></path><path d="M60.2,440.8a6.87,6.87,0,0,1,1.46-.41,7,7,0,0,1,1.51.13,2.17,2.17,0,0,0-1.53-.32A2.19,2.19,0,0,0,60.2,440.8Z" style="fill:#263238"></path><path d="M59.26,435.49a1.77,1.77,0,0,0,.81,0c.44,0,.8-.1.8-.16a1.77,1.77,0,0,0-.81,0C59.61,435.36,59.26,435.43,59.26,435.49Z" style="fill:#263238"></path><path d="M59,434c0,.06.28.16.65.23s.68.09.69,0-.28-.16-.65-.23S59,434,59,434Z" style="fill:#263238"></path><path d="M59.76,432.42s.14.37.42.75.54.66.59.63a2,2,0,0,0-.43-.75C60.06,432.67,59.8,432.39,59.76,432.42Z" style="fill:#263238"></path><path d="M60.45,431.54a1.66,1.66,0,0,0,.35.93c.3.47.66.74.7.7a6.06,6.06,0,0,0-.53-.81C60.68,431.92,60.51,431.52,60.45,431.54Z" style="fill:#263238"></path><path d="M60.73,435.08a3.17,3.17,0,0,0,.64.83,5.56,5.56,0,0,0,.86.75,3.06,3.06,0,0,0,.6.35.57.57,0,0,0,.41,0,.42.42,0,0,0,.24-.38,1.92,1.92,0,0,0-1.87-1.56,1.69,1.69,0,0,0-.77.15c-.17.07-.25.13-.24.14a3,3,0,0,1,1-.15,1.85,1.85,0,0,1,1,.37,1.61,1.61,0,0,1,.68,1.05c0,.2-.19.27-.39.19a3,3,0,0,1-.55-.32,8,8,0,0,1-.88-.7C61,435.38,60.76,435.06,60.73,435.08Z" style="fill:#263238"></path><path d="M60.85,435.33a1.12,1.12,0,0,0,.66-.34,1.75,1.75,0,0,0,.44-.69,1.06,1.06,0,0,0-.1-1,.42.42,0,0,0-.58,0,1.34,1.34,0,0,0-.27.43,3.31,3.31,0,0,0-.21.77,1.58,1.58,0,0,0,0,.74,6.74,6.74,0,0,0,.12-.71,3.64,3.64,0,0,1,.24-.73c.09-.25.35-.57.55-.39a.94.94,0,0,1,.05.82,1.75,1.75,0,0,1-.36.65A4,4,0,0,1,60.85,435.33Z" style="fill:#263238"></path><path d="M51.14,420.56a9.52,9.52,0,0,1,.69,1,5.29,5.29,0,0,1,.71,2.75,5.19,5.19,0,0,1-.87,2.7c-.41.62-.77.92-.74.95s.1-.06.26-.2a4.32,4.32,0,0,0,.6-.67,5,5,0,0,0,.16-5.61,4.43,4.43,0,0,0-.56-.7C51.24,420.62,51.15,420.55,51.14,420.56Z" style="fill:#263238"></path><path d="M57.58,417.84a26.73,26.73,0,0,0-2.76,1.89,32.46,32.46,0,0,0-2.65,2.06,27.34,27.34,0,0,0,2.77-1.9A30,30,0,0,0,57.58,417.84Z" style="fill:#263238"></path><path d="M53.37,428.71a8.83,8.83,0,0,0,1.24,2.05,10,10,0,0,0,1.58,1.79c.05,0-.65-.85-1.42-1.91S53.42,428.68,53.37,428.71Z" style="fill:#263238"></path><path d="M51.46,426.15c-.06,0-.13.21-.26.44s-.27.41-.23.46.25-.09.4-.36S51.51,426.16,51.46,426.15Z" style="fill:#263238"></path><path d="M51.93,424.29s-.12.18-.16.42,0,.43,0,.44.13-.18.17-.41S52,424.3,51.93,424.29Z" style="fill:#263238"></path><path d="M51.45,422.5s.09.22.17.46.07.46.13.47.15-.23,0-.53S51.48,422.46,51.45,422.5Z" style="fill:#263238"></path><path d="M51,421.33s-.07.14,0,.28.12.24.17.22.06-.14,0-.28S51,421.31,51,421.33Z" style="fill:#263238"></path><polygon points="104.94 206.69 106.51 209 107.93 208.8 108.86 206.33 106.89 202.5 104.94 206.69" style="fill:#C53F3F"></polygon><path d="M120.51,282.83s12.49,83,10.69,86.93-62.67,68.61-62.67,68.61l-18.34-22.2s50.65-56.53,50.27-58.06S82.51,276,82.51,276Z" style="fill:#263238"></path><path d="M72.27,434.39a5.2,5.2,0,0,1-.79-.82c-.49-.55-1.18-1.36-2-2.38-1.67-2-3.92-4.87-6.3-8.1s-4.42-6.23-5.86-8.43c-.71-1.1-1.28-2-1.66-2.63a4.82,4.82,0,0,1-.55-1,4.67,4.67,0,0,1,.72.89l1.8,2.53c1.51,2.15,3.6,5.1,6,8.33s4.57,6.1,6.17,8.18l1.87,2.48A4.73,4.73,0,0,1,72.27,434.39Z" style="fill:#455a64"></path><path d="M111.65,280.55l8.86,2.28-10.8,11c4.14,22.37,13.34,64.46,12.27,78.79-1.41,19-2.41,80.32-2.41,80.32L92.4,451.83l1.82-80.24L73,300.45a35.87,35.87,0,0,1,2.46-26.62L76.89,271Z" style="fill:#263238"></path><path d="M93.06,278.41a5.33,5.33,0,0,1-.28,2.43,9.58,9.58,0,0,1-8,6.87,7.82,7.82,0,0,1-2.9-.11h0c-.2,0-.29,0-.29,0s.08-.06.27-.11h0a12,12,0,0,0,2.81-.16,9.92,9.92,0,0,0,7.74-6.59C92.92,279.34,93,278.41,93.06,278.41Z" style="fill:#455a64"></path><path d="M119.68,447a3.62,3.62,0,0,1-1.06,0l-2.89-.16-9.5-.47c-3.72-.18-7.09-.4-9.51-.64-1.22-.12-2.2-.24-2.88-.34a4,4,0,0,1-1-.21,4.54,4.54,0,0,1,1.06,0l2.88.17,9.51.49c3.72.18,7.08.39,9.51.63,1.22.11,2.2.22,2.87.32A5,5,0,0,1,119.68,447Z" style="fill:#455a64"></path><path d="M107.62,289.86s0,.07.08.23.1.4.17.68c.14.64.35,1.52.6,2.63.51,2.33,1.24,5.63,2.13,9.69,1.76,8.24,4.17,19.55,6.84,32,1.3,6.26,2.62,12.21,3.58,17.68a118.41,118.41,0,0,1,1.81,14.63,66.14,66.14,0,0,1-.15,9.93c-.08,1.17-.23,2.08-.31,2.69-.05.28-.08.5-.11.69s-.05.24-.06.23,0-.08,0-.24,0-.41.05-.7c0-.61.16-1.51.22-2.68a73.52,73.52,0,0,0,0-9.9,121.84,121.84,0,0,0-1.91-14.57c-1-5.44-2.31-11.39-3.62-17.66l-6.69-32.06c-.82-4.07-1.49-7.39-2-9.73-.21-1.12-.38-2-.51-2.65q-.06-.42-.12-.69A.87.87,0,0,1,107.62,289.86Z" style="fill:#455a64"></path><path d="M92.8,366.83a6.71,6.71,0,0,1,.45,1.22c.29.89.66,2.05,1.12,3.49v0c-.06,4.45-.2,11.65-.41,19.77-.18,6.83-.37,13-.54,17.48-.09,2.18-.16,4-.22,5.3,0,.57-.06,1.05-.08,1.44a1.82,1.82,0,0,1-.07.5,1.77,1.77,0,0,1,0-.5c0-.39,0-.87,0-1.44,0-1.34,0-3.13.06-5.31.07-4.47.2-10.65.38-17.48.21-8.12.44-15.32.61-19.77v.05c-.4-1.46-.73-2.64-1-3.53A8.07,8.07,0,0,1,92.8,366.83Z" style="fill:#455a64"></path><path d="M163.15,241.26c.62-2,8.25-6.14,7.1-7.26-1.5-1.47-7.77,4.67-8.34,5.15s-1.26-.35-.72-.75c.77-.58,8.71-6.89,7.25-8.35-.81-.8-2.09.83-2.09.83s-7,6.46-7.67,5.75,3.31-4.65,4.75-5.89,1.43-2.39.39-2.59c-.71-.13-5.2,3.53-6.59,4.78s-5.16,4.75-4.66,1.48a.76.76,0,0,0,0-.15c.58-3.2,0-5.86-.74-6.51a1.13,1.13,0,0,0-1.82.89,1.31,1.31,0,0,0,0,.48c0,.07,0,.16.05.24a16.09,16.09,0,0,1-.23,3.33,8.7,8.7,0,0,1-.92,2.83c-.54,1-1.05,1.88-1.49,2.58-5.11,2.82-19.79,10.24-34.5,11.37-2.65.2-20.62-24.28-20.62-24.28L78.51,238.85C80.3,241.91,86,249,95,261.27c14.65,20,60.74-13.14,60.74-13.14h0l.43-.21a105.43,105.43,0,0,0,10.18-5.71c4-2.78,3.73-3.15,3.34-3.56C168.63,237.53,162.54,243.27,163.15,241.26Z" style="fill:#ffbe9d"></path><path d="M86.13,212.27a7.82,7.82,0,0,0-11.7,4.22c-1.16,3.81-1.42,9.19.88,16.54a76.5,76.5,0,0,0,18.17,30.3l17-17.31c-6.27-8.94-11.67-17.19-17.13-26.24l-7.17-7.51Z" style="fill:#455a64"></path><path d="M110.73,245.67a3.65,3.65,0,0,1-.54.78c-.37.48-.92,1.16-1.62,2-1.41,1.65-3.43,3.86-5.78,6.18s-4.59,4.3-6.26,5.69c-.83.69-1.52,1.23-2,1.6a3.42,3.42,0,0,1-.79.52,27.15,27.15,0,0,1,2.55-2.4c1.6-1.45,3.79-3.47,6.13-5.78s4.4-4.47,5.87-6.05A28.46,28.46,0,0,1,110.73,245.67Z" style="fill:#263238"></path><path d="M76.49,236.49a6.1,6.1,0,0,1,.6,1.06c.35.69.88,1.68,1.56,2.9,1.34,2.43,3.31,5.73,5.62,9.3s4.47,6.74,6,9l1.86,2.72a6.25,6.25,0,0,1,.64,1,5.23,5.23,0,0,1-.8-.92c-.48-.61-1.17-1.51-2-2.63-1.65-2.25-3.88-5.39-6.18-9s-4.24-6.92-5.51-9.41c-.63-1.24-1.11-2.27-1.41-3A5.64,5.64,0,0,1,76.49,236.49Z" style="fill:#263238"></path><path d="M107.29,241.61A27.59,27.59,0,0,1,104.8,244l-6.09,5.76c-2.37,2.26-4.56,4.27-6.2,5.66-.81.7-1.49,1.25-2,1.62s-.75.56-.78.53a26.34,26.34,0,0,1,2.5-2.42l6.08-5.77c2.38-2.26,4.56-4.26,6.2-5.66.82-.7,1.49-1.25,2-1.62A3.94,3.94,0,0,1,107.29,241.61Z" style="fill:#263238"></path><polygon points="91.74 245.48 100.93 256.05 106.18 250.76 96.54 241.02 91.74 245.48" style="fill:#C53F3F"></polygon><path d="M95.28,243.88c.06.05-.1.28,0,.64a.61.61,0,0,0,1,.38.6.6,0,0,0,0-1c-.31-.22-.58-.15-.61-.22s.26-.31.78-.11a1.06,1.06,0,0,1,.61.7,1.1,1.1,0,0,1-1.61,1.15,1.06,1.06,0,0,1-.46-.81C94.9,244,95.25,243.82,95.28,243.88Z" style="fill:#263238"></path><path d="M83.16,211s.12,0,.37,0a4,4,0,0,1,1,.14,9,9,0,0,1,3.48,1.8c2.65,2.07,5.54,5.81,8,10.46v0l1.79,2.75c3.23,5.07,6.09,9.7,8.33,12.93,1.11,1.63,2,2.91,2.69,3.8a11.17,11.17,0,0,1,1,1.41,11.29,11.29,0,0,1-1.13-1.28c-.7-.86-1.68-2.11-2.84-3.72-2.32-3.19-5.23-7.79-8.46-12.86l-1.78-2.74v0h0c-2.43-4.59-5.24-8.34-7.77-10.42a9.64,9.64,0,0,0-3.32-1.9C83.66,211.06,83.16,211.08,83.16,211Z" style="fill:#263238"></path></g></svg>