<svg xmlns="http://www.w3.org/2000/svg" viewBox="0 0 360.13 147.53"><defs><style>.cls-1{fill:#fff;}.cls-2{fill:#eeaa1e;}</style></defs><title>资源 1@1x</title><g id="图层_2" data-name="图层 2"><g id="图层_1-2" data-name="图层 1"><path class="cls-1" d="M1.33,147.3,0,137.08H1.79l.58,5.9.22,2.19.9-2.1,2.68-6H8L8.44,143l.16,2,.94-2,2.79-5.91H14L9,147.3H7.22l-.55-6.12-.08-1.74L3.13,147.3Z"/><path class="cls-1" d="M35.25,147.3l-1.33-10.22h1.79l.58,5.9.22,2.19.9-2.1,2.68-6h1.78l.49,5.93.16,2,.94-2,2.79-5.91h1.68l-5,10.22h-1.8l-.55-6.12-.08-1.74-3.46,7.86Z"/><path class="cls-1" d="M69.17,147.3l-1.33-10.22h1.79l.58,5.9.22,2.19.9-2.1,2.68-6h1.78l.49,5.93.16,2,.94-2,2.79-5.91h1.68l-5,10.22h-1.8l-.55-6.12-.08-1.74L71,147.3Z"/><path class="cls-1" d="M100.6,147.3l.35-2h2l-.34,2Z"/><path class="cls-1" d="M124.13,147.3l4.66-5.31-2.58-4.91h2.16l1.15,2.4c.21.45.38.84.51,1.14.35-.42.68-.79,1-1.12l2.15-2.42h2.07l-4.38,4.81,2.85,5.41h-2.13L130,144.12l-.4-.85-3.4,4Z"/><path class="cls-1" d="M158.88,145.75l0,1.53a7,7,0,0,1-1.33.15,2.64,2.64,0,0,1-1.41-.3,1.28,1.28,0,0,1-.6-.78,6.31,6.31,0,0,1,.15-2l1-5.88h-1.27l.24-1.35h1.26l.45-2.52,1.9-1-.62,3.56h1.74l-.24,1.35h-1.74l-1.05,6a2.86,2.86,0,0,0-.08,1,.53.53,0,0,0,.24.33,1,1,0,0,0,.57.13A7,7,0,0,0,158.88,145.75Z"/><path class="cls-1" d="M180.25,142.19a6.38,6.38,0,0,1,2.32-4.2,5.54,5.54,0,0,1,3.41-1.14,3.83,3.83,0,0,1,3.2,1.38,4.65,4.65,0,0,1,.67,3.82,8,8,0,0,1-1.14,3.1,5.44,5.44,0,0,1-2,1.75,5.65,5.65,0,0,1-2.58.63,3.85,3.85,0,0,1-3.23-1.38A4.87,4.87,0,0,1,180.25,142.19Zm1.78,0a3.9,3.9,0,0,0,.34,2.94,2.26,2.26,0,0,0,2,1,3.27,3.27,0,0,0,2.32-1,5.33,5.33,0,0,0,1.38-3,3.8,3.8,0,0,0-.35-2.87,2.27,2.27,0,0,0-2-1,3.3,3.3,0,0,0-2.33,1A5.16,5.16,0,0,0,182,142.19Z"/><path class="cls-1" d="M210.64,147.3l1.81-10.22H214l-.25,1.44a4.73,4.73,0,0,1,1.49-1.21,4.13,4.13,0,0,1,1.9-.46,3,3,0,0,1,1.78.47,2,2,0,0,1,.79,1.32,4.51,4.51,0,0,1,3.47-1.79,2.62,2.62,0,0,1,2.19.85,3.17,3.17,0,0,1,.36,2.59l-1.24,7h-1.72l1.14-6.44a4.6,4.6,0,0,0,.09-1.49,1.16,1.16,0,0,0-.48-.74,1.7,1.7,0,0,0-1-.28,2.84,2.84,0,0,0-1.91.72,3.79,3.79,0,0,0-1.12,2.29l-1.05,5.94h-1.73l1.17-6.64a2.69,2.69,0,0,0-.11-1.73,1.37,1.37,0,0,0-1.29-.58,2.87,2.87,0,0,0-1.42.39,2.8,2.8,0,0,0-1.09,1.12,6.86,6.86,0,0,0-.66,2.14l-.93,5.3Z"/><path class="cls-1" d="M247.24,147.3l.35-2h2l-.35,2Z"/><path class="cls-1" d="M279.24,143.56l1.66.22a5.51,5.51,0,0,1-1.91,2.75,4.82,4.82,0,0,1-3,1,3.68,3.68,0,0,1-3.13-1.37,5,5,0,0,1-.58-3.93,8.21,8.21,0,0,1,1.06-2.89,5,5,0,0,1,2-1.87,5.63,5.63,0,0,1,2.54-.62,3.63,3.63,0,0,1,2.58.85,3.19,3.19,0,0,1,.93,2.39l-1.73.25a2.26,2.26,0,0,0-.58-1.54,1.83,1.83,0,0,0-1.38-.52,3.22,3.22,0,0,0-2.29.93,5.28,5.28,0,0,0-1.34,3,4.18,4.18,0,0,0,.26,3,2.14,2.14,0,0,0,1.89.94,2.86,2.86,0,0,0,1.82-.63A3.9,3.9,0,0,0,279.24,143.56Z"/><path class="cls-1" d="M301.72,142.19A6.33,6.33,0,0,1,304,138a5.54,5.54,0,0,1,3.41-1.14,3.85,3.85,0,0,1,3.2,1.38,4.62,4.62,0,0,1,.66,3.82,7.68,7.68,0,0,1-1.14,3.1,5.29,5.29,0,0,1-2,1.75,5.58,5.58,0,0,1-2.57.63,3.85,3.85,0,0,1-3.23-1.38A4.83,4.83,0,0,1,301.72,142.19Zm1.78,0a4,4,0,0,0,.33,2.94,2.29,2.29,0,0,0,2,1,3.23,3.23,0,0,0,2.31-1,5.27,5.27,0,0,0,1.39-3,3.79,3.79,0,0,0-.36-2.87,2.25,2.25,0,0,0-2-1,3.28,3.28,0,0,0-2.33,1A5.16,5.16,0,0,0,303.5,142.19Z"/><path class="cls-1" d="M332.11,147.3l1.8-10.22h1.55l-.25,1.44a4.62,4.62,0,0,1,1.49-1.21,4.13,4.13,0,0,1,1.9-.46,3,3,0,0,1,1.78.47,2.06,2.06,0,0,1,.79,1.32,4.49,4.49,0,0,1,3.47-1.79,2.62,2.62,0,0,1,2.19.85,3.25,3.25,0,0,1,.36,2.59l-1.24,7h-1.72l1.13-6.44a4.4,4.4,0,0,0,.1-1.49,1.16,1.16,0,0,0-.48-.74,1.7,1.7,0,0,0-1-.28,2.87,2.87,0,0,0-1.92.72,3.73,3.73,0,0,0-1.11,2.29l-1,5.94h-1.73l1.17-6.64a2.62,2.62,0,0,0-.12-1.73,1.34,1.34,0,0,0-1.28-.58,2.84,2.84,0,0,0-1.42.39,2.89,2.89,0,0,0-1.1,1.12,7.17,7.17,0,0,0-.65,2.14l-.94,5.3Z"/><polygon class="cls-1" points="98.9 46.07 73.08 46.07 53.57 66.04 37.66 81.3 0.16 118.73 25.89 118.73 47.48 96.22 59.84 118.73 86.83 118.73 63.8 80.48 98.9 46.07"/><polygon class="cls-1" points="51.7 63.26 42.89 46.07 16.06 46.07 35.81 78.29 51.7 63.26"/><polyline class="cls-1" points="116.28 32.77 98.29 118.73 121.44 118.73 139.43 32.77 173.38 32.77 176.81 16.26 119.95 16.26"/><polygon class="cls-2" points="116.51 16.26 85.67 16.26 82.25 32.77 112.82 32.77 116.51 16.26"/><path class="cls-1" d="M359.61,58.86a15.42,15.42,0,0,0-7.54-9.29q-5.67-3.16-14.83-3.16a37.39,37.39,0,0,0-14.11,2.79,50.16,50.16,0,0,0-13.57,8.46,17.48,17.48,0,0,0-7.87-8.46q-5.28-2.79-13.26-2.79-15,0-28.23,11.25l2-9.65H241.94l-14.65,70.72h22l7.12-34.36q2.12-10.2,4.78-14.59a17.77,17.77,0,0,1,7.22-6.72A20.81,20.81,0,0,1,278,60.73c2.81,0,4.94.48,6.38,1.46a6.56,6.56,0,0,1,2.72,4.46q.56,3-1.59,13.32l-8,38.76h22l7-34q2.07-10,4.83-14.62a18.37,18.37,0,0,1,7.32-7,19.52,19.52,0,0,1,9.18-2.39q6.33,0,8.56,4,1.63,3.06-.55,13.59l-8.37,40.42h22l9.37-45.22Q361,63.39,359.61,58.86Z"/><path class="cls-1" d="M218.71,56.28Q208.83,46,190,46a59.4,59.4,0,0,0-23.05,4.52,46.39,46.39,0,0,0-18,13.11q-7.2,8.58-9.13,17.75-2.53,12,1.11,20.35t13.09,12.68a49.67,49.67,0,0,0,20.88,4.33,54.56,54.56,0,0,0,32.81-10.39Q222,98,225.31,82.2T218.71,56.28ZM202.84,82.4c-2.06,11.72-13.24,21.23-25,21.23s-19.56-9.51-17.49-21.23,13.25-21.23,25-21.23S204.91,70.67,202.84,82.4Z"/><polygon class="cls-2" points="85.67 16.26 102.32 0 116.51 16.26 85.67 16.26"/></g></g></svg>