<?xml version="1.0" encoding="UTF-8"?>
<svg width="108px" height="30px" viewBox="0 0 108 30" version="1.1" xmlns="http://www.w3.org/2000/svg" xmlns:xlink="http://www.w3.org/1999/xlink">
    <!-- Generator: Sketch 52.3 (67297) - http://www.bohemiancoding.com/sketch -->
    <title>rack2</title>
    <desc>Created with Sketch.</desc>
    <g id="Page-1" stroke="none" stroke-width="1" fill="none" fill-rule="evenodd">
        <g id="home-page" transform="translate(-115.000000, -59.000000)" fill-rule="nonzero">
            <g id="rack2" transform="translate(115.000000, 59.000000)">
                <g id="Group" transform="translate(36.250000, 5.625000)" fill="#FFFFFF">
                    <polygon id="Shape" points="21.0625 5.5625 13.6875 5.5625 13.6875 20.875 7.625 20.875 7.625 5.5625 0.1875 5.5625 0.1875 0.625 21.0625 0.625 21.0625 5.5625"/>
                    <path d="M44.5625,10.6875 C44.5625,12.5625 44.125,14.3125 43.25,15.875 C42.375,17.4375 41.0625,18.6875 39.375,19.625 C37.625,20.5625 35.5625,21 33.125,21 C30.625,21 28.5,20.5 26.8125,19.5625 C25.0625,18.5625 23.8125,17.3125 22.9375,15.75 C22.125,14.1875 21.6875,12.5 21.6875,10.6875 C21.6875,8.875 22.125,7.1875 22.9375,5.625 C23.75,4.0625 25.0625,2.75 26.8125,1.8125 C28.5625,0.875 30.6875,0.375 33.1875,0.375 C35.0625,0.375 36.6875,0.625 38.1875,1.1875 C39.6875,1.75 40.875,2.5 41.8125,3.4375 C42.75,4.375 43.4375,5.5 43.9375,6.75 C44.3125,8 44.5625,9.3125 44.5625,10.6875 Z M38.3125,10.6875 C38.3125,9.9375 38.1875,9.25 38,8.625 C37.75,8 37.4375,7.4375 37,7 C36.5625,6.5625 36,6.1875 35.375,5.9375 C34.75,5.6875 34,5.5625 33.125,5.5625 C31.5,5.5625 30.1875,6.0625 29.25,7 C28.3125,7.9375 27.875,9.1875 27.875,10.75 C27.875,12.3125 28.375,13.5625 29.25,14.5 C30.1875,15.4375 31.4375,15.9375 33.0625,15.9375 C34.1875,15.9375 35.125,15.6875 35.9375,15.25 C36.75,14.8125 37.3125,14.1875 37.75,13.4375 C38.1875,12.6875 38.3125,11.6875 38.3125,10.6875 Z" id="Shape"/>
                    <polygon id="Shape" points="71.8125 20.8125 65.75 20.8125 65.75 9.125 60.25 15.875 59.75 15.875 54.25 9.125 54.25 20.8125 48.3125 20.8125 48.3125 0.625 53.8125 0.625 60 8.1875 66.25 0.625 71.75 0.625 71.75 20.8125"/>
                </g>
                <g id="Group">
                    <g transform="translate(0.000000, 0.625000)" fill="#FFFFFF" id="Shape">
                        <path d="M7.3125,11.3125 L15.5,11.3125 L5.1875,1 C4.0625,-0.125 2.1875,-0.125 1.0625,1 C-0.0625,2.125 -0.0625,4 1.0625,5.125 L7.3125,11.3125 Z"/>
                        <path d="M21.3125,17.125 L13.125,17.125 L23.9375,27.9375 C25.0625,29.0625 26.9375,29.0625 28.0625,27.9375 C29.1875,26.8125 29.1875,24.9375 28.0625,23.8125 L21.3125,17.125 Z"/>
                    </g>
                    <g fill="#B3D4FF" id="Shape">
                        <path d="M21.5625,11.9375 L28,5.5 C29.125,4.375 29.125,2.5 28,1.375 C26.875,0.25 25,0.25 23.875,1.375 L13.3125,11.9375 L21.5625,11.9375 Z"/>
                        <path d="M7.5,17.75 L1.0625,24.1875 C-0.0625,25.3125 -0.0625,27.1875 1.0625,28.3125 C2.1875,29.4375 4.0625,29.4375 5.1875,28.3125 L15.75,17.75 L7.5,17.75 Z"/>
                    </g>
                </g>
            </g>
        </g>
    </g>
</svg>