<svg xmlns="http://www.w3.org/2000/svg" viewBox="0 0 331.86 123.26"><defs><style>.cls-1,.cls-2{fill:#fff;}.cls-2{stroke:#fff;stroke-miterlimit:10;stroke-width:6px;}</style></defs><title>资源 13@1x</title><g id="图层_2" data-name="图层 2"><g id="图层_1-2" data-name="图层 1"><path class="cls-1" d="M101.11,19H82.59a.55.55,0,0,0-.51.34l-3.69,8.36a.6.6,0,0,0,.51.85H97.43a.55.55,0,0,0,.51-.34l3.69-8.36A.6.6,0,0,0,101.11,19Z"/><path class="cls-1" d="M94.93,33H76.41a.56.56,0,0,0-.51.35L70.53,45.54a.6.6,0,0,0,.51.86H89.57a.59.59,0,0,0,.51-.35l5.37-12.17A.61.61,0,0,0,94.93,33Z"/><path class="cls-1" d="M108.39,2.45H89.89a.55.55,0,0,0-.51.34l-4.81,10.9a.61.61,0,0,0,.51.86h18.53a.56.56,0,0,0,.51-.35l4.8-10.87Z"/><path class="cls-1" d="M86.16,50.86H69.75a1.14,1.14,0,0,0-1,.71L54,86.67,20.11,5.51a4.76,4.76,0,0,0-4.32-3.06H0c.06.16.11.33.18.5L46.07,113c2,4.78,7.08,6.85,11.35,4.62h0a8.5,8.5,0,0,0,1.74-1.22,9.49,9.49,0,0,0,2.71-3.66L87.18,52.63A1.24,1.24,0,0,0,86.16,50.86Z"/><rect class="cls-1" x="101.31" y="104.85" width="15" height="15" rx="7.5"/><path class="cls-1" d="M221,15.46v-10a2.91,2.91,0,0,0-2.91-2.91H144.92A2.91,2.91,0,0,0,142,5.42v110.1a2.91,2.91,0,0,0,2.91,2.92h11.34a2.92,2.92,0,0,0,2.91-2.92V65.08a1.54,1.54,0,0,1,1.54-1.54h57.38A2.91,2.91,0,0,0,221,60.63V50.57a1.34,1.34,0,0,0-.05-.35V15.8A1.27,1.27,0,0,0,221,15.46Zm-15.8,32.2a1.54,1.54,0,0,1-1.54,1.54H160.71a1.54,1.54,0,0,1-1.54-1.54V18.37a1.54,1.54,0,0,1,1.54-1.54h42.95a1.54,1.54,0,0,1,1.54,1.54Z"/><path class="cls-2" d="M328.86,88.31q0,14.73-10,23.33T291,120.26q-16.63,0-26.59-7-9.63-6.75-12.39-19.67a.92.92,0,0,1,.72-1.09L260.43,91h0q4.31,22.24,29.55,22.24,14,0,21.87-6.27t7.85-18.31q0-8.65-4.9-14.07t-15.38-8.49L287.26,62.6c-2.55-.76-5.14-1.52-7.76-2.31a63.18,63.18,0,0,1-7.57-2.79,43.57,43.57,0,0,1-6.82-3.76,23.38,23.38,0,0,1-5.52-5.17,23.93,23.93,0,0,1-3.69-7,28.55,28.55,0,0,1-1.36-9.22q0-14,9.26-21.67T289.88,3q15.71,0,24.59,5.74,8.55,5.53,11.81,17.65a.92.92,0,0,1-.72,1.13l-7,1.28a.91.91,0,0,1-1.05-.7Q313.26,10,289.79,10,277,10,270.3,15.53t-6.69,16.34a19.12,19.12,0,0,0,2.62,10.39,21.18,21.18,0,0,0,7.48,7q4.86,2.82,19,6.71l8.78,2.42q14.77,4.05,21.08,11.16T328.86,88.31Z"/></g></g></svg>