<svg xmlns="http://www.w3.org/2000/svg" viewBox="0 0 655.34 244.4">
  <g>
    <g>
      <path d="M418.44,179.8V1.66h52.21v178.14h-52.21Z"/>
      <polygon points="49.59 153.21 49.59 2.13 25.93 2.13 22.18 2.13 0 2.13 0 179.8 111.75 179.8 111.75 159.84 111.75 157.97 111.75 153.21 49.59 153.21"/>
      <path d="M237.81,69.95c-11.2-11.12-26.95-16.69-47.23-16.69-19.23,0-34.73,5.79-46.51,17.37-11.78,11.58-17.66,26.78-17.66,45.61s5.64,34.89,16.94,46.35c11.29,11.47,27.03,17.2,47.23,17.2s35.37-5.68,46.84-17.03c11.46-11.35,17.2-26.86,17.2-46.53s-5.6-35.17-16.8-46.3ZM190.52,160.1c-13.72,0-24.84-17.03-24.84-43.57s11.12-43.16,24.84-43.16c15.86,0,24.84,16.63,24.84,43.16s-11.12,43.57-24.84,43.57Z"/>
      <path d="M352.98,166.06c-18.1,0-32.78-22.18-32.78-49.53s14.68-49.53,32.78-49.53c11.17,0,21.04,8.45,26.96,21.35l14.19-8.07c-11.62-16.33-30.86-27.02-52.65-27.02-35.48,0-64.24,28.33-64.24,63.27s28.76,63.27,64.24,63.27c24.1,0,45.1-13.08,56.09-32.42l-15.27-8.68c-5.38,16.23-16.49,27.37-29.32,27.37Z"/>
      <polygon points="655.34 179.8 599.28 77.52 647.55 0 617.35 0 585.14 51.72 556.8 0 497.61 0 553.67 102.28 505.4 179.8 535.6 179.8 567.81 128.07 596.16 179.8 655.34 179.8"/>
    </g>
    <rect y="215.99" width="152.84" height="10.59"/>
    <g>
      <path d="M175.87,205.17v26.44h12.68v4.2h-18.39v-30.64h5.71Z"/>
      <path d="M214.61,224.61c0,3.64-1.09,6.49-3.26,8.55-2.18,2.06-5.23,3.09-9.16,3.09s-6.79-1.04-8.94-3.13c-2.15-2.09-3.23-4.92-3.23-8.5s1.08-6.47,3.24-8.5c2.16-2.03,5.18-3.04,9.07-3.04s7.06.99,9.15,2.97c2.09,1.98,3.14,4.84,3.14,8.58ZM208.97,224.61c0-5.23-2.18-7.85-6.53-7.85s-6.79,2.62-6.79,7.85c0,2.57.55,4.53,1.66,5.89,1.11,1.36,2.71,2.04,4.82,2.04,4.56,0,6.83-2.65,6.83-7.94Z"/>
      <path d="M227.45,236.24c-3.29,0-5.83-1-7.62-3-1.79-2-2.68-4.82-2.68-8.46s.91-6.63,2.74-8.67c1.83-2.04,4.41-3.06,7.75-3.06,5.44,0,8.57,2.31,9.36,6.94l-5.38.41c-.17-1.23-.61-2.16-1.32-2.77-.71-.62-1.58-.92-2.61-.92-1.76,0-3.05.65-3.87,1.94-.82,1.29-1.23,3.26-1.23,5.92s.42,4.71,1.28,6.05c.85,1.33,2.06,2,3.64,2,2.36,0,3.76-1.37,4.21-4.11l5.24.52c-.84,4.81-4.01,7.22-9.5,7.22Z"/>
      <path d="M257.98,235.81h-5.2l-.19-3.52c-.8,1.45-1.76,2.47-2.88,3.07-1.12.59-2.5.89-4.14.89-2.47,0-4.35-.59-5.65-1.78-1.3-1.19-1.95-2.84-1.95-4.96,0-2.32.89-4.1,2.67-5.33s4.4-1.9,7.86-2l4.1-.13v-.7c0-1.73-.3-2.98-.9-3.75-.6-.78-1.62-1.16-3.05-1.16-1.26,0-2.2.22-2.8.66-.6.44-1.01,1.13-1.23,2.06l-5.2-.76c.47-1.9,1.45-3.26,2.94-4.09,1.49-.83,3.61-1.24,6.35-1.24,3.2,0,5.54.7,7.03,2.11,1.49,1.41,2.23,3.59,2.23,6.55v14.09ZM247.21,232.72c1.67,0,2.99-.54,3.95-1.62.97-1.08,1.45-2.47,1.45-4.16v-2.02l-2.55.09c-2.29.1-3.94.48-4.95,1.13s-1.51,1.67-1.51,3.07c0,2.35,1.2,3.52,3.6,3.52Z"/>
      <path d="M263.28,235.81v-31.62h5.38v31.62h-5.38Z"/>
      <path d="M292.28,235.81h-5.71v-30.64h5.71v30.64Z"/>
      <path d="M314.26,235.81v-12.46c0-2.26-.38-3.88-1.14-4.87-.76-.99-1.95-1.48-3.59-1.48-1.76,0-3.15.63-4.15,1.89-1.01,1.26-1.51,2.97-1.51,5.13v11.79h-5.38v-17.16c0-1.72-.07-3.44-.21-5.13h5.13c.17,2.17.26,3.61.26,4.31h.09c.92-1.67,1.99-2.88,3.21-3.63,1.22-.75,2.78-1.13,4.7-1.13,2.67,0,4.67.73,6,2.2,1.33,1.46,2,3.73,2,6.78v13.76h-5.41Z"/>
      <path d="M332.06,236.2c-1.87,0-3.35-.5-4.43-1.49-1.08-.99-1.63-2.42-1.63-4.27v-13.29h-3.53v-3.63h3.6l1.71-5.39h3.58v5.39h5.78v3.63h-5.78v12.03c0,2.2,1.01,3.31,3.02,3.31.95,0,1.97-.09,3.07-.28v3.35c-1.78.43-3.57.65-5.38.65Z"/>
      <path d="M344.92,225.61c.08,2.28.62,4.03,1.63,5.25,1.01,1.23,2.38,1.84,4.13,1.84,1.19,0,2.24-.28,3.17-.83.93-.55,1.77-1.48,2.52-2.78l4.24,1.89c-.92,1.38-1.84,2.42-2.76,3.13s-1.99,1.24-3.22,1.6c-1.22.36-2.68.53-4.36.53-3.51,0-6.22-1.03-8.12-3.08-1.9-2.05-2.86-4.93-2.86-8.64s1-6.59,3-8.54c2-1.95,4.72-2.92,8.17-2.92s6.03,1.04,7.84,3.12c1.81,2.08,2.71,5.02,2.71,8.82v.61h-16.08ZM350.26,216.52c-1.58,0-2.83.52-3.77,1.57s-1.44,2.49-1.52,4.33h10.44c-.16-1.97-.64-3.45-1.45-4.43-.81-.98-2.04-1.47-3.7-1.47Z"/>
      <path d="M375.87,217.21c-1.75,0-3.14.71-4.19,2.14-1.05,1.43-1.57,3.35-1.57,5.77v10.68h-5.38v-16.79c0-2.35-.05-4.18-.16-5.5h5.13c.16,1.74.23,3.42.23,5.04h.09c.75-2.06,1.61-3.49,2.6-4.29.98-.8,2.28-1.21,3.88-1.21.73,0,1.34.09,1.83.28v4.11c-.8-.16-1.61-.24-2.46-.24Z"/>
      <path d="M396.8,235.81v-12.46c0-2.26-.38-3.88-1.13-4.87-.76-.99-1.95-1.48-3.59-1.48-1.76,0-3.15.63-4.15,1.89-1.01,1.26-1.51,2.97-1.51,5.13v11.79h-5.38v-17.16c0-1.72-.07-3.44-.21-5.13h5.13c.17,2.17.26,3.61.26,4.31h.09c.92-1.67,1.99-2.88,3.21-3.63,1.22-.75,2.79-1.13,4.7-1.13,2.67,0,4.67.73,6,2.2,1.33,1.46,2,3.73,2,6.78v13.76h-5.41Z"/>
      <path d="M411.63,225.61c.08,2.28.62,4.03,1.63,5.25,1.01,1.23,2.38,1.84,4.13,1.84,1.19,0,2.24-.28,3.17-.83.93-.55,1.77-1.48,2.52-2.78l4.24,1.89c-.92,1.38-1.84,2.42-2.76,3.13s-1.99,1.24-3.22,1.6c-1.22.36-2.68.53-4.36.53-3.51,0-6.22-1.03-8.12-3.08-1.9-2.05-2.86-4.93-2.86-8.64s1-6.59,3-8.54c2-1.95,4.72-2.92,8.17-2.92s6.03,1.04,7.84,3.12c1.81,2.08,2.71,5.02,2.71,8.82v.61h-16.08ZM416.96,216.52c-1.58,0-2.83.52-3.77,1.57s-1.44,2.49-1.52,4.33h10.44c-.16-1.97-.64-3.45-1.45-4.43-.81-.98-2.04-1.47-3.7-1.47Z"/>
      <path d="M438.58,236.2c-1.87,0-3.35-.5-4.43-1.49-1.08-.99-1.63-2.42-1.63-4.27v-13.29h-3.53v-3.63h3.6l1.71-5.39h3.58v5.39h5.78v3.63h-5.78v12.03c0,2.2,1.01,3.31,3.02,3.31.95,0,1.97-.09,3.07-.28v3.35c-1.78.43-3.57.65-5.38.65Z"/>
      <path d="M478.48,235.81h-18.93v-30.64h17.97v4.2h-12.29v8.79h10.84v4.09h-10.84v9.42h13.25v4.15Z"/>
      <path d="M490.71,221.67l5.5-8.15h5.87l-8.33,10.76,8.85,11.53h-5.87l-6.01-8.5-6.06,8.5h-5.71l8.73-11.46-8.31-10.83h5.8l5.55,8.15Z"/>
      <path d="M513.61,236.24c-3.29,0-5.83-1-7.62-3-1.79-2-2.68-4.82-2.68-8.46s.91-6.63,2.74-8.67c1.83-2.04,4.41-3.06,7.75-3.06,5.44,0,8.57,2.31,9.36,6.94l-5.38.41c-.17-1.23-.61-2.16-1.32-2.77-.71-.62-1.58-.92-2.61-.92-1.76,0-3.05.65-3.87,1.94-.82,1.29-1.23,3.26-1.23,5.92s.42,4.71,1.28,6.05c.85,1.33,2.06,2,3.64,2,2.36,0,3.76-1.37,4.21-4.11l5.24.52c-.84,4.81-4.01,7.22-9.5,7.22Z"/>
      <path d="M541.68,235.81v-12.31c0-2.29-.36-3.91-1.08-4.85-.72-.94-1.84-1.41-3.37-1.41-1.87,0-3.33.59-4.39,1.76-1.05,1.17-1.58,2.79-1.58,4.85v11.96h-5.38v-31.62h5.38v9.66c0,.65-.01,1.3-.04,1.95-.02.65-.05,1.29-.08,1.95h.09c.87-1.62,1.91-2.81,3.1-3.56,1.19-.75,2.77-1.12,4.72-1.12,2.67,0,4.67.73,6,2.19s2,3.71,2,6.75v13.81h-5.38Z"/>
      <path d="M570.54,235.81h-5.2l-.19-3.52c-.8,1.45-1.76,2.47-2.88,3.07-1.12.59-2.5.89-4.14.89-2.47,0-4.35-.59-5.65-1.78s-1.95-2.84-1.95-4.96c0-2.32.89-4.1,2.67-5.33s4.4-1.9,7.86-2l4.1-.13v-.7c0-1.73-.3-2.98-.9-3.75s-1.62-1.16-3.05-1.16c-1.26,0-2.2.22-2.8.66-.6.44-1.01,1.13-1.23,2.06l-5.2-.76c.47-1.9,1.45-3.26,2.94-4.09,1.49-.83,3.61-1.24,6.35-1.24,3.2,0,5.54.7,7.03,2.11,1.49,1.41,2.23,3.59,2.23,6.55v14.09ZM559.78,232.72c1.67,0,2.99-.54,3.96-1.62.97-1.08,1.45-2.47,1.45-4.16v-2.02l-2.55.09c-2.29.1-3.94.48-4.95,1.13-1.01.65-1.51,1.67-1.51,3.07,0,2.35,1.2,3.52,3.6,3.52Z"/>
      <path d="M591.62,235.81v-12.46c0-2.26-.38-3.88-1.13-4.87-.76-.99-1.95-1.48-3.59-1.48-1.76,0-3.15.63-4.15,1.89-1.01,1.26-1.51,2.97-1.51,5.13v11.79h-5.38v-17.16c0-1.72-.07-3.44-.21-5.13h5.13c.17,2.17.26,3.61.26,4.31h.09c.92-1.67,1.99-2.88,3.21-3.63,1.22-.75,2.79-1.13,4.7-1.13,2.67,0,4.67.73,6,2.2,1.33,1.46,2,3.73,2,6.78v13.76h-5.41Z"/>
      <path d="M600.8,224.52c0-3.68.88-6.51,2.63-8.48,1.75-1.97,4.26-2.96,7.52-2.96,1.78,0,3.34.37,4.69,1.12,1.35.75,2.38,1.8,3.08,3.16h.09c0-1.25.1-2.53.3-3.85h5.15c-.13,1.3-.19,2.96-.19,4.96v16.68c0,2.52-1.01,4.69-3.02,6.51-2.01,1.82-4.88,2.73-8.59,2.73-6.13,0-9.67-1.99-10.62-5.98l5.36-.76c.59,2.04,2.4,3.07,5.43,3.07,1.98,0,3.49-.55,4.54-1.65,1.04-1.1,1.57-2.38,1.57-3.85v-2.35c0-.48.02-.96.07-1.44h-.09c-.81,1.49-1.88,2.61-3.22,3.34-1.33.73-3.01,1.1-5.02,1.1-3.12,0-5.52-.99-7.18-2.96-1.67-1.97-2.5-4.77-2.5-8.39ZM606.44,224.52c0,5.1,2.03,7.65,6.08,7.65,2.04,0,3.6-.68,4.66-2.03,1.06-1.36,1.59-3.27,1.59-5.73s-.53-4.36-1.59-5.69c-1.06-1.33-2.6-1.99-4.61-1.99s-3.46.63-4.53,1.9c-1.07,1.27-1.6,3.23-1.6,5.88Z"/>
      <path d="M633.84,225.61c.08,2.28.62,4.03,1.63,5.25,1.01,1.23,2.38,1.84,4.13,1.84,1.19,0,2.24-.28,3.17-.83.93-.55,1.77-1.48,2.52-2.78l4.24,1.89c-.92,1.38-1.84,2.42-2.76,3.13s-1.99,1.24-3.22,1.6c-1.22.36-2.68.53-4.36.53-3.51,0-6.22-1.03-8.12-3.08-1.9-2.05-2.86-4.93-2.86-8.64s1-6.59,3-8.54c2-1.95,4.72-2.92,8.17-2.92s6.03,1.04,7.84,3.12c1.81,2.08,2.71,5.02,2.71,8.82v.61h-16.08ZM639.17,216.52c-1.58,0-2.83.52-3.77,1.57s-1.44,2.49-1.52,4.33h10.44c-.16-1.97-.64-3.45-1.45-4.43-.81-.98-2.04-1.47-3.7-1.47Z"/>
    </g>
  </g>
</svg>