<svg xmlns="http://www.w3.org/2000/svg" viewBox="0 0 447.01 422.18">
  <g>
    <rect x="51.41" y="24.55" width="35.69" height="224.53" rx="17.85" ry="17.85"/>
    <rect x="154.31" y="24.55" width="35.69" height="224.53" rx="17.85" ry="17.85"/>
    <rect x="205.66" y="77.09" width="35.69" height="224.53" rx="17.85" ry="17.85"/>
    <rect x="257.07" y="24.55" width="35.69" height="224.53" rx="17.85" ry="17.85"/>
    <rect x="0" y="77.09" width="35.69" height="224.53" rx="17.85" ry="17.85"/>
    <rect x="308.48" y="8.58" width="35.69" height="200.39" rx="17.85" ry="17.85"/>
    <rect x="359.9" y="24.55" width="35.69" height="224.53" rx="17.85" ry="17.85"/>
    <rect x="411.31" y="77.09" width="35.69" height="224.53" rx="17.85" ry="17.85"/>
    <g>
      <path d="M.42,368.4c0-4.83-.17-8.66-.42-12.5h8.01l.49,7.45h.26c2.82-4.4,7.55-8.5,16-8.5,6.87,0,12.12,3.82,14.29,9.28h.21c1.62-2.63,3.62-4.63,5.72-6.03,3.07-2.1,6.37-3.25,11.15-3.25,6.77,0,16.74,3.98,16.74,20.08v27.25h-9v-26.17c0-8.97-3.62-14.27-11-14.27-5.29,0-9.34,3.51-10.97,7.58-.44,1.22-.75,2.72-.75,4.22v28.65h-9v-27.77c0-7.37-3.57-12.67-10.53-12.67-5.74,0-9.96,4.19-11.49,8.4-.45,1.23-.7,2.7-.7,4.15v27.9H.42v-33.78Z"/>
      <path d="M88.39,380.56c.18,11.38,8.09,16.07,17.35,16.07,6.6,0,10.63-1.08,14.04-2.37l1.62,5.98c-3.22,1.35-8.86,2.95-16.91,2.95-15.58,0-24.94-9.47-24.94-23.36s9.05-24.98,23.85-24.98c16.54,0,20.86,13.25,20.86,21.77,0,1.77-.11,3.03-.32,3.95h-35.55ZM115.37,374.51c.09-5.3-2.38-13.63-12.72-13.63-9.41,0-13.42,7.77-14.15,13.63h26.87Z"/>
      <path d="M136.3,380.56c.18,11.38,8.09,16.07,17.35,16.07,6.6,0,10.63-1.08,14.04-2.37l1.62,5.98c-3.22,1.35-8.86,2.95-16.91,2.95-15.58,0-24.94-9.47-24.94-23.36s9.05-24.98,23.85-24.98c16.54,0,20.86,13.25,20.86,21.77,0,1.77-.11,3.03-.32,3.95h-35.55ZM163.28,374.51c.09-5.3-2.38-13.63-12.72-13.63-9.41,0-13.42,7.77-14.15,13.63h26.87Z"/>
      <path d="M179.02,370.31c0-5.46-.15-10.12-.42-14.41h8.08l.35,9.08h.33c2.37-6.21,7.96-10.13,14.12-10.13,1,0,1.72.06,2.56.24v7.92c-.94-.18-1.87-.24-3.14-.24-6.5,0-11.09,4.47-12.34,10.77-.24,1.18-.37,2.56-.37,3.93v24.73h-9.17v-31.87Z"/>
      <path d="M227.22,402.18v-39.91h-7.08v-6.38h7.08v-2.23c0-6.53,1.64-12.43,5.89-16.22,3.45-3.05,8.09-4.27,12.32-4.27,3.34,0,6.11.64,7.88,1.36l-1.22,6.47c-1.41-.56-3.21-1.05-5.92-1.05-7.79,0-9.83,6.3-9.83,13.45v2.5h12.25v6.38h-12.2v39.91h-9.17Z"/>
      <path d="M280.42,402.18l-.81-5.85h-.28c-2.78,3.61-8.25,6.9-15.51,6.9-10.24,0-15.48-6.64-15.48-13.28,0-11.21,10.88-17.37,30.47-17.24v-.98c0-3.76-1.16-10.73-11.54-10.68-4.72,0-9.65,1.29-13.21,3.45l-2.09-5.6c4.2-2.47,10.34-4.06,16.73-4.06,15.5,0,19.27,9.67,19.27,18.94v17.32c0,3.95.2,7.9.77,11.08h-8.31ZM278.99,378.55c-9.98-.19-21.4,1.44-21.4,10.39,0,5.52,3.98,8.06,8.61,8.06,6.68,0,10.89-3.84,12.35-7.75.32-.89.44-1.85.44-2.65v-8.05Z"/>
      <path d="M298.21,370.31c0-5.46-.15-10.12-.42-14.41h8.08l.35,9.08h.33c2.37-6.21,7.96-10.13,14.12-10.13,1,0,1.72.06,2.56.24v7.92c-.94-.18-1.87-.24-3.14-.24-6.5,0-11.09,4.47-12.34,10.77-.24,1.18-.37,2.56-.37,3.93v24.73h-9.17v-31.87Z"/>
      <path d="M327.87,402.18c.25-3.18.42-7.82.42-11.94v-56.01h9.17v29.09h.21c3.24-5.21,9.11-8.48,17.28-8.48,12.6,0,21.45,9.55,21.4,23.57,0,16.6-11.52,24.82-22.83,24.82-7.31,0-13.16-2.62-16.99-8.66h-.25l-.47,7.61h-7.95ZM337.46,383.63c0,1.04.13,2.09.38,3.05,1.73,5.85,7.17,9.85,13.83,9.85,9.7,0,15.4-7.17,15.4-17.79,0-9.31-5.27-17.27-15.13-17.27-6.25,0-12.1,3.99-13.95,10.35-.29,1.03-.53,2.16-.53,3.5v8.32Z"/>
      <path d="M393.64,342.82c0,2.86-2.2,5.23-5.86,5.23-3.34,0-5.57-2.37-5.57-5.23,0-2.89,2.35-5.24,5.73-5.24s5.67,2.3,5.7,5.24ZM383.34,402.18v-46.28h9.17v46.28h-9.17Z"/>
      <path d="M447.01,355.9c-.25,3.27-.43,7.03-.43,12.67v26.87c0,10.71-2.39,17.13-7.24,21.19-4.98,4.17-12.07,5.55-18.47,5.55s-12.81-1.31-16.92-3.81l2.31-6.47c3.38,1.93,8.6,3.71,14.92,3.71,9.41,0,16.33-4.5,16.33-16.22v-5.16h-.21c-2.77,4.35-8.3,7.8-16.11,7.8-12.64,0-21.61-9.81-21.61-22.64,0-15.69,11.18-24.54,22.89-24.54,8.8,0,13.56,4.13,15.81,7.98h.21l.38-6.93h8.14ZM437.41,374.1c0-1.38-.13-2.63-.51-3.76-1.7-4.9-6.15-8.96-12.95-8.96-8.8,0-15.1,6.79-15.1,17.55,0,9.05,5.12,16.67,15.01,16.67,5.72,0,10.85-3.3,12.83-8.68.49-1.36.73-3.01.73-4.48v-8.34Z"/>
    </g>
    <rect x="102.83" y="0" width="35.69" height="200.39" rx="17.85" ry="17.85"/>
  </g>
</svg>