<svg width="640px" height="190px" viewBox="0 0 640 190" version="1.1" xmlns="http://www.w3.org/2000/svg" xmlns:xlink="http://www.w3.org/1999/xlink">
    <g id="logo_container" stroke="none" stroke-width="1" fill="none" fill-rule="evenodd">
        <g id="logo" fill="#ffffff" fill-rule="nonzero">
            <path d="M35.944,35.707 L63.476,35.707 L60.759,45.763 C64.278024,42.6335216 68.1006402,39.8631215 72.17,37.493 C76.529316,35.0285009 81.4724345,33.7848622 86.479,33.893 C93.1183333,33.893 98.5823333,35.4516667 102.871,38.569 C107.215782,41.7671879 110.472228,46.2238561 112.199,51.335 C116.37037,46.2277247 121.471674,41.9570708 127.233,38.749 C133.282139,35.4481034 140.08486,33.7748175 146.975,33.893 C155.669,33.893 162.522,36.3986667 167.534,41.41 C172.546,46.4213333 175.051667,53.3343333 175.051,62.149 C175.022987,65.1635392 174.687924,68.1673817 174.051,71.114 C173.384333,74.314 172.629667,77.484 171.787,80.624 L157.84,132.789 L130.312,132.789 L144.621,79.407 C145.009608,77.9430203 145.311796,76.4574565 145.526,74.958 C145.749767,73.5459489 145.871084,72.1195591 145.889,70.69 C145.889,62.704 141.602333,58.71 133.029,58.708 C128.057644,58.5181301 123.243399,60.4685129 119.806,64.065 C116.195009,68.0623754 113.642085,72.9000724 112.38,78.137 L97.708,132.789 L70.177,132.789 L84.486,79.407 C84.8754444,77.9431579 85.1779726,76.4575642 85.392,74.958 C85.6147739,73.5458283 85.7360844,72.1195102 85.755,70.69 C85.755,62.704 81.468,58.71 72.894,58.708 C67.9229422,58.5181601 63.1090164,60.468561 59.672,64.065 C56.0603315,68.062048 53.5070149,72.8998385 52.245,78.137 L37.574,132.789 L10.043,132.789 L35.944,35.707 Z" id="Shape"/>
            <path d="M209.1,35.707 L236.631,35.707 L210.55,132.792 L183.018,132.792 L209.1,35.707 Z M252.759,16.021 C251.320635,21.2694114 246.408991,24.7979757 240.976,24.486 L37.3,12.8 L241,1.459 C244.703501,1.253343 248.279824,2.84180822 250.610263,5.72750945 C252.940701,8.61321068 253.740695,12.4437871 252.76,16.021 L252.759,16.021 Z" id="Shape"/>
            <path d="M265.067,133.879 C261.08057,133.154025 257.169625,132.062388 253.384,130.618 C249.565681,129.161907 245.896144,127.342208 242.426,125.184 C238.911263,123.001984 235.685804,120.38533 232.826,117.396 L248.765,100.913 C253.837,105.985 258.970333,109.426333 264.165,111.237 C268.749519,112.936588 273.586598,113.855329 278.475,113.955 C282.097,113.955 284.934333,113.230333 286.987,111.781 C289.037699,110.339708 290.201586,107.943914 290.067,105.441 C290.067,103.631 289.040333,102.031 286.987,100.641 C284.40593,98.9762295 281.677481,97.5519196 278.836,96.386 C274.969333,94.8173333 271.347,93.1566667 267.969,91.404 C264.772136,89.7771277 261.764312,87.8028761 259,85.517 C256.476913,83.436483 254.384707,80.8829655 252.841,78 C251.266449,74.8881982 250.488545,71.4343585 250.577,67.948 C250.538296,63.310368 251.463513,58.7152727 253.294,54.454 C255.059904,50.351763 257.685704,46.6763245 260.994,43.676 C264.561484,40.5133744 268.715927,38.0829552 273.221,36.523 C278.459938,34.7049723 283.976156,33.8159475 289.521,33.896 C293.385052,33.8839891 297.239631,34.278832 301.021,35.074 C304.604463,35.8309394 308.117105,36.8910884 311.521,38.243 C314.652762,39.4797619 317.681294,40.9634315 320.578,42.68 C323.114398,44.1808228 325.509236,45.9089219 327.733,47.843 L312.88,65.231 C308.89942,61.923563 304.441724,59.2368757 299.658,57.262 C295.791102,55.7389461 291.676895,54.9406469 287.521,54.907 C284.139667,54.907 281.513667,55.6313333 279.643,57.08 C277.786235,58.4939793 276.737727,60.7261656 276.835,63.058 C276.835,64.9913333 277.952,66.7116667 280.186,68.219 C283.209102,70.1482711 286.392099,71.8147109 289.7,73.2 C292.839333,74.6486667 296.009333,76.158 299.21,77.728 C302.302273,79.2290009 305.191942,81.1156862 307.81,83.343 C310.297563,85.4583972 312.383563,88.0047534 313.968,90.86 C315.585663,93.8946142 316.396582,97.2939333 316.323,100.732 C316.403928,105.664241 315.383118,110.552376 313.335,115.04 C311.402929,119.188264 308.590392,122.865857 305.093,125.817 C301.385916,128.889138 297.107835,131.197765 292.505,132.61 C287.316555,134.223328 281.908224,135.017539 276.475,134.964 C272.647483,134.945326 268.829413,134.582194 265.067,133.879 Z" id="Shape"/>
            <path d="M345.76,132.7 C335.552026,129.086771 328.802434,119.345686 329.005,108.519 C328.779987,98.463395 333.270002,88.8810452 341.141,82.619 C345.061052,79.510452 349.553875,77.2027115 354.364,75.827 C359.71935,74.2780399 365.271344,73.515407 370.846,73.563 C375.731452,73.5279284 380.61054,73.9221103 385.427,74.741 C389.751719,75.5059145 394.019275,76.5647014 398.2,77.91 L398.563,76.642 C398.803,75.555 399.044,74.442 399.288,73.292 C399.541247,72.0094327 399.662213,70.7042636 399.649,69.397 C399.721755,66.1693172 398.239144,63.1032705 395.664,61.156 C393.007333,59.0453333 388.238,57.9886667 381.356,57.986 C376.694116,57.981651 372.046322,58.497849 367.499,59.525 C363.387019,60.4232836 359.357831,61.6656583 355.454,63.239 L351.1,41.5 C356.495862,39.3497197 362.072124,37.683166 367.763,36.52 C374.140606,35.218301 380.636021,34.5815613 387.145,34.62 C400.305,34.62 410.146333,37.216 416.669,42.408 C423.191667,47.6 426.452,54.9666667 426.45,64.508 C426.453181,66.9969835 426.241057,69.4815776 425.816,71.934 C425.391333,74.3513333 424.878,76.7663333 424.276,79.179 L409.97,132.792 L383.344,132.792 L386.244,121.562 C382.589486,125.632666 378.154845,128.928127 373.203,131.253 C368.199229,133.522909 362.758202,134.666825 357.264,134.604 C353.34684,134.655562 349.451665,134.010881 345.76,132.7 Z M377.276,114.224 C379.87352,113.197635 382.289296,111.760662 384.431,109.968 C386.594614,108.167081 388.485922,106.062223 390.046,103.719 C391.59092,101.415323 392.752934,98.876856 393.487,96.202 L394.211,93.666 C391.508223,92.616628 388.721208,91.7986889 385.88,91.221 C382.663233,90.548956 379.385211,90.2138143 376.099,90.221 C370.303,90.221 365.563333,91.5793333 361.88,94.296 C358.281673,96.8429766 356.205739,101.029041 356.356,105.435 C356.288389,108.310493 357.559671,111.054408 359.797,112.862 C362.089667,114.795333 365.169,115.762 369.035,115.762 C371.854653,115.77839 374.65158,115.257084 377.276,114.226 L377.276,114.224 Z" id="Shape"/>
            <polygon id="Shape" points="469.2 0.568 496.732 0.568 478.257 69.035 517.563 35.707 553.426 35.707 506.514 73.563 527.7 132.792 496.911 132.792 483.144 91.676 469.2 102.906 461.231 132.792 433.7 132.792"/>
            <path d="M559.307,132.7 C549.099026,129.086771 542.349434,119.345686 542.552,108.519 C542.326987,98.463395 546.817002,88.8810452 554.688,82.619 C558.60818,79.5106497 563.100962,77.2029302 567.911,75.827 C573.26635,74.2780399 578.818344,73.515407 584.393,73.563 C589.278452,73.5279284 594.15754,73.9221103 598.974,74.741 C603.297672,75.5062113 607.56421,76.5649944 611.744,77.91 L612.106,76.642 C612.346,75.555 612.587,74.442 612.831,73.292 C613.084617,72.0094724 613.205919,70.7042994 613.193,69.397 C613.265355,66.1691753 611.78239,63.1031658 609.207,61.156 C606.549667,59.0453333 601.780333,57.9886667 594.899,57.986 C590.237116,57.981651 585.589322,58.497849 581.042,59.525 C576.931038,60.4234457 572.90286,61.6658184 569,63.239 L564.65,41.5 C570.046206,39.349723 575.622799,37.6831701 581.314,36.52 C587.691262,35.2182559 594.18635,34.5815154 600.695,34.62 C613.855,34.62 623.696333,37.216 630.219,42.408 C636.741667,47.6 640.002,54.9666667 640,64.508 C640.003181,66.9969835 639.791057,69.4815776 639.366,71.934 C638.941333,74.3513333 638.428333,76.7663333 637.827,79.179 L623.517,132.793 L596.891,132.793 L599.791,121.563 C596.136486,125.633666 591.701845,128.929127 586.75,131.254 C581.746229,133.523909 576.305202,134.667825 570.811,134.605 C566.89378,134.656242 562.998603,134.011221 559.307,132.7 Z M590.823,114.224 C593.420635,113.19787 595.836447,111.760875 597.978,109.968 C600.141869,108.167346 602.033212,106.062447 603.593,103.719 C605.13792,101.415323 606.299934,98.876856 607.034,96.202 L607.758,93.666 C605.055223,92.616628 602.268208,91.7986889 599.427,91.221 C596.210233,90.548956 592.932211,90.2138143 589.646,90.221 C583.85,90.221 579.110333,91.5793333 575.427,94.296 C571.828673,96.8429766 569.752739,101.029041 569.903,105.435 C569.835389,108.310493 571.106671,111.054408 573.344,112.862 C575.636667,114.795333 578.716,115.762 582.582,115.762 C585.401653,115.77839 588.19858,115.257084 590.823,114.226 L590.823,114.224 Z" id="Shape"/>
            <polygon id="Shape" points="8.441 150.726 14.817 150.726 23.977 170.707 29.365 150.726 36.19 150.726 27.749 182.157 21.866 182.157 12.348 161.546 6.824 182.157 0 182.157"/>
            <polygon id="Shape" points="43.733 150.726 67.216 150.726 65.555 156.877 48.941 156.877 47.235 163.299 61.828 163.299 60.167 169.36 45.574 169.36 43.774 176.005 60.66 176.005 59 182.157 35.292 182.157"/>
            <polygon id="Shape" points="78.486 157.1 68.923 157.1 70.623 150.723 96.666 150.723 94.96 157.1 85.4 157.1 78.665 182.154 71.75 182.154"/>
            <polygon id="Shape" points="98.287 150.726 105.471 150.726 106.279 172.008 118.942 150.636 124.868 150.636 126.305 172.008 138.519 150.726 146.331 150.726 127.113 182.381 120.692 182.381 119.166 162.22 106.866 182.381 100.535 182.381"/>
            <path d="M153.7,181.64 C150.29734,180.331348 147.595428,177.661696 146.246,174.275 C145.54628,172.526608 145.195684,170.658122 145.214,168.775 C145.216774,166.424413 145.681586,164.097295 146.582,161.926 C147.482081,159.716896 148.792519,157.698306 150.444,155.977 C152.149617,154.209692 154.176892,152.784185 156.417,151.777 C158.837567,150.693143 161.465067,150.149216 164.117,150.183 C166.12734,150.156222 168.124239,150.514326 170,151.238 C173.401925,152.546721 176.103593,155.215406 177.454,158.601 C178.152751,160.349674 178.503311,162.217967 178.486,164.101 C178.482616,166.451076 178.017118,168.777549 177.116,170.948 C176.21712,173.157259 174.907298,175.175946 173.256,176.897 C171.550961,178.664983 169.523548,180.090587 167.283,181.097 C164.86208,182.179658 162.234773,182.723203 159.583,182.69 C157.573046,182.71761 155.576301,182.36123 153.7,181.64 Z M164.894,175.24 C166.211644,174.550003 167.383475,173.611791 168.345,172.477 C169.295991,171.350547 170.044109,170.067479 170.556,168.685 C171.065666,167.366032 171.333283,165.965958 171.346,164.552 C171.357937,163.460757 171.182038,162.375596 170.826,161.344 C170.49856,160.400189 169.976253,159.535809 169.293,158.807 C168.587376,158.068569 167.723333,157.499949 166.766,157.144 C164.155166,156.219688 161.280553,156.398043 158.804,157.638 C157.486434,158.327257 156.314588,159.264802 155.353,160.399 C154.402356,161.528671 153.654325,162.814297 153.142,164.199 C152.633,165.516733 152.365725,166.915435 152.353,168.328 C152.340002,169.420546 152.515576,170.507146 152.872,171.54 C153.199708,172.48391 153.722364,173.348302 154.406,174.077 C155.111722,174.814366 155.975342,175.382249 156.932,175.738 C159.543225,176.659514 162.416713,176.481229 164.894,175.244 L164.894,175.24 Z" id="Shape"/>
            <path d="M188.538,150.726 L199.987,150.726 C201.998467,150.682067 204.004778,150.94681 205.936,151.511 C207.445208,151.963207 208.823598,152.771583 209.955,153.868 C211.599996,155.555596 212.477145,157.846312 212.38,160.201 C212.459178,162.825077 211.545311,165.382404 209.821,167.362 C207.779826,169.477706 205.125503,170.898615 202.233,171.424 L207.576,182.157 L199.718,182.157 L194.869,172.1 L189.705,172.1 L187.011,182.158 L180.1,182.158 L188.538,150.726 Z M197.518,165.946 C198.530279,165.953797 199.539938,165.842023 200.526,165.613 C201.382564,165.418866 202.201677,165.086154 202.951,164.628 C203.609278,164.227374 204.163112,163.676282 204.567,163.02 C204.967501,162.3376 205.169744,161.557024 205.151,160.766 C205.182064,159.831807 204.824313,158.926566 204.163,158.266 C203.296333,157.399333 201.77,156.966 199.584,156.966 L193.791,156.966 L191.366,165.946 L197.518,165.946 Z" id="Shape"/>
            <polygon id="Shape" points="221.18 150.726 228.1 150.726 224.373 164.644 239.9 150.726 249.24 150.726 233.928 163.883 241.337 182.157 233.749 182.157 228.449 168.012 221.938 173.581 219.648 182.157 212.733 182.157"/>
            <path d="M242.1,186.6 C243.585271,186.581784 245.028423,186.103877 246.231,185.232 C247.144869,184.440557 247.749204,183.351266 247.937,182.157 L245.153,182.157 L247.084,174.973 L254.358,174.973 L252.742,181.034 C251.962,183.996667 250.734333,186.122 249.059,187.41 C247.163221,188.767171 244.880078,189.476313 242.549,189.432 L242.1,186.6 Z" id="Shape"/>
            <polygon id="Shape" points="281.929 150.726 288.844 150.726 280.4 182.157 273.485 182.157"/>
            <polygon id="Shape" points="296.7 150.726 303.076 150.726 312.236 170.707 317.624 150.726 324.448 150.726 316.007 182.157 310.125 182.157 300.607 161.546 295.083 182.157 288.259 182.157"/>
            <path d="M334.847,181.73 C333.122349,181.135624 331.53293,180.204611 330.171,178.991 C328.85023,177.793582 327.807212,176.32189 327.115,174.679 C326.364962,172.881018 325.992914,170.947934 326.022,169 C326.011744,166.534585 326.520789,164.094644 327.516,161.839 C328.49146,159.606812 329.869028,157.573001 331.58,155.839 C333.313282,154.087959 335.366833,152.686222 337.629,151.71 C339.986165,150.682806 342.532821,150.162232 345.104,150.182 C347.756472,150.092239 350.384662,150.713723 352.716,151.982 C354.755367,153.169244 356.461545,154.852719 357.676,156.876 L351.976,160.876 C351.130961,159.643271 350.064997,158.577647 348.832,157.733 C347.454931,156.89812 345.860711,156.491559 344.252,156.565 C342.812139,156.566303 341.391628,156.896719 340.099,157.531 C338.767923,158.173973 337.56578,159.055161 336.552,160.131 C335.498488,161.255154 334.661472,162.564071 334.083,163.992 C333.464718,165.494244 333.151635,167.10453 333.162,168.729 C333.146447,169.788916 333.336977,170.841757 333.723,171.829 C334.080834,172.731572 334.623837,173.549142 335.317,174.229 C336.011139,174.904948 336.835986,175.432047 337.741,175.778 C338.73208,176.147733 339.783303,176.329832 340.841,176.315 C342.204705,176.351417 343.557942,176.06748 344.792,175.486 C346.010154,174.858343 347.154836,174.097345 348.205,173.217 L352.695,177.888 C351.17301,179.292733 349.44712,180.458948 347.576,181.347 C345.444461,182.294957 343.127989,182.754493 340.796,182.692 C338.772503,182.714897 336.760151,182.389484 334.847,181.73 Z" id="Shape"/>
            <polygon id="Shape" points="357.857 174.973 365.131 174.973 363.2 182.157 355.926 182.157"/>
        </g>
    </g>
</svg>