<svg xmlns="http://www.w3.org/2000/svg" viewBox="0 0 800 157.04">
  <g>
    <g>
      <path d="M224.95,60.84h31.85c4.06-.07,8.1.57,11.94,1.89,3.23,1.12,6.19,2.91,8.67,5.26,1.9,1.97,3.39,4.3,4.38,6.84,1.05,2.73,1.57,5.64,1.53,8.57v.2c.04,2.69-.39,5.37-1.28,7.91-.8,2.26-1.99,4.37-3.52,6.23-1.52,1.82-3.33,3.37-5.36,4.59-2.15,1.29-4.47,2.27-6.89,2.91l19.29,27.05h-14.8l-17.61-24.9h-15.77v24.9h-12.45V60.84ZM255.83,96.26c4.5,0,8.09-1.08,10.75-3.23,2.65-2.12,4.13-5.38,3.99-8.77v-.2c0-3.9-1.3-6.85-3.89-8.87-2.59-2.02-6.25-3.02-10.96-3.02h-18.33v24.09h18.43Z"/>
      <path d="M297.52,58.39h13.37v11.74h-13.37v-11.74ZM298.03,78.39h12.45v53.89h-12.45v-53.89Z"/>
      <path d="M321.4,78.39h13.27l14.49,39.6,14.59-39.6h12.96l-22.05,54.3h-11.12l-22.15-54.3Z"/>
      <path d="M411.94,133.51c-3.72.03-7.41-.66-10.87-2.04-6.68-2.63-11.97-7.89-14.65-14.54-1.46-3.61-2.19-7.48-2.15-11.38v-.21c-.03-3.73.63-7.43,1.94-10.92,1.23-3.3,3.08-6.33,5.46-8.93,2.34-2.55,5.17-4.59,8.32-6.02,3.34-1.49,6.96-2.24,10.62-2.2,3.89-.08,7.75.72,11.28,2.35,3.13,1.48,5.88,3.64,8.06,6.33,2.19,2.74,3.84,5.88,4.85,9.24,1.1,3.59,1.65,7.32,1.63,11.08,0,.54-.02,1.11-.05,1.68s-.09,1.17-.16,1.78h-39.6c.68,4.43,2.43,7.81,5.26,10.16,2.89,2.37,6.53,3.62,10.26,3.52,2.74.07,5.47-.49,7.96-1.63,2.45-1.24,4.69-2.86,6.63-4.8l7.25,6.43c-2.56,3.04-5.7,5.54-9.23,7.35-3.99,1.93-8.38,2.87-12.81,2.76ZM424.18,101.56c-.19-1.91-.64-3.78-1.33-5.56-.63-1.65-1.57-3.18-2.76-4.49-1.17-1.26-2.57-2.29-4.14-3.01-1.72-.77-3.58-1.16-5.46-1.12-3.56-.1-7,1.33-9.44,3.93-2.58,2.84-4.18,6.44-4.54,10.26h27.66Z"/>
      <path d="M448.88,78.39h12.45v8.45c.87-1.29,1.84-2.51,2.9-3.65,1.09-1.16,2.32-2.18,3.66-3.04,1.42-.91,2.97-1.62,4.58-2.11,1.83-.54,3.74-.8,5.65-.77,6.11,0,10.83,1.87,14.15,5.61s4.99,8.78,4.99,15.11v34.29h-12.45v-30.55c0-4.21-.99-7.45-2.98-9.73-1.99-2.27-4.81-3.41-8.45-3.41-3.27-.12-6.43,1.16-8.7,3.51-2.22,2.34-3.34,5.62-3.34,9.83v30.35h-12.46v-53.89Z"/>
      <path d="M546.87,133.51c-4.98.05-9.91-.92-14.49-2.86-8.73-3.68-15.63-10.7-19.17-19.5-1.87-4.57-2.81-9.46-2.78-14.39v-.2c-.04-4.91.89-9.78,2.73-14.34,3.56-8.87,10.52-15.96,19.32-19.7,4.71-1.98,9.79-2.97,14.9-2.91,3-.03,5.99.25,8.93.82,2.54.5,5.02,1.27,7.4,2.3,2.19.96,4.28,2.14,6.23,3.52,1.91,1.37,3.72,2.87,5.41,4.49l-8.07,9.29c-2.72-2.55-5.77-4.72-9.08-6.43-3.39-1.68-7.14-2.52-10.92-2.45-3.25-.03-6.48.65-9.44,1.99-2.84,1.29-5.39,3.13-7.5,5.41-2.14,2.33-3.8,5.05-4.9,8.01-1.17,3.13-1.76,6.45-1.73,9.8v.2c-.02,3.36.57,6.7,1.73,9.85,1.1,2.99,2.76,5.75,4.9,8.11,2.1,2.31,4.65,4.17,7.5,5.46,2.96,1.34,6.19,2.02,9.44,1.99,3.89.11,7.75-.75,11.23-2.5,3.38-1.85,6.5-4.13,9.29-6.79l8.06,8.16c-1.77,1.91-3.7,3.67-5.77,5.26-2.02,1.54-4.19,2.87-6.48,3.98-2.42,1.16-4.97,2.02-7.6,2.55-3.01.6-6.07.89-9.13.86Z"/>
      <path d="M588.21,57.78h12.45v74.51h-12.45V57.78Z"/>
      <path d="M642.3,133.51c-3.9.03-7.77-.71-11.38-2.2-3.39-1.38-6.47-3.41-9.08-5.97-2.56-2.53-4.59-5.55-5.97-8.88-1.43-3.43-2.16-7.11-2.14-10.82v-.2c-.03-3.75.72-7.47,2.19-10.92,2.88-6.79,8.3-12.17,15.11-15,3.63-1.52,7.54-2.29,11.48-2.25,3.94-.04,7.84.71,11.48,2.2,6.8,2.77,12.22,8.13,15.05,14.9,1.44,3.44,2.17,7.14,2.14,10.87v.21c.02,3.72-.73,7.4-2.2,10.82-2.88,6.8-8.32,12.2-15.16,15-3.65,1.52-7.57,2.29-11.53,2.25ZM642.5,122.79c2.32.04,4.62-.43,6.74-1.38,1.94-.88,3.69-2.15,5.12-3.72,1.43-1.59,2.54-3.44,3.24-5.46.75-2.11,1.13-4.34,1.12-6.59v-.2c.01-2.3-.4-4.59-1.22-6.74-.77-2.04-1.92-3.91-3.4-5.51-1.46-1.57-3.22-2.84-5.17-3.73-4.24-1.84-9.05-1.84-13.29,0-1.93.88-3.67,2.12-5.12,3.67-1.45,1.58-2.55,3.43-3.25,5.46-.75,2.13-1.13,4.38-1.12,6.64v.21c-.02,2.28.39,4.55,1.22,6.68.78,2.03,1.94,3.9,3.4,5.51,1.45,1.6,3.21,2.88,5.17,3.78,2.05.93,4.29,1.4,6.54,1.38h0Z"/>
      <path d="M702.26,133.41c-6.11,0-10.82-1.87-14.15-5.61-3.32-3.74-4.99-8.78-4.99-15.11v-34.3h12.45v30.55c0,4.21.99,7.45,2.98,9.72s4.81,3.41,8.45,3.41c3.27.12,6.43-1.15,8.7-3.51,2.23-2.34,3.34-5.62,3.34-9.83v-30.34h12.45v53.89h-12.45v-8.46c-1.78,2.63-4.02,4.91-6.62,6.75-3.01,2-6.57,2.99-10.18,2.84Z"/>
      <path d="M769.28,133.41c-3.19,0-6.34-.62-9.29-1.84-3-1.23-5.71-3.07-7.96-5.41-2.42-2.54-4.32-5.52-5.61-8.78-1.49-3.8-2.22-7.86-2.15-11.94v-.21c-.07-4.08.64-8.13,2.09-11.94,1.26-3.26,3.14-6.24,5.55-8.78,2.26-2.35,4.98-4.19,8-5.41,2.96-1.21,6.12-1.84,9.32-1.84,3.87-.15,7.69.85,10.99,2.86,2.8,1.79,5.27,4.03,7.34,6.64v-28.99h12.45v74.51h-12.45l.1-8.98c-2,2.82-4.51,5.24-7.4,7.15-3.28,2.06-7.1,3.09-10.97,2.96ZM772.19,122.69c4.13,0,8.07-1.72,10.88-4.75,1.46-1.59,2.62-3.45,3.41-5.46.87-2.24,1.31-4.63,1.27-7.04v-.21c.03-2.42-.4-4.83-1.27-7.09-.77-2.02-1.93-3.88-3.41-5.46-1.41-1.48-3.1-2.67-4.98-3.47-1.86-.81-3.87-1.23-5.9-1.22-2.04-.01-4.07.39-5.95,1.17-1.87.78-3.55,1.95-4.93,3.42-1.47,1.58-2.62,3.43-3.36,5.46-.84,2.31-1.26,4.75-1.22,7.2v.21c-.03,2.42.38,4.82,1.22,7.09.74,2.03,1.88,3.88,3.36,5.46,1.39,1.48,3.07,2.66,4.93,3.47,1.88.82,3.9,1.23,5.95,1.22Z"/>
      <path d="M184.85,157.04H54.86C24.56,157.04,0,132.47,0,102.17c0-27.55,20.44-50.83,47.76-54.4C51.67,17.73,79.2-3.45,109.25.47c27.33,3.56,47.78,26.85,47.77,54.41h-15.1c.22-21.95-17.4-39.93-39.35-40.15-21.95-.22-39.93,17.4-40.15,39.35,0,.27,0,.53,0,.8v7.55h-7.56c-21.95,0-39.75,17.8-39.75,39.75s17.8,39.75,39.75,39.75h129.99v15.11Z"/>
      <rect x="109.32" y="114.9" width="75.53" height="15.11"/>
      <rect x="109.32" y="87.87" width="75.53" height="15.11"/>
      <rect x="109.32" y="60.84" width="75.53" height="15.11"/>
    </g>
  </g>
</svg>